<svg xmlns="http://www.w3.org/2000/svg" width="697" height="970" viewBox="0 0 697 970" fill="none">
  <path d="M154.585 4.00183C151.647 9.73309 147.87 11.4105 136.398 11.5503C115.694 12.1094 92.3313 23.1526 84.3572 36.1527C75.9634 49.8517 68.549 76.8305 68.549 93.8845C68.549 101.573 69.2484 104.788 72.6059 111.358C74.8443 115.691 78.3417 120.863 80.3002 122.68C84.2173 126.315 85.1966 132.745 82.2588 134.982C81.2795 135.82 77.3624 136.799 73.7251 137.218C65.8909 138.057 64.492 139.455 60.1552 151.616C57.0775 160.563 53.8599 164.756 50.0827 164.756C48.9635 164.756 45.4661 166.713 42.5283 169.09C39.4506 171.466 33.0154 175.38 27.9792 177.617C16.5077 182.789 12.3108 186.703 5.45594 199.144C1.39896 206.552 0 210.746 0 215.359C0 226.122 8.53365 246.671 16.7875 256.176C19.1657 258.832 26.4403 270.574 33.0154 282.456C47.5646 308.457 51.4817 313.349 62.9531 319.779L71.7666 324.812L78.3417 339.769C85.1966 355.145 85.6163 355.565 115.554 389.812C120.59 395.544 126.466 403.092 128.424 406.447L131.922 412.597L127.865 415.533C121.29 420.286 117.792 424.619 113.316 433.565C107.44 445.307 107.44 458.168 113.176 470.189C115.274 474.802 118.352 479.555 119.751 480.953C123.668 484.308 132.341 486.265 143.113 486.265C148.429 486.265 153.885 486.964 155.424 487.803C158.922 489.62 164.657 501.641 165.916 509.469C166.476 513.803 165.916 517.018 163.678 522.05C161.02 527.921 160.6 531.136 160.74 544.975C161.02 560.771 158.082 580.481 153.186 596.836C151.227 603.685 149.549 619.761 146.611 658.202C144.512 687.557 144.512 688.536 147.31 703.633C149.689 717.052 152.486 765.418 152.486 796.311C152.486 812.387 151.927 816.86 148.29 830.838C143.253 850.129 143.113 854.043 147.31 858.516C150.108 861.591 152.207 862.15 169.973 863.688C180.745 864.527 190.678 865.925 192.217 866.763C194.455 868.022 194.595 869.14 193.896 875.29C193.336 879.344 191.657 886.613 190.258 891.645C188.859 896.678 186.621 908.28 185.222 917.506C183.124 933.022 182.284 935.399 175.289 948.538C166.196 965.872 166.056 969.087 174.45 969.646C181.585 970.205 190.118 966.152 193.756 960.56C195.155 958.463 199.352 953.431 202.849 949.657C206.486 945.743 214.041 935.678 219.636 927.291C225.652 918.345 234.745 907.301 241.18 900.871C259.647 882.699 260.066 881.441 252.512 865.785C249.854 860.054 248.035 854.602 248.455 852.925C248.875 851.387 248.175 846.355 247.056 841.742C244.258 831.258 244.258 814.483 246.916 795.193C248.035 787.085 249.714 766.676 250.553 749.762C251.533 729.353 252.932 715.095 254.75 707.407C256.149 700.977 257.688 691.192 258.108 685.74C259.087 673.579 263.284 648.417 268.6 623.954C270.698 613.89 273.356 601.169 274.336 595.578C276.154 584.535 275.735 584.954 287.906 583.696C296.02 582.717 300.776 579.502 300.776 574.61C300.776 572.513 298.818 564.545 296.439 556.857C293.921 548.749 292.382 541.62 292.942 539.384C293.222 537.287 297.838 528.48 303.014 519.674C308.191 510.867 318.823 492.695 326.517 479.276C350.019 438.598 365.548 420.565 376.879 420.565C378.838 420.565 388.491 416.511 398.283 411.619C418.848 401.275 425.843 399.038 434.237 400.296C438.853 400.995 442.071 400.436 448.786 397.64C455.921 394.565 459.558 394.006 470.33 394.006C477.465 394.006 485.858 394.705 488.936 395.404C493.273 396.382 495.231 396.242 497.749 394.565C499.428 393.447 513.138 386.318 528.107 378.629C556.925 363.812 566.158 361.016 576.371 363.672C579.029 364.371 584.625 364.651 588.682 364.231C592.879 363.812 597.635 363.952 599.174 364.511C600.853 365.07 610.086 364.791 619.739 363.672C637.645 361.575 644.08 361.855 676.536 366.328C688.987 368.006 692.065 367.167 695.282 361.296C696.961 358.081 696.821 357.382 694.863 355.145C693.464 353.747 692.484 350.952 692.484 349.134C692.484 347.177 690.946 343.543 688.987 340.887C687.029 338.231 685.49 335.435 685.49 334.597C685.49 333.618 682.132 330.123 678.215 326.769C671.08 320.898 670.521 320.618 661.707 320.758C656.671 320.758 650.236 321.317 647.438 321.876C642.402 322.994 642.122 322.855 642.122 319.779C642.122 317.962 643.661 313.209 645.34 309.435C650.516 298.392 650.935 295.177 647.718 291.962C646.179 290.424 643.381 289.166 641.562 289.166C636.946 289.166 620.998 295.037 607.568 301.607C601.412 304.682 593.718 307.897 590.221 308.736C581.827 311.113 553.288 310.693 538.599 308.037C522.511 305.242 506.843 305.381 489.496 308.596C465.853 313.07 446.408 316.984 432.978 319.919C426.123 321.457 416.89 322.575 412.693 322.435L404.998 322.016L404.859 316.285C404.859 313.209 404.019 309.435 403.32 308.037C402.061 306.08 402.48 304.543 404.579 301.607C408.496 296.435 407.237 292.241 399.263 284.553C394.786 280.08 389.47 276.865 381.776 273.79C368.486 268.338 365.268 266.101 336.869 242.198C311.828 221.09 279.652 196.488 266.781 188.66C262.025 185.864 251.113 179.853 242.579 175.38C232.087 169.928 226.351 166.154 224.813 163.358C221.455 157.767 202.569 146.304 195.295 145.605C189.699 144.906 182.984 147.003 177.388 151.057C172.771 154.412 173.191 150.778 178.087 143.509C182.984 136.24 187.88 122.82 189.279 112.756C189.839 109.401 189.139 106.046 187.46 102.831C185.502 99.3361 184.663 94.0242 184.243 83.4005C183.823 73.7552 182.844 67.3251 181.305 64.3895C180.046 62.0132 179.067 58.9379 179.067 57.6798C179.067 55.4432 179.346 55.4432 181.865 57.8196C183.403 59.2175 184.663 59.7766 184.663 59.0776C184.663 58.3787 185.502 59.3572 186.481 61.1744C188.44 65.0885 190.958 65.0885 190.818 61.3143C190.678 57.8196 191.937 57.8196 195.155 61.3143C199.352 65.9272 200.331 64.6691 199.352 56.7013C198.232 48.7335 196.554 44.6797 193.336 42.3033C189.839 39.7871 190.118 35.7333 194.036 31.6795C198.512 27.0666 197.813 25.8085 192.077 28.0451C187.041 30.0021 182.984 28.744 183.543 25.3892C183.683 23.9913 183.403 22.1741 182.844 21.3353C182.284 20.3568 182.844 18.959 183.963 17.9805C186.481 15.8837 186.761 10.9911 184.523 10.9911C183.543 10.9911 180.885 12.2492 178.507 13.7869C172.352 17.5611 165.916 15.8837 165.357 10.432C165.077 7.91583 164.238 6.79755 162.979 7.21692C161.859 7.77606 160.88 6.51801 160.321 3.86206C159.341 -1.31006 157.383 -1.31006 154.585 4.00183ZM171.512 18.5396C177.388 18.6794 178.507 19.0988 177.948 20.916C177.668 22.1741 178.087 23.7117 178.927 24.131C179.766 24.6902 180.466 26.3676 180.466 28.0451C180.466 29.5827 181.585 31.1204 183.264 31.5397C185.362 32.0989 185.782 33.0774 185.222 35.5936C184.523 38.1097 185.362 39.9269 188.44 42.7227C193.056 47.056 195.854 51.669 195.854 55.0239C195.854 56.9808 195.574 56.9808 192.497 55.0239C190.678 53.7658 187.46 52.9271 185.222 53.0668C182.984 53.2066 180.186 52.9271 178.927 52.3679C177.528 51.669 176.269 52.0883 175.849 53.4862C174.87 55.8625 177.248 65.0885 179.067 66.2068C179.906 66.7659 180.466 70.9595 180.606 75.7122C180.606 87.4543 182.564 101.573 184.663 106.885C187.46 113.315 183.264 129.949 176.129 140.992C169.694 151.057 168.994 156.369 174.03 156.369C175.989 156.369 179.346 154.692 181.725 152.735C184.103 150.778 188.16 148.82 190.958 148.401C198.093 147.283 212.082 154.552 222.155 164.616C227.611 170.208 235.724 175.939 248.315 182.928C279.092 200.402 296.719 212.563 321.061 233.252C353.517 260.929 365.828 270.015 379.957 276.865C389.61 281.338 395.765 285.392 399.263 289.166C402.061 292.241 404.299 295.317 404.299 296.016C404.299 296.575 402.9 298.811 401.361 300.908C398.843 304.123 398.563 305.242 399.962 308.177C400.802 310.134 401.501 313.629 401.501 316.145C401.501 318.661 402.34 322.016 403.46 323.554C405.418 326.209 405.978 326.349 419.268 324.672C426.822 323.833 440.812 321.457 450.465 319.5C460.117 317.543 470.75 315.586 474.247 315.027C477.744 314.607 486.418 312.93 493.413 311.392C509.221 308.177 517.335 308.037 533.703 311.113C541.257 312.51 554.407 313.349 566.578 313.489C590.081 313.629 591.759 313.209 619.039 300.489C637.785 291.682 643.241 290.424 646.319 294.059C647.718 295.876 647.298 298.112 643.661 306.779C641.143 312.65 639.324 319.08 639.604 321.177C640.023 325.231 640.863 325.231 659.049 323.274C664.785 322.715 668.143 322.994 670.94 324.532C676.117 327.328 684.091 334.736 684.091 336.693C684.091 337.672 685.35 339.909 686.889 341.866C688.427 343.823 689.687 346.758 689.687 348.435C689.687 349.973 690.666 353.188 691.785 355.425C693.883 359.339 693.743 359.758 691.225 362.274C688.707 364.791 687.868 364.93 676.256 363.253C664.785 361.575 634.987 360.737 607.847 361.436C583.226 361.995 579.868 361.995 576.231 360.317C571.055 358.221 558.324 360.457 547.692 365.21C543.495 367.167 539.578 368.844 539.159 368.844C538.739 368.844 534.962 371.081 530.625 373.877C526.148 376.672 520.273 379.748 517.335 380.866C514.397 381.844 508.242 384.92 503.765 387.576L495.371 392.468L477.465 391.63C460.117 390.791 458.998 390.931 449.905 394.565C442.63 397.5 439.133 398.199 434.936 397.5C426.403 396.103 412.133 400.995 388.211 413.856C385.133 415.533 379.537 417.35 375.76 417.909C363.03 420.006 346.662 437.479 329.175 467.673C323.159 477.878 314.206 493.114 309.31 501.362C296.02 523.728 289.025 537.986 289.025 542.739C289.025 545.115 290.704 551.266 292.802 556.298C294.761 561.33 296.859 568.04 297.419 571.255C298.258 576.707 298.118 577.126 294.341 578.524C292.103 579.502 286.786 580.341 282.59 580.76C277.973 581.04 274.336 582.158 273.356 583.416C272.517 584.535 271.398 589.427 270.978 594.18C270.559 599.073 268.6 608.997 266.641 616.266C261.885 634.858 257.268 661.697 255.869 680.149C255.31 688.815 253.211 703.633 251.253 713.138C248.735 725.439 247.616 734.945 247.616 745.289C247.616 753.536 246.357 769.752 244.958 781.494C240.061 820.075 241.18 846.914 248.455 866.064C250.274 870.817 251.813 877.247 251.813 880.323C251.813 885.635 250.973 886.753 239.921 897.516C232.507 904.646 223.693 915.13 216.419 925.753C210.124 934.979 202.709 944.764 199.911 947.56C197.113 950.216 193.196 954.689 191.098 957.625C187.181 962.936 180.046 967.13 175.01 967.13C170.533 967.13 171.372 962.377 177.388 952.592C184.243 941.829 185.362 938.334 188.16 916.807C189.559 907.162 191.797 896.119 193.336 892.344C196.414 884.377 198.372 865.925 196.274 864.667C194.036 863.269 166.476 859.495 158.502 859.495C152.207 859.495 150.808 858.935 148.849 856C146.331 852.086 146.751 849.15 152.207 831.537C155.844 819.935 155.984 818.817 155.844 786.107C155.704 751.719 154.025 724.74 150.248 695.805C148.569 682.805 148.429 676.654 149.689 663.654C150.528 654.987 151.787 639.89 152.486 630.385C153.326 620.739 155.564 605.922 157.523 597.535C159.481 589.008 161.999 578.105 163.119 573.352C164.238 568.459 165.077 557.416 165.077 548.19C165.077 534.771 165.637 530.577 167.875 525.545C169.414 522.19 170.673 516.738 170.673 513.383C170.673 505.695 165.916 492.835 160.88 487.243C157.103 483.05 156.404 482.77 142.974 481.931C135.279 481.372 127.725 480.254 126.186 479.415C124.507 478.577 121.01 473.265 118.072 467.534C113.316 457.888 113.036 456.63 114.015 448.662C115.134 438.877 121.29 427.555 129.264 420.565C132.062 418.049 134.3 415.114 134.3 413.995C134.3 412.458 134.999 412.178 136.818 413.017C138.077 413.576 141.714 414.275 144.792 414.694C153.326 415.673 153.885 416.511 153.885 430.909C153.885 451.458 156.264 467.813 160.6 476.06C177.388 508.491 188.58 527.502 195.015 535.05C202.849 543.997 220.196 546.233 233.626 539.943C251.393 531.695 252.512 524.147 235.864 524.007C229.009 524.007 214.74 520.233 210.263 517.437C202.429 512.265 197.533 503.179 189.699 479.555C185.502 466.695 181.305 452.157 180.466 447.264C179.626 442.372 177.668 434.963 176.129 430.909C171.652 418.888 172.631 416.232 182.844 412.318C187.88 410.361 191.937 407.845 192.357 406.447C193.056 404.63 194.875 403.791 199.771 403.511C206.346 403.092 206.346 403.092 210.543 394.425C212.921 389.533 215.44 385.619 216.279 385.619C217.818 385.619 224.113 398.339 226.491 406.587C227.331 409.243 229.289 418.748 230.828 427.555C235.305 452.017 241.18 473.265 251.813 501.641C265.103 537.287 268.46 548.19 270.279 560.352C272.097 573.911 273.217 575.029 282.03 572.793C285.807 571.954 289.584 570.276 290.424 569.158C292.242 566.922 291.263 561.051 286.507 546.373C284.408 539.803 283.709 534.212 283.849 525.964C284.128 513.523 283.569 511.426 272.237 484.168C261.745 459.286 257.129 441.533 257.268 427.555C257.548 409.243 254.471 396.103 246.916 382.963C243.279 376.812 238.383 370.102 236.004 368.285C224.253 359.059 224.253 358.64 233.766 342.844C238.942 334.177 242.16 330.403 245.937 328.446C253.491 324.532 255.59 321.457 256.709 312.93C257.688 305.381 257.548 304.962 251.813 297.833C248.455 293.639 244.818 290.564 243.279 290.564C240.621 290.564 240.341 291.403 238.662 301.467C238.103 304.682 234.326 310.134 226.771 318.801C220.616 325.93 215.44 333.199 214.88 335.435C214.041 339.769 211.243 341.586 202.289 342.984C195.295 344.102 190.818 348.855 188.719 356.962C187.321 362.414 186.201 363.952 182.284 365.489C179.626 366.608 173.891 370.941 169.274 375.135C164.657 379.328 159.621 382.963 157.803 383.382C142.274 386.318 138.637 387.436 139.196 388.554C139.756 389.253 137.658 389.812 134.72 389.812C128.564 389.812 125.766 391.769 126.886 395.264C128.005 398.339 128.564 398.759 107.3 374.576C89.6732 354.446 88.1344 352.21 82.6784 338.79C76.2432 322.994 75.5438 322.156 64.492 316.285C54.4195 310.833 49.8029 304.962 37.7719 282.456C32.176 271.972 24.0621 258.832 19.8652 253.521C15.5284 248.069 11.4715 243.037 10.772 242.058C8.81344 239.402 4.19688 220.531 4.19688 214.8C4.19688 209.907 11.1917 195.369 16.5077 189.359C17.7668 187.961 23.3626 184.746 28.6786 182.229C34.1346 179.853 42.948 174.961 48.404 171.466C57.6371 165.455 58.6164 164.477 62.2537 155.53C67.7096 142.53 69.1085 140.992 76.3831 140.992C81.1396 140.992 82.9582 140.294 85.3365 137.218C88.9738 132.466 88.2743 127.154 83.0981 121.143C76.9427 113.594 72.7458 103.809 72.7458 96.6802C72.7458 86.0565 75.4039 72.9165 80.0204 59.2175C85.896 42.3033 88.4142 37.4108 94.7095 31.9591C104.502 23.2924 127.445 15.1848 142.134 15.1848C145.911 15.1848 149.828 14.6256 150.808 13.9266C152.067 13.2277 155.005 13.7869 158.502 15.6041C161.859 17.2816 167.455 18.5396 171.512 18.5396ZM188.859 57.1207C188.859 57.8196 188.58 58.5185 188.3 58.5185C187.88 58.5185 187.181 57.8196 186.761 57.1207C186.341 56.2819 186.621 55.7228 187.321 55.7228C188.16 55.7228 188.859 56.2819 188.859 57.1207ZM185.082 379.468C185.502 380.027 185.082 382.124 183.963 384.361C181.305 389.393 181.305 392.608 183.823 392.608C184.942 392.608 186.341 393.307 186.901 394.146C187.6 395.264 186.621 395.544 183.823 394.984C180.745 394.425 178.787 395.124 175.15 398.339C171.932 401.135 169.134 402.393 165.497 402.393C160.6 402.393 160.461 402.393 161.3 397.361C162.419 390.931 165.217 387.855 171.932 385.898C174.87 384.92 178.367 382.963 179.766 381.425C182.424 378.49 183.683 378.07 185.082 379.468Z" fill="#0F64CD" fill-opacity="0.1"/>
</svg>