<svg xmlns="http://www.w3.org/2000/svg" width="574" height="891" viewBox="0 0 574 891" fill="none">
  <path d="M502.67 0.545654C500.972 2.112 488.432 6.02783 485.427 6.02783C483.99 6.02783 482.162 5.24463 481.117 4.33093C479.549 3.0257 479.549 3.15619 480.986 5.11414C482.553 7.07202 482.423 7.72467 480.594 9.68256C479.418 10.9879 478.504 13.2068 478.504 14.3816C478.504 15.6868 477.328 16.9921 475.891 17.3837C473.932 17.9058 473.54 18.8195 474.063 21.2996C474.846 23.9101 474.063 25.4764 470.144 29.0007C467.531 31.3502 465.441 34.2217 465.441 35.266C465.441 36.3102 465.049 38.2681 464.527 39.5734C463.612 41.7924 463.743 41.7924 467.27 39.5734C469.229 38.2681 472.364 37.3544 474.324 37.485C476.283 37.746 478.635 37.485 479.549 36.9628C484.121 34.0912 485.035 40.226 481.117 47.7966C479.026 51.9735 478.504 55.4977 478.504 66.201C478.504 77.1653 477.981 80.4285 475.761 84.997L473.018 90.4792L475.761 101.443C477.459 107.97 480.202 115.018 482.815 118.934C488.04 126.766 489.085 129.376 488.171 131.987C486.995 134.989 483.599 134.336 477.981 130.029C471.058 124.808 464.918 124.808 454.468 130.29C450.157 132.64 443.626 137.6 439.968 141.385C435.396 146.084 427.166 151.827 412.536 160.181C383.275 176.888 372.302 184.59 343.302 208.998C309.077 237.714 300.586 243.719 288.829 247.504C286.086 248.287 280.992 251.681 277.334 254.944C270.411 261.079 269.104 265.256 272.893 268.519C274.199 269.563 274.721 271.39 274.199 273.479C273.807 275.306 273.154 278.961 272.762 281.441C270.803 293.058 271.717 292.275 261.267 291.361C252.906 290.578 228.74 286.271 190.465 278.7C174.92 275.698 161.727 275.567 146.704 278.178C131.029 280.919 105.033 281.049 94.9749 278.308C90.5335 277.134 79.6912 272.696 70.8084 268.388C54.349 260.426 46.6418 258.729 43.6374 262.254C42.5923 263.559 43.2455 266.3 46.1193 273.087C50.4301 283.268 51.2139 290.186 47.9481 291.492C46.7725 291.883 42.5923 291.231 38.6734 290.056C33.9707 288.49 29.7906 288.098 26.9167 288.62C21.9528 289.534 9.54297 298.018 9.54297 300.368C9.54297 301.151 8.10605 303.761 6.27723 306.241C4.44841 308.721 3.01148 312.376 3.01148 314.595C3.01148 316.684 2.2277 319.425 1.18267 320.469C-0.515521 322.296 -0.384891 322.949 1.57456 325.69C3.92589 328.823 4.18715 328.823 13.2006 327.387C18.2952 326.473 24.8267 325.82 27.8311 325.82C30.8356 325.82 35.9302 325.168 39.1959 324.385C43.768 323.21 49.6463 323.21 64.2769 324.515C74.7272 325.429 84.2632 326.082 85.3083 325.951C89.4884 325.298 109.867 324.254 117.313 324.254C126.065 324.124 138.213 328.562 153.236 337.437C157.938 340.179 163.164 342.92 164.992 343.442C166.821 343.964 172.308 346.705 177.141 349.576L186.154 354.798L196.997 353.231C209.407 351.404 218.812 352.318 227.172 356.103C231.091 357.8 236.447 358.713 243.762 358.844C254.996 359.236 256.956 359.888 284.257 373.594C289.091 376.074 294.838 378.031 297.059 378.031C306.856 378.031 324.361 396.827 340.69 425.152C346.307 434.811 356.104 451.388 362.374 462.222C380.14 492.765 379.878 491.329 372.563 512.214C367.469 526.964 367.861 527.616 381.446 529.313C386.541 529.966 391.374 530.879 392.027 531.271C392.68 531.663 393.595 535.839 394.117 540.538C394.64 545.237 396.468 554.635 398.167 561.423C402.477 577.608 407.441 607.891 408.486 623.423C409.009 630.211 410.838 642.872 412.536 651.487C414.365 660.624 415.932 674.721 416.455 685.424C416.847 695.475 418.022 710.094 419.067 718.056C422.333 744.553 422.725 761.391 420.504 773.269C419.329 779.273 418.676 784.756 419.067 785.408C419.459 785.93 418.414 789.846 416.585 794.023C412.275 804.335 411.23 810.47 413.32 814.124C414.234 815.821 419.721 821.956 425.599 827.699C431.608 833.703 440.36 844.146 445.716 852.238C463.351 878.474 478.504 892.963 485.427 890.222C488.693 889.047 488.171 887.22 481.77 876.647C475.891 866.596 474.716 862.942 471.842 842.057C471.058 835.531 468.837 826.002 467.139 820.651C463.743 809.947 462.698 797.939 465.049 795.589C466.878 793.762 486.995 790.629 497.707 790.499C511.292 790.499 512.598 786.322 505.936 764.132C502.148 751.21 502.017 750.427 502.017 722.102C502.017 694.039 504.499 655.142 507.373 637.781C509.071 627.209 509.202 606.063 507.373 597.057C506.72 593.272 505.806 584.004 505.283 576.433C504.891 568.863 503.585 558.943 502.54 554.244C494.702 519.393 492.743 507.515 493.004 496.028C493.265 486.239 492.873 482.976 490.261 476.841C487.517 470.184 487.387 468.879 488.824 462.613C491.044 452.563 496.008 442.512 500.189 439.902C502.801 438.074 506.589 437.422 515.211 437.291C529.188 437.161 531.932 435.594 537.287 425.021C544.733 410.402 541.468 393.825 529.058 382.078C526.184 379.467 523.441 376.074 522.787 374.377C521.742 371.505 521.481 371.505 518.738 373.333C517.17 374.507 513.513 375.421 510.9 375.421C506.72 375.421 505.675 375.943 504.63 378.815C503.846 380.642 503.716 383.514 504.107 385.08C505.022 388.735 502.409 418.495 500.58 425.674C499.797 428.546 497.707 433.245 495.747 436.116C493.918 438.988 489.608 446.689 486.342 453.215C478.373 469.009 471.189 480.365 464.788 487.153C455.644 496.681 442.058 497.986 427.95 490.807C419.721 486.5 414.103 480.365 416.977 478.668C417.892 478.016 422.856 477.232 427.95 476.841C444.932 475.536 454.729 470.445 461.653 459.481C464.918 454.129 476.936 417.842 478.635 408.183C479.288 404.137 481.508 396.044 483.468 390.04C487.648 376.987 487.256 375.943 476.022 371.766C471.45 369.939 468.054 367.85 468.054 366.806C468.054 365.631 466.486 364.979 463.351 364.979C456.558 364.979 454.729 363.412 450.419 354.667C448.328 350.229 446.238 346.705 445.716 346.705C444.148 346.705 437.225 362.107 435.527 369.417C434.612 372.81 433.045 380.773 432 387.038C428.473 407.792 421.157 432.853 410.707 460.655C400.126 488.98 395.946 502.685 394.248 514.824C393.725 518.871 392.55 522.134 391.505 522.526C388.369 523.7 377.658 521.09 376.09 518.74C375.045 517.043 375.698 512.997 378.833 501.772C382.099 490.285 383.014 484.673 382.883 476.58C382.752 468.748 383.405 464.571 385.365 459.611C386.932 455.956 390.851 446.559 394.117 438.727C403.261 416.929 407.049 401.918 407.441 386.516C407.833 365.762 409.662 358.191 417.892 344.355C422.986 335.871 426.644 331.303 430.171 329.084C438.531 323.732 438.27 321.513 427.428 304.283C424.162 299.062 420.635 295.277 417.239 293.45C409.923 289.273 407.964 286.01 407.964 277.917C407.964 272.696 408.617 270.346 410.968 267.866C412.536 266.169 414.887 263.428 416.194 261.862C419.982 257.293 422.856 258.99 424.031 266.561C424.946 272.304 426.383 274.654 435.396 284.835C441.013 291.231 446.108 298.018 446.5 299.976C447.545 304.414 451.725 307.547 456.689 307.547C464.527 307.547 471.972 315.378 471.972 323.602C471.972 326.212 473.279 327.517 479.026 330.258C482.945 332.216 488.04 335.871 490.261 338.351C494.833 343.703 501.234 346.705 507.765 346.705C510.247 346.705 513.252 347.619 514.427 348.793C515.603 349.968 518.869 351.143 521.742 351.273C528.666 351.665 530.364 353.362 528.274 358.061C526.968 360.932 527.751 360.41 531.67 355.842C534.414 352.709 543.166 342.528 551.004 333.391C564.067 318.38 565.895 315.639 571.121 302.978C576.738 289.403 577.13 288.881 583.53 285.487C595.81 279.092 601.165 272.696 612.791 251.159C618.8 240.194 626.899 227.403 630.818 222.704C638.003 214.089 640.224 208.998 643.359 193.596C644.926 186.025 644.926 185.764 640.485 177.28C634.607 166.316 628.336 160.05 620.237 157.179C616.58 155.873 609.264 151.958 603.647 148.303C593.458 141.646 593.066 141.254 586.274 125.069C584.053 119.848 583.661 119.587 578.436 119.587C566.679 119.587 562.368 110.319 569.814 101.313C571.774 98.8329 575.17 93.4813 577.13 89.5655L580.787 82.3865L579.22 69.3337C576.738 49.363 567.855 24.8238 560.54 18.2974C551.265 9.81311 534.675 3.41724 518.346 2.112C512.598 1.58984 506.981 0.806702 505.936 0.284607C504.761 -0.237549 503.324 0.0235596 502.67 0.545654ZM532.193 27.6954C538.855 30.6975 539.9 31.6112 539.9 34.7439C539.9 36.7018 541.076 39.3123 542.513 40.6176C543.95 41.9229 545.125 44.5334 545.125 46.3608C545.125 48.1882 545.648 50.6683 546.301 51.582C547.085 52.7567 547.085 54.4536 546.301 55.8893C544.472 59.2831 542.774 58.761 543.558 54.8452C544.08 51.9735 542.251 47.0135 536.112 34.7439C535.589 33.6996 533.107 31.4807 530.756 29.7838C527.229 27.4343 524.616 26.9122 515.864 26.7817C508.549 26.6512 506.328 26.3901 508.549 25.6069C515.342 23.388 524.355 24.1711 532.193 27.6954ZM495.486 30.8281C492.351 33.308 490.261 34.0912 490.261 32.7859C490.261 32.1333 496.923 28.348 498.098 28.348C498.49 28.348 497.315 29.3923 495.486 30.8281ZM558.58 69.4642C558.972 69.9863 557.927 73.2495 556.098 76.7737C554.269 80.4285 552.571 83.0391 552.179 82.6475C551.918 82.3865 552.31 79.1233 553.094 75.338C554.4 69.3337 556.359 67.2452 558.58 69.4642ZM528.143 109.014C525.661 113.713 513.513 123.242 508.418 124.547C502.148 126.113 501.887 125.461 507.634 122.981C509.986 122.067 515.733 117.89 520.175 113.844C524.747 109.797 528.666 106.534 529.058 106.534C529.319 106.534 528.927 107.709 528.143 109.014ZM582.877 133.031C584.445 136.164 585.62 140.863 585.62 143.473C585.62 147.65 584.706 148.825 576.084 155.873C570.859 160.181 560.409 170.101 552.832 177.933L539.116 192.291L535.589 185.895C532.193 179.891 532.062 179.107 533.891 176.366C534.936 174.669 538.332 171.276 541.468 168.796C548.26 163.183 575.301 133.684 576.999 130.029C578.697 126.244 579.873 126.766 582.877 133.031ZM477.198 139.819C481.508 143.734 484.774 146.998 484.513 146.998C483.076 146.998 468.576 139.819 467.923 138.774C466.878 137.208 458.387 139.949 456.297 142.429C455.383 143.473 454.991 145.301 455.513 146.345C456.036 147.911 455.513 148.172 453.031 147.52C450.288 146.867 449.765 147.128 449.765 149.869C449.765 153.655 455.513 159.528 460.608 160.703C464.657 161.747 466.617 163.966 463.482 163.966C459.955 163.966 454.599 160.573 448.59 154.438C440.883 146.476 441.666 143.604 452.77 137.339C464.396 130.682 467.662 131.073 477.198 139.819ZM465.572 155.873C464.657 156.135 462.567 155.09 461 153.524L458.256 150.652L462.828 153.002C465.572 154.307 466.747 155.482 465.572 155.873ZM501.887 160.703C504.107 163.314 505.936 165.924 505.936 166.446C505.936 167.752 502.67 169.187 499.797 169.187C498.229 169.187 498.098 168.796 499.274 167.49C500.319 166.055 499.797 164.488 496.792 160.573C494.702 157.831 492.873 154.96 492.873 154.438C492.873 152.61 497.707 156.004 501.887 160.703ZM603.909 164.619C603.909 164.88 601.165 166.968 597.769 169.318C589.539 174.8 581.702 182.24 581.702 184.59C581.702 185.634 582.485 186.156 583.4 185.764C584.184 185.373 587.188 184.198 589.931 183.023C596.855 180.021 595.94 181.326 587.841 185.895C582.877 188.636 578.697 192.682 573.472 199.731C569.422 205.082 566.026 210.304 566.026 211.348C566.026 212.261 564.589 214.35 562.76 215.916C558.841 219.31 558.841 219.702 561.585 226.619C562.76 229.622 563.413 232.232 563.021 232.624C562.63 233.146 561.323 231.188 560.148 228.577C557.535 222.182 556.359 223.487 556.49 232.885C556.621 238.759 556.49 239.542 555.576 236.409C555.053 234.19 554.531 230.796 554.4 228.838C554.139 222.051 550.481 216.569 544.472 213.697C541.337 212.261 537.418 208.998 535.72 206.649C534.022 204.299 528.666 198.687 523.571 194.379C518.607 190.072 513.252 185.242 511.945 183.676C508.026 179.368 507.243 179.63 487.779 189.158C482.292 191.899 481.378 194.771 484.513 200.253C486.734 204.038 487.256 206.518 486.603 212L485.95 219.049L493.135 226.358C497.053 230.535 501.103 235.756 502.017 238.106C502.932 240.455 507.504 245.807 512.076 250.114C516.779 254.291 522.265 260.557 524.355 263.82C526.445 267.083 528.666 269.694 529.319 269.694C529.972 269.694 531.932 271.913 533.499 274.523C535.197 277.264 537.026 280.266 537.679 281.049C540.684 285.748 536.634 281.441 528.013 270.999C522.004 263.689 514.166 256.119 507.504 251.028C496.792 243.066 484.252 228.577 478.504 217.613C477.198 215.003 474.324 211.217 472.103 209.259C464.657 202.341 467.27 196.598 483.337 183.937C491.044 177.933 503.062 173.103 510.77 173.103C514.035 173.103 515.08 173.886 517.04 178.324C518.346 181.196 520.697 184.329 522.396 185.503C524.094 186.547 526.837 189.941 528.405 193.074C530.103 196.076 535.067 202.08 539.508 206.257C545.909 212.261 548.522 213.828 552.049 213.958C560.278 214.219 566.418 207.693 575.823 189.028C580.395 179.76 585.62 174.147 595.94 167.621C601.427 164.227 603.909 163.183 603.909 164.619ZM493.657 169.84C490.783 172.059 486.342 172.451 486.342 170.623C486.342 169.84 488.301 169.057 490.653 168.796C492.873 168.535 495.094 168.274 495.486 168.143C495.878 168.013 494.963 168.796 493.657 169.84ZM422.986 184.72C422.464 190.202 421.68 199.078 421.157 204.43L420.243 214.219L419.198 202.863C417.892 188.766 419.851 172.189 422.594 173.886C423.509 174.539 423.639 178.194 422.986 184.72ZM441.928 194.901C441.928 196.99 443.234 202.211 444.801 206.779C448.198 216.438 447.545 218.396 439.968 221.007C433.698 223.095 426.644 229.622 424.162 235.365C423.117 237.714 422.333 242.283 422.333 245.546C422.333 250.637 421.68 252.203 417.239 256.902C405.221 269.563 401.563 283.138 408.095 290.186C411.752 294.102 413.842 298.41 412.013 298.41C411.36 298.41 410.576 297.235 410.185 295.669C409.793 294.233 407.703 292.405 405.482 291.492C402.739 290.578 401.302 288.881 400.779 286.401C400.257 284.443 399.473 282.746 399.081 282.746C398.559 282.746 396.207 285.879 393.986 289.534C391.766 293.319 387.716 298.801 385.104 301.673L380.27 306.894L383.536 301.02C385.234 297.757 387.455 292.927 388.239 290.317C389.153 287.576 391.766 283.921 393.986 282.094C401.955 275.698 403.392 274.001 405.09 269.171C407.311 263.298 406.658 262.384 401.824 264.211C396.991 266.039 385.626 267.083 386.541 265.647C387.063 264.603 394.117 262.384 410.315 257.946C417.108 256.119 419.198 252.464 420.504 239.15L421.419 230.405L430.302 224.662C435.135 221.529 439.838 217.613 440.621 216.047C442.189 213.306 441.928 207.432 439.838 195.554C439.315 192.943 439.576 191.377 440.491 191.377C441.274 191.377 441.928 192.943 441.928 194.901ZM416.716 229.622C414.887 231.971 411.883 235.495 409.923 237.714C406.788 241.239 406.658 241.369 408.095 238.367C410.576 233.015 418.937 222.443 419.459 224.009C419.721 224.792 418.414 227.272 416.716 229.622ZM402.086 231.841C402.608 232.624 403.392 232.885 404.045 232.493C405.351 231.71 406.396 243.196 405.09 245.546C403.522 248.287 398.82 246.329 398.82 242.935C398.82 241.239 399.604 239.672 400.518 239.281C401.563 238.889 401.171 237.584 399.081 234.582C396.207 230.666 396.207 230.535 398.689 230.535C400.126 230.535 401.694 231.188 402.086 231.841ZM484.382 237.975C485.95 244.632 493.265 253.769 499.797 257.293C504.238 259.773 505.936 261.47 505.936 263.559C505.806 270.085 504.369 270.216 492.743 265.386C486.734 262.776 480.202 260.296 478.112 259.773C476.153 259.382 474.324 258.599 473.932 258.077C473.671 257.555 474.063 253.247 474.846 248.548C476.022 242.022 476.936 239.672 478.765 239.281C480.072 238.889 481.117 237.453 481.117 235.756C481.117 232.102 483.207 233.537 484.382 237.975ZM341.081 240.847C342.388 241.63 340.69 243.327 334.942 247.243C327.757 252.072 327.104 252.203 329.455 249.07C332.852 244.241 337.293 239.672 338.469 239.672C338.991 239.672 340.167 240.194 341.081 240.847ZM558.188 253.247C558.972 256.641 558.841 257.816 557.927 256.902C557.143 256.119 556.359 252.725 556.098 249.201C555.706 242.935 556.229 243.849 558.188 253.247ZM342.649 247.634C342.649 248.418 339.644 252.072 335.987 255.727C330.37 261.34 329.978 261.601 333.374 257.293C335.595 254.422 337.424 251.55 337.424 250.767C337.424 249.07 340.036 246.199 341.604 246.199C342.126 246.199 342.649 246.851 342.649 247.634ZM437.878 272.043C438.662 273.609 441.013 275.306 442.973 275.698C447.675 276.873 451.855 280.788 456.036 288.229C457.995 291.753 459.955 294.494 460.346 294.494C460.869 294.494 459.824 290.056 458.126 284.704C454.86 274.523 454.207 270.085 456.297 273.74C458.648 277.786 465.702 298.41 465.18 299.845C464.657 301.542 459.432 296.452 451.072 286.14C447.545 281.833 444.148 278.831 442.581 278.831C438.401 278.7 436.833 277.134 434.22 270.216C432.13 264.734 432 262.906 433.306 257.424L434.743 251.028L435.527 260.165C436.049 265.256 437.094 270.607 437.878 272.043ZM278.379 262.645C277.465 264.603 276.55 265.386 276.289 264.603C276.028 263.689 276.55 262.254 277.334 261.209C279.685 258.338 280.077 258.86 278.379 262.645ZM381.185 265.647C383.405 266.561 382.883 266.953 377.919 268.258C374.653 269.171 368.252 270.999 363.68 272.435C359.108 273.74 354.275 274.915 352.838 274.915C349.703 274.915 336.248 282.616 328.933 288.62C319.919 295.93 317.046 296.713 302.546 296.843C295.1 296.843 289.091 296.321 289.091 295.669C289.091 295.016 293.532 294.494 298.888 294.494C311.037 294.494 316 292.536 325.145 284.182C333.505 276.612 341.081 272.696 349.834 271.39C353.491 270.999 359.37 269.171 362.897 267.475C369.428 264.472 376.351 263.82 381.185 265.647ZM280.6 270.477C282.69 273.74 282.69 273.74 280.077 272.304C278.51 271.521 277.334 270.085 277.334 269.041C277.334 266.3 277.987 266.561 280.6 270.477ZM66.8895 276.089C70.2858 278.178 76.2948 280.788 80.3443 281.963C84.2632 283.007 89.0965 285.226 90.9253 286.662C92.7542 288.229 100.984 292.536 109.083 296.321C117.182 300.237 130.637 307.547 138.866 312.637C147.096 317.858 161.204 325.69 170.218 330.128C186.154 337.96 186.808 338.09 197.258 338.221C203.92 338.221 208.623 338.873 209.537 339.787C211.889 342.136 209.929 343.572 207.447 341.484C205.749 340.048 204.051 340.048 198.434 341.484C189.42 343.572 186.677 342.92 170.871 333.783C163.686 329.736 151.538 323.34 143.961 319.686C136.254 316.031 125.15 309.635 119.141 305.589C108.168 298.149 80.0831 283.791 73.0291 282.224C71.0696 281.702 67.412 281.963 64.93 282.746C61.1417 284.052 60.4886 284.835 60.4886 288.359C60.4886 290.709 61.9255 295.669 63.7543 299.323C65.4525 303.109 66.7588 306.241 66.4976 306.241C66.2363 306.241 64.2769 303.5 62.0562 299.976C59.0517 295.277 57.876 291.622 57.2229 284.443C55.9166 270.868 56.9616 269.955 66.8895 276.089ZM276.942 279.092C276.55 280.136 276.158 279.744 276.158 278.308C276.028 276.873 276.42 276.089 276.812 276.612C277.203 277.003 277.334 278.178 276.942 279.092ZM289.221 279.744C290.92 281.833 290.789 281.963 288.829 280.266C287.523 279.353 286.478 278.308 286.478 278.047C286.478 277.003 287.523 277.656 289.221 279.744ZM279.294 285.357C279.685 286.01 279.163 286.662 277.987 286.662C276.812 286.662 276.289 286.01 276.681 285.357C277.073 284.574 277.726 284.052 277.987 284.052C278.248 284.052 278.902 284.574 279.294 285.357ZM514.427 287.967C511.292 297.757 515.08 316.422 520.697 319.425C523.179 320.86 523.31 320.599 522.657 314.203C522.134 308.591 522.265 307.547 523.833 308.069C524.878 308.591 526.314 308.852 527.098 308.852C527.882 308.852 527.621 309.896 526.445 311.071C525.4 312.376 524.224 315.117 523.963 317.336C523.571 320.73 523.049 321.252 520.044 320.86C516.909 320.599 516.517 320.991 516.125 324.776L515.733 329.084L512.86 325.037C511.292 322.949 509.594 319.425 509.202 317.206C508.288 313.42 508.288 313.42 511.292 317.989C514.95 323.732 515.864 321.513 513.252 312.637C510.116 302.456 510.639 285.357 514.035 285.357C514.688 285.357 514.819 286.532 514.427 287.967ZM547.085 289.273C550.742 292.144 553.486 293.189 557.404 293.189C562.368 293.319 562.63 293.45 560.278 295.146C556.098 298.279 552.049 297.496 546.432 292.405C543.558 289.795 541.206 287.184 541.206 286.532C541.206 284.835 541.729 284.965 547.085 289.273ZM504.761 303.239C507.373 309.113 508.157 312.246 507.243 312.768C506.197 313.42 506.067 316.684 506.72 323.079C507.504 331.564 507.373 332.347 505.152 332.347C503.324 332.347 504.369 334.044 509.202 339.134L515.733 345.791L507.504 340.179C502.932 337.046 497.707 332.738 496.008 330.65C492.612 326.604 485.819 314.203 486.603 313.42C486.864 313.159 490.261 316.684 494.18 321.383C498.098 325.951 502.017 329.736 502.932 329.736C505.414 329.736 505.022 322.557 502.017 309.896C497.707 292.014 498.621 289.664 504.761 303.239ZM16.3357 301.934C14.115 306.372 12.9393 310.679 11.8943 318.511C11.6331 320.208 12.6781 321.774 14.7682 322.818C17.9033 324.385 17.9033 324.515 12.5475 324.515H7.06101L7.58353 318.119C8.10605 311.201 9.41234 308.069 14.5069 301.281C18.6871 295.799 19.3402 295.93 16.3357 301.934ZM416.716 317.597C416.324 318.903 416.063 317.858 416.063 315.378C416.063 312.898 416.324 311.854 416.716 313.029C416.977 314.334 416.977 316.422 416.716 317.597ZM378.572 336.263C378.05 338.482 377.396 340.048 377.005 339.656C376.613 339.395 376.743 337.176 377.266 334.957C377.788 332.738 378.442 331.172 378.833 331.564C379.225 331.825 379.095 334.044 378.572 336.263ZM280.469 337.437C280.861 337.96 285.041 340.701 289.744 343.442C294.708 346.444 298.104 349.185 297.712 350.099C297.32 351.012 298.627 352.84 300.586 354.145L304.113 356.494L289.091 357.147C274.852 357.8 273.807 357.669 270.149 354.798C268.059 353.231 261.92 348.793 256.695 345.008C251.469 341.353 247.812 338.09 248.596 337.829C249.249 337.568 255.65 340.048 262.704 343.181C273.938 348.402 287.393 353.231 290.789 353.231C291.442 353.231 289.221 350.621 285.956 347.358C282.69 344.094 278.771 339.526 277.203 337.307C274.33 333.391 274.33 333.391 277.073 334.827C278.51 335.61 280.077 336.785 280.469 337.437ZM319.136 350.751C330.762 358.322 355.32 372.81 356.626 372.81C358.455 372.81 367.338 380.642 368.906 383.644C369.689 385.472 369.036 384.949 367.077 382.469C365.248 380.25 361.198 377.509 358.063 376.204C345.262 370.852 341.473 368.895 337.032 365.109C334.55 362.89 331.415 361.063 329.978 361.063C326.32 361.063 316.784 354.406 309.992 347.358C303.591 340.57 303.46 340.44 319.136 350.751ZM390.721 377.64C395.162 386.124 394.117 385.602 387.455 375.813C381.185 366.676 377.919 357.408 378.05 349.315C378.05 345.661 378.964 347.227 383.014 358.452C385.757 366.023 389.153 374.638 390.721 377.64ZM290.658 363.151C296.667 365.109 300.717 366.937 299.802 367.198C297.974 367.85 281.775 363.151 278.64 361.063C275.244 358.844 279.294 359.627 290.658 363.151ZM471.189 399.699C473.018 405.312 473.018 406.487 470.927 414.449L468.707 423.064L468.054 417.973C467.531 413.404 467.27 413.013 465.572 415.101C464.527 416.276 462.959 420.583 462.175 424.76L460.477 432.2L460.346 424.76C460.216 415.362 457.995 404.79 455.774 402.962C454.599 401.918 452.247 402.31 447.414 404.398C440.883 407.139 438.139 407.139 439.968 404.268C440.36 403.484 442.45 402.832 444.54 402.832C446.63 402.832 448.59 402.31 449.112 401.657C449.504 401.004 451.594 400.091 453.684 399.569C456.558 398.916 457.603 397.872 457.734 395.914C457.864 393.303 457.995 393.303 458.909 396.305C459.432 398.133 459.955 401.396 460.085 403.615C460.216 405.834 461.13 408.444 462.175 409.358C465.702 412.23 467.4 408.836 467.139 400.091C466.747 391.084 468.184 390.954 471.189 399.699ZM534.675 410.011C534.675 413.013 533.368 415.362 529.188 419.148C524.224 423.847 524.094 423.977 527.229 420.061C531.932 414.188 532.977 409.88 530.233 406.878C528.666 405.051 528.535 404.268 529.841 402.962C531.932 400.874 534.675 404.659 534.675 410.011ZM467.662 430.504C467.27 431.548 466.878 431.156 466.878 429.72C466.747 428.285 467.139 427.501 467.531 428.024C467.923 428.415 468.054 429.59 467.662 430.504ZM499.274 595.491C500.319 601.756 500.45 605.933 499.666 606.716C498.882 607.499 498.098 604.236 497.576 597.971C497.053 592.488 496.27 587.137 495.878 585.962C495.355 584.657 495.616 584.135 496.4 584.657C497.184 585.179 498.49 590.008 499.274 595.491ZM499.797 615.592C501.103 620.813 499.405 624.337 477.59 658.666C473.018 665.714 472.364 667.411 469.229 678.898L466.747 688.035L467.531 679.55C469.099 663.234 477.981 641.697 485.558 635.824C489.869 632.56 494.049 625.381 492.481 623.946C492.089 623.423 487.387 625.12 482.162 627.731C476.936 630.211 468.054 634.388 462.567 636.998C457.081 639.609 452.117 642.35 451.725 643.003C451.333 643.786 450.419 644.308 449.635 644.308C448.982 644.308 450.68 641.958 453.292 638.956C458.256 633.735 468.707 627.339 472.626 627.339C475.499 627.339 488.824 620.291 493.526 616.375C498.36 612.329 498.882 612.329 499.797 615.592ZM494.18 725.235C494.18 726.671 493.657 727.846 492.873 727.846C492.22 727.846 491.567 726.671 491.567 725.235C491.567 723.799 492.22 722.624 492.873 722.624C493.657 722.624 494.18 723.799 494.18 725.235ZM498.882 769.875C500.189 780.709 499.013 783.581 493.135 785.147C490.522 785.93 484.252 786.844 479.157 787.236C474.193 787.758 465.572 788.932 460.216 790.107C454.599 791.151 448.459 791.543 445.847 791.021L441.274 790.107L445.193 789.063C447.414 788.41 455.252 787.366 462.828 786.583C470.405 785.8 479.157 784.364 482.423 783.32C485.689 782.406 489.999 781.101 492.089 780.448C497.315 779.012 498.36 775.358 495.486 767.265C494.18 763.48 492.743 755.648 492.22 749.644L491.436 738.94L494.702 750.688C496.531 757.084 498.36 765.829 498.882 769.875ZM423.901 798.2C422.725 800.288 421.549 801.855 421.288 801.724C420.504 800.81 423.639 794.415 424.815 794.415C425.599 794.415 425.076 796.111 423.901 798.2ZM431.347 821.434C433.567 825.48 435.396 829.396 435.396 830.049C435.396 832.137 431.608 828.352 430.693 825.35C430.302 823.783 427.558 820.39 424.815 817.779C422.072 815.169 419.721 812.036 419.721 810.731C419.721 806.684 427.036 813.472 431.347 821.434ZM462.828 860.592C462.828 861.506 463.743 862.289 464.918 862.289C466.617 862.289 466.878 861.375 466.355 858.373C465.31 853.544 467.662 851.847 468.837 856.676C471.189 867.51 472.364 870.512 476.675 876.647C479.288 880.302 480.986 883.696 480.594 884.218C478.504 886.176 453.684 855.893 453.684 851.325C453.684 850.672 455.774 851.977 458.256 854.457C460.738 856.937 462.828 859.678 462.828 860.592Z" fill="#0F64CD" fill-opacity="0.1"/>
</svg>