<svg width="184" height="282" viewBox="0 0 184 282" fill="none" xmlns="http://www.w3.org/2000/svg">
<g clip-path="url(#clip0_30_132)">
<path d="M3.06175 0.499237C2.00191 1.23361 1.7664 1.46863 1.3248 2.34985C-0.117765 5.21393 -0.250245 7.24081 0.662395 12.6311C1.19231 15.7742 1.23647 16.3324 1.26592 19.0202C1.28063 20.9002 1.35424 22.1192 1.45728 22.3983C1.78112 23.2061 2.32575 23.7789 2.87039 23.8817C3.15007 23.9258 3.35615 24.0139 3.312 24.0727C3.22368 24.2195 3.79776 26.0996 4.13632 26.7605C4.79872 28.053 6.65343 28.1264 7.69855 26.878C8.30207 26.173 8.31679 25.9086 7.81631 24.9539C7.35999 24.1021 7.36 24.058 7.52192 23.0446C7.81632 21.1058 8.16959 20.7092 9.36191 20.9002C9.96544 21.003 12.0704 22.4864 13.248 23.632C14.985 25.3505 18.4147 30.2708 19.6512 32.8264C21.9328 37.5411 23.1104 40.0967 23.2429 40.6108C23.3312 40.9339 23.449 41.8299 23.5226 42.5936C23.6992 44.503 23.4931 44.1211 30.4557 55.269C33.5616 60.248 33.4144 59.9543 36.7264 67.8708C40.1414 76.0518 41.3485 78.1521 46 84.0124C49.1206 87.9486 52.4474 93.0452 56.4806 100.066C59.7338 105.735 63.1488 113.02 64.5472 117.28C65.5629 120.364 65.7248 121.304 65.7248 124.403C65.7248 127.355 65.6806 127.59 64.5472 131.218C63.8406 133.421 63.7376 134.537 63.7376 139.605C63.7376 145.538 63.8112 146.287 65.1949 152.574C65.9014 155.79 66.7552 160.431 66.9613 162.15C67.0496 162.84 67.1821 164.617 67.2851 166.116C67.4323 168.642 67.5206 169.112 68.3891 172.725C69.7434 178.38 69.7434 178.394 69.8317 184.255C69.92 189.674 70.0083 190.585 70.7885 194.727C71.6422 199.221 71.863 201.85 71.9366 208.93C72.0102 214.878 71.9514 215.818 71.0829 221.458C70.7738 223.588 70.4058 226.202 70.288 227.26C69.9053 230.608 70.0378 235.94 70.5235 237.467C70.7885 238.29 71.1565 238.407 74.1594 238.672L76.8973 238.892L78.2662 244.987C79.017 248.336 79.959 252.449 80.3565 254.108C80.7686 255.768 81.1955 257.78 81.328 258.559C81.6371 260.483 81.6224 263.787 81.2986 265.961C81.0925 267.298 81.0336 268.561 81.0483 271.719C81.0483 275.244 81.0925 276.007 81.3869 277.741C81.5782 278.827 81.7843 279.826 81.8432 279.958C82.0198 280.267 84.8314 281.662 85.6704 281.838C86.745 282.088 88.0256 282.029 90.1453 281.633C93.2659 281.06 95.4592 280.796 100.464 280.37C101.524 280.281 104.836 280.164 107.824 280.105L113.27 280.002L114.698 279.518C116.641 278.886 117.053 278.343 116.524 277.094C116.141 276.154 113.712 274.95 109.885 273.79C105.542 272.453 101.804 270.779 98.727 268.796C96.2394 267.18 95.7683 266.446 94.1197 261.511C92.5888 256.928 91.9411 253.815 91.3523 248.175C90.793 242.858 90.7782 242.505 91.0432 239.7C91.264 237.467 91.264 236.689 91.1168 233.751C91.0285 231.886 90.9402 228.185 90.9254 225.526L90.896 220.68L91.4701 219.754C92.265 218.476 92.2944 217.786 91.7056 212.161C91.0432 205.919 91.0874 201.836 91.8086 198.883C92 198.164 92.0589 197.18 92.0589 194.976C92.0736 193.361 92.0147 191.848 91.9558 191.628C91.897 191.393 91.5584 190.908 91.2198 190.541C90.7194 189.997 90.6016 189.777 90.6016 189.322C90.6016 188.573 90.7341 188.47 91.2787 188.793C91.529 188.94 91.7498 189.028 91.7939 188.984C91.8234 188.955 92.4122 187.412 93.0893 185.562C95.1795 179.834 96.3718 177.087 97.9174 174.429C98.3738 173.65 98.5504 173.474 98.6387 173.636C98.7123 173.768 98.6976 175.236 98.624 176.999C98.3149 183.359 98.2854 192.597 98.5357 199.471C98.6682 203.069 98.8154 206.227 98.8595 206.491C98.9184 206.756 99.1098 207.064 99.3011 207.196C99.6102 207.402 99.8163 207.387 101.524 207.05C102.569 206.844 104.159 206.565 105.071 206.433C106.941 206.139 106.897 206.183 106.44 204.876C105.542 202.261 105.042 198.971 104.792 194.051C104.527 189.087 104.527 167.54 104.777 166.806C105.042 166.057 105.439 165.836 106.455 165.866C107.132 165.881 107.382 165.807 107.853 165.484C108.825 164.808 110.106 164.999 110.106 165.807C110.106 166.13 109.914 166.395 109.222 166.982C108.737 167.408 108.207 168.01 108.045 168.319C107.471 169.45 107.25 172.372 107.692 173.004C107.986 173.415 108.751 173.753 109.399 173.753C110.268 173.753 111.033 174.061 111.622 174.649C112.328 175.339 112.637 175.369 114.095 174.84C115.11 174.473 115.184 174.473 115.567 174.693C116.229 175.075 116.612 174.987 117.289 174.282C117.628 173.915 118.099 173.591 118.319 173.533C118.54 173.489 119.07 173.254 119.482 173.019C120.307 172.549 120.792 171.814 121.146 170.551C121.352 169.743 121.734 169.376 122.47 169.259C123.53 169.082 124.119 168.407 124.31 167.129C124.472 166.086 124.178 165.308 123.295 164.368C122.868 163.912 122.412 163.384 122.279 163.178C121.911 162.649 121.955 161.724 122.382 161.21L122.721 160.769L123.442 161.21C125.164 162.267 126.445 162.458 129.094 162.091C133.51 161.474 137.603 159.829 141.047 157.288C142.342 156.319 143.064 155.496 144.05 153.837C144.904 152.383 145.316 151.957 146.155 151.722C147.259 151.399 154.516 150.238 155.016 150.297C155.325 150.341 155.958 150.635 156.474 150.987C156.974 151.325 157.813 151.81 158.358 152.06C159.27 152.5 159.462 152.53 160.89 152.53C162.303 152.53 162.479 152.559 162.95 152.897C163.907 153.587 165.247 153.293 168.706 151.663C170.62 150.767 170.973 150.459 170.855 149.842C170.767 149.416 170.826 149.372 174.344 147.257C177.567 145.318 178.406 144.907 178.406 145.215C178.406 145.274 178.009 146.317 177.523 147.565C176.301 150.664 176.331 150.738 177.95 148.784C178.554 148.05 179.098 147.462 179.157 147.462C179.216 147.462 179.304 147.712 179.363 148.006C179.569 149.196 180.349 150.459 181.1 150.855C181.35 151.002 181.35 150.973 181.115 150.444C180.32 148.623 180.055 147.521 180.232 146.787L180.335 146.405L180.968 146.992C182.057 147.991 182.867 148.27 183.603 147.874C183.897 147.727 183.868 147.697 183.19 147.492C181.777 147.081 181.233 146.346 181.424 145.068C181.777 142.748 181.983 141.881 182.175 141.881C182.292 141.881 182.381 141.925 182.396 141.984C182.396 142.057 182.454 142.616 182.513 143.247C182.631 144.319 182.734 144.657 182.881 144.51C183.043 144.349 183.426 139.502 183.382 138.341C183.338 137.196 183.279 136.946 182.734 135.845C181.91 134.185 181.91 134.185 182.175 133.245C182.337 132.687 182.396 132.085 182.351 131.291C182.263 129.808 181.689 128.604 180.408 127.252C179.672 126.474 179.452 126.136 179.378 125.666C179.098 123.845 178.436 122.89 176.964 122.171C176.419 121.906 175.124 121.01 174.064 120.173C170.973 117.72 169.486 116.971 167.366 116.81C166.027 116.707 164.673 117.015 163.613 117.661C163.215 117.911 162.082 118.822 161.125 119.703C160.154 120.584 159.094 121.436 158.77 121.598C158.431 121.759 157.725 122.082 157.195 122.332C155.576 123.081 154.722 124.124 153.073 127.399C152.131 129.265 151.616 130.116 151.469 130.102C151.351 130.072 151.042 129.456 150.718 128.589C149.894 126.298 149.482 125.549 148.481 124.535C147.98 124.021 146.979 122.729 146.287 121.656C144.006 118.205 143.638 117.926 140.635 117.5C139.133 117.28 137.205 117.162 133.363 117.059C123.56 116.78 121.852 116.677 119.747 116.251C117.789 115.84 117.377 115.826 112.461 115.928C111.092 115.958 110.709 115.737 109.738 114.239C108.531 112.433 106.911 110.891 104.453 109.246C98.5946 105.324 94.7968 102.386 92.2061 99.8161C90.3955 97.9949 90.2483 97.804 89.5123 96.3058C88.5408 94.323 87.7459 93.5005 85.6851 92.399C84.0806 91.5471 83.7862 91.224 83.536 90.1077C83.3594 89.2852 83.7126 89.5789 79.3555 86.7736C77.5302 85.6133 75.0426 83.3074 74.601 82.3968C73.1878 79.3711 73.1731 79.3564 72.2458 78.4899C71.7306 78.0199 70.759 77.3296 70.0819 76.9624C68.6541 76.1986 66.976 74.7152 66.0339 73.3786C65.6806 72.8793 64.9741 71.7189 64.4589 70.7936C63.5168 69.1046 62.663 68.0911 61.2499 66.9896C60.352 66.2846 59.8368 65.5061 59.3952 64.2136C58.9536 62.9064 58.4973 62.2308 57.4669 61.423C56.4659 60.6299 55.6858 59.7046 55.4355 58.9849C55.3178 58.6471 54.9498 57.4868 54.6112 56.3999C53.3011 52.2139 51.5789 48.0427 50.1952 45.7368C48.2816 42.5496 46.9715 41.1249 41.8048 36.6158C37.8451 33.1496 36.2259 31.6221 35.6518 30.8436C34.6803 29.5217 33.7824 28.7874 33.1053 28.7874C32.8109 28.7874 32.3104 28.3467 31.2653 27.1717C31.015 26.8927 29.8227 25.7324 28.6157 24.6014C18.8122 15.407 16.825 13.2627 15.1027 10.0314C14.1901 8.28363 13.3363 7.4758 11.3638 6.47705C9.58272 5.55176 8.47871 4.55298 6.66816 2.18829C6.00576 1.32175 5.28448 0.484558 5.06368 0.308319C4.50432 -0.132324 3.87136 -0.0735779 3.06175 0.499237ZM2.76735 12.8514C2.78207 14.7021 2.7232 16.9346 2.59071 18.4033C2.32575 21.4289 2.42879 21.8696 3.3856 21.8842C4.1952 21.8842 4.57792 22.4571 4.784 23.9992C4.8576 24.5574 5.0048 24.8511 5.46112 25.3211C6.1088 25.9967 6.15296 25.9821 6.57984 24.7777C6.72704 24.3958 6.87424 24.0874 6.93312 24.0874C6.97728 24.0874 7.22752 24.5427 7.47776 25.1155L7.93407 26.1436L7.41888 26.5255C6.49152 27.2305 4.90176 27.1424 4.2688 26.3346C4.03328 26.0261 3.9744 25.7324 3.9744 24.8217V23.6761L3.32671 23.5146C2.56128 23.3236 1.82528 22.5452 1.67808 21.752C1.6192 21.473 1.66336 20.0924 1.78112 18.6677C1.88416 17.243 1.98719 14.8636 2.00191 13.3655C2.01663 10.3252 2.10495 9.64957 2.47295 9.72299C2.69375 9.76706 2.7232 10.1196 2.76735 12.8514ZM32.649 31.1374C32.9875 31.3871 33.2672 31.6074 33.2672 31.6367C33.2672 31.6661 32.6931 31.9892 32.0013 32.3271C30.2349 33.223 28.5274 34.5596 26.8198 36.3661C25.4803 37.7761 25.024 38.0846 25.024 37.5558C25.024 37.453 25.8042 36.2927 26.761 34.9561C27.9974 33.2524 28.807 32.2683 29.5578 31.6221C30.544 30.7555 30.6618 30.6967 31.3242 30.6967C31.8982 30.6967 32.1779 30.7849 32.649 31.1374ZM37.5066 35.7052C38.6547 36.7627 39.5526 37.688 39.5085 37.7761C39.4054 37.9377 39.5379 38.0405 36.9914 35.7786C35.2838 34.2805 34.8717 33.7811 35.2986 33.7811C35.3574 33.7811 36.3437 34.6477 37.5066 35.7052ZM54.2874 61.9371C55.1853 62.0693 55.936 62.2161 55.936 62.2749C55.936 62.3336 55.671 62.4952 55.3472 62.6421C54.5229 63.0093 53.4189 64.2283 52.8742 65.3739C52.153 66.8721 51.8144 68.5171 51.7114 71.0139L51.6083 73.2171L51.3434 72.3358C51.0342 71.3518 50.2982 67.8268 50.0333 66.0202C49.7094 63.8758 50.1216 62.4952 51.2256 61.9518C51.8733 61.6286 52.2118 61.6286 54.2874 61.9371ZM61.8976 70.7055C62.1184 71.1608 62.3392 71.8658 62.3981 72.2771L62.4864 73.0408L63.3696 73.0702C63.8701 73.0849 64.4883 73.2171 64.7533 73.3493C65.401 73.6871 65.8278 74.6564 65.769 75.6699L65.7248 76.4336L65.1654 75.5818C64.1792 74.0983 63.2371 73.8046 62.3392 74.6858C61.088 75.9489 60.4256 78.0933 60.5581 80.4874C60.6611 82.3233 60.9408 83.6893 62.0448 87.6549C62.5011 89.2999 62.8544 90.7099 62.825 90.7833C62.7219 91.0771 60.8966 85.6868 60.352 83.4983C58.9683 77.9171 58.9683 77.8289 61.1616 74.7446C61.6179 74.0983 61.7798 73.0114 61.5296 72.1155C61.353 71.4546 60.8083 70.823 59.513 69.8096C58.7475 69.2074 58.2912 68.2821 58.2912 67.3274L58.3059 66.6077L59.8957 68.2527C60.9408 69.3249 61.6326 70.1768 61.8976 70.7055ZM90.2778 101.74C91.367 103.532 91.8528 104.81 91.8528 105.882C91.8528 106.279 91.9117 106.646 91.9853 106.705C92.0589 106.749 92.5005 106.249 92.9568 105.603C93.4131 104.971 93.84 104.399 93.9136 104.355C93.9872 104.311 94.1638 104.516 94.2816 104.825C95.3414 107.366 95.7978 108.232 96.4307 108.922C96.8134 109.348 97.2109 109.848 97.3139 110.024C97.6083 110.597 97.888 111.801 97.888 112.594C97.888 113.593 98.2413 115.444 98.6829 116.707C99.3011 118.528 100.994 122.171 101.509 122.758L101.995 123.331L101.509 123.904C101.229 124.227 100.979 124.447 100.935 124.403C100.891 124.359 100.052 122.714 99.0656 120.746C98.0499 118.704 97.2256 117.221 97.152 117.294C97.0784 117.368 97.0784 118.22 97.152 119.262C97.2698 120.996 97.3139 121.157 97.8733 122.215C98.1971 122.831 98.4915 123.551 98.5504 123.83C98.6387 124.3 98.4326 127.722 98.2266 129.323C98.0941 130.381 97.9174 129.779 97.9027 128.222C97.8733 124.741 97.2256 121.466 96.681 122.024C96.6368 122.082 95.945 124.873 95.1648 128.222C93.575 135.066 93.6192 134.875 93.5162 134.787C93.2806 134.537 94.4288 128.53 95.6947 123.434C96.2541 121.186 96.313 120.775 96.3277 119.116C96.3277 117.03 96.1952 116.31 95.312 113.534C94.4582 110.861 94.311 109.951 94.4288 108.217C94.4877 107.424 94.4877 106.719 94.4288 106.631C94.2227 106.308 93.5162 107.086 92.7654 108.438C91.8381 110.097 91.3376 111.419 91.1168 112.668C90.9402 113.725 89.895 124.447 89.6301 127.957C89.527 129.279 89.3946 130.278 89.3062 130.278C89.1296 130.278 89.1885 129.397 89.792 121.098C90.0128 117.867 90.2483 114.269 90.2925 113.094C90.3514 111.919 90.4544 110.024 90.5574 108.878C90.793 105.897 90.425 103.326 89.4387 101.021C89.2179 100.492 89.1443 100.169 89.2621 100.169C89.2915 100.169 89.7478 100.874 90.2778 101.74ZM99.1981 107.674C99.625 107.924 100.258 108.408 100.596 108.761C101.347 109.539 105.748 116.81 107.412 120.041L108.118 121.392V122.949C108.118 124.432 108.104 124.535 107.559 125.622C107 126.738 106.632 127.15 105.101 128.266C104.232 128.897 103.452 129.94 102.952 131.145C102.731 131.673 102.068 132.981 101.48 134.038C100.891 135.096 100.125 136.55 99.7574 137.284C99.0214 138.723 98.0941 139.781 97.1226 140.28C96.7987 140.442 96.519 140.559 96.4896 140.53C96.4749 140.501 97.1226 139.428 97.9322 138.136C99.4778 135.654 101.318 132.378 102.643 129.735C103.629 127.796 104.306 126.885 105.513 125.886C106.823 124.8 107.235 123.962 107.235 122.347C107.235 120.819 107.353 121.054 104.188 116.207C102.863 114.181 101.421 111.845 100.979 111.008C100.39 109.892 99.9046 109.231 99.1834 108.511C97.8144 107.16 97.8144 106.881 99.1981 107.674ZM86.0237 118.337C85.847 119.541 85.2288 123.683 84.6547 127.561C84.0806 131.438 83.5507 134.802 83.4918 135.051C83.4035 135.375 83.3299 134.949 83.1974 133.362C82.5203 125.534 82.2701 122.861 82.2112 122.817C82.0346 122.626 81.328 123.346 81.0336 124.006C80.5626 125.035 80.4154 126.048 80.224 129.162C80.1504 130.616 80.0474 131.82 80.0179 131.85C79.9296 131.952 79.6646 130.601 79.4733 129.088C79.1936 126.753 79.5027 124.036 80.3712 121.466C80.8128 120.114 81.799 117.941 81.961 117.941C82.0198 117.941 82.2995 118.748 82.5645 119.732C83.4035 122.714 83.4771 122.934 83.6243 122.934C83.6979 122.934 83.7862 122.787 83.8157 122.596C84.169 120.951 84.743 118.91 85.0374 118.234C85.4938 117.206 86.0973 116.178 86.2298 116.178C86.3034 116.178 86.2003 117.147 86.0237 118.337ZM111.151 117.236C112.166 117.911 113.624 121.612 113.756 123.845C113.844 125.372 113.712 126.107 112.74 129.544C112.343 130.954 112.019 132.408 112.019 132.775C112.019 133.979 111.46 135.801 110.164 138.826C109.458 140.471 108.84 141.852 108.796 141.911C108.531 142.204 106.19 137.372 106.043 136.241C105.969 135.801 106.058 135.389 106.337 134.684C106.543 134.156 106.838 133.127 107 132.408C107.176 131.571 107.633 130.293 108.236 128.956C109.826 125.387 109.885 125.137 109.841 122.567C109.826 121.348 109.87 119.747 109.958 118.983C110.209 116.707 110.253 116.648 111.151 117.236ZM67.815 121.407C68.448 122.699 68.5069 122.905 68.5805 124.271C68.6688 125.666 68.6982 125.769 69.0957 126.121L69.5226 126.489L69.184 127.752C68.1683 131.644 68.2272 132.422 69.8464 138.077C70.4499 140.207 70.9946 142.087 71.0534 142.248C71.127 142.513 71.1123 142.513 70.8915 142.336C70.5235 142.028 70.1997 141.338 69.3606 139.061C67.8445 135.022 67.2557 132.026 67.5648 129.94C67.9034 127.634 67.7709 124.594 67.1968 121.554C66.8141 119.527 66.9024 119.512 67.815 121.407ZM141.974 123.052C142.916 123.654 144.065 124.594 145.139 125.651C146.067 126.547 147.45 127.766 148.201 128.354C148.937 128.941 149.555 129.485 149.555 129.558C149.555 129.749 148.922 130.866 148.819 130.866C148.731 130.866 140.753 122.846 140.134 122.141L139.766 121.715L140.134 121.906C140.34 122.009 141.165 122.523 141.974 123.052ZM158.755 123.874C158.947 124.006 159.05 124.315 159.094 124.917C159.167 125.901 159.005 125.916 158.534 124.976L158.225 124.388L157.592 124.844C156.915 125.299 156.12 126.268 155.605 127.296C155.355 127.811 155.325 127.972 155.473 128.383L155.635 128.853L156.061 128.398C156.371 128.046 156.474 127.766 156.474 127.341C156.474 127.032 156.532 126.738 156.591 126.694C156.724 126.606 157.21 127.517 157.21 127.855C157.21 128.295 156.856 128.809 156.312 129.162C155.635 129.617 155.119 130.469 154.722 131.82C154.56 132.393 154.31 132.981 154.192 133.142C153.956 133.421 153.956 133.406 154.045 132.848C154.104 132.525 154.192 131.174 154.251 129.837C154.339 127.62 154.383 127.355 154.737 126.68C155.296 125.607 156.356 124.491 157.239 124.051C158.108 123.61 158.358 123.581 158.755 123.874ZM167.263 124.271C167.602 124.359 168.117 124.711 168.559 125.152C169.118 125.71 169.383 125.872 169.751 125.872C170.016 125.872 170.413 126.033 170.693 126.239C171.164 126.591 171.208 126.606 171.547 126.386C172.047 126.048 172.43 126.21 172.96 126.973C173.784 128.178 174.285 129.397 174.285 130.249C174.285 131.262 174.712 131.747 175.595 131.747C176.537 131.747 176.905 131.996 177.376 132.981C178.465 135.272 178.686 137.71 178.024 140.119C177.818 140.882 177.538 141.866 177.42 142.307C177.258 142.924 177.037 143.262 176.434 143.849C175.742 144.525 174.152 145.7 173.932 145.7C173.652 145.7 173.917 145.23 174.403 144.892C175.978 143.717 176.39 143.071 176.802 141.088C176.964 140.354 177.185 139.384 177.302 138.944C177.582 137.945 177.582 137.181 177.302 136.153C177.185 135.712 177.082 135.066 177.082 134.714C177.082 133.524 176.449 132.628 175.61 132.628C175.404 132.628 174.726 132.804 174.079 132.995C173.446 133.201 172.886 133.348 172.857 133.318C172.828 133.274 172.96 132.76 173.166 132.173C173.873 130.072 173.814 128.927 172.96 127.855C172.062 126.724 172.018 126.738 171.326 128.148C170.988 128.839 170.664 129.397 170.605 129.397C170.546 129.397 170.413 129.294 170.31 129.176C170.178 129.015 170.193 128.839 170.384 128.325C170.634 127.649 170.634 127.032 170.384 126.944C170.31 126.929 169.987 127.296 169.663 127.781C169.162 128.574 167.823 129.911 167.69 129.764C167.661 129.735 167.837 129.235 168.088 128.648C168.632 127.37 168.676 126.459 168.25 125.754C167.322 124.256 165.114 124.344 161.758 126.033C160.639 126.591 160.58 126.606 160.669 126.283C160.875 125.651 161.184 125.137 161.523 124.932C162.45 124.344 166.027 123.918 167.263 124.271ZM70.1997 127.884C70.2733 128.192 70.656 129.705 71.024 131.262C71.8925 134.831 72.0691 135.184 73.2909 135.859C73.9238 136.212 74.5274 136.711 75.1309 137.401C77.177 139.737 77.4714 139.957 80.327 141.411C82.8 142.674 83.639 143.203 83.1827 143.203C82.5056 143.203 80.6509 142.63 79.4144 142.028C77.7363 141.22 76.1907 139.972 74.9395 138.444C74.5126 137.901 74.071 137.49 73.9827 137.519C73.7325 137.622 73.7914 137.739 75.3075 140.427C76.0877 141.808 76.6912 142.968 76.647 142.997C76.6176 143.041 76.073 142.601 75.4694 142.028C72.231 139.017 70.6413 135.404 69.8611 129.323C69.5814 127.208 69.5814 127.341 69.8464 127.341C69.9642 127.341 70.1114 127.576 70.1997 127.884ZM149.04 131.982C149.158 132.746 148.922 133.01 147.965 133.142C145.448 133.495 143.962 133.935 142.799 134.684C142.284 135.022 141.827 135.257 141.798 135.213C141.651 135.066 143.211 133.671 143.932 133.304C144.344 133.098 145.124 132.804 145.699 132.643C146.847 132.334 147.318 132.099 148.157 131.482C148.804 130.983 148.878 131.027 149.04 131.982ZM152.367 133.583C152.911 134.846 154.295 139.458 154.634 141.147C155.134 143.614 154.766 145.817 153.559 147.389C152.764 148.432 151.91 149.019 150.571 149.445C148.157 150.194 147.288 150.047 149.423 149.24C150.909 148.667 151.763 148.065 152.426 147.11C153.103 146.126 153.471 145.112 153.75 143.541C154.045 141.866 153.883 140.633 153 137.857C152.632 136.726 152.205 135.184 152.058 134.464C151.896 133.73 151.719 132.981 151.675 132.804C151.528 132.099 151.94 132.569 152.367 133.583ZM131.126 137.416C131.98 137.769 132.48 138.327 132.48 138.929C132.48 139.561 132.038 141.749 131.876 141.94C131.818 142.013 131.715 141.881 131.67 141.646C131.229 139.663 130.876 139.091 130.081 139.091C129.668 139.091 129.389 139.311 127.99 140.75C126.018 142.777 125.885 142.983 126.121 143.879C126.224 144.231 126.298 144.775 126.298 145.083C126.283 146.258 125.12 148.681 124.369 149.078C124.207 149.166 123.928 149.225 123.766 149.196C123.383 149.137 118.29 143.159 118.555 143.086C118.835 143.027 121.823 143.761 122.323 144.011C122.883 144.29 123.177 144.877 123.295 145.891C123.427 147.036 123.501 147.11 124.193 146.86C125.326 146.42 125.768 144.745 125.267 142.733C125.076 141.94 125.076 141.881 125.429 141.206C125.635 140.794 126.077 140.28 126.46 140.001C126.813 139.737 127.622 139.061 128.241 138.488C129.757 137.122 130.11 136.99 131.126 137.416ZM106.323 142.19C108.177 144.892 108.295 145.112 108.06 145.671C107.956 145.906 107.633 146.229 107.338 146.405C107.044 146.566 104.306 147.33 101.274 148.094C97.0195 149.166 95.4003 149.636 94.1933 150.165C91.7203 151.237 91.4554 151.076 93.5014 149.739L94.8557 148.858L93.9725 148.814C92.7213 148.74 92.0442 148.99 90.8077 149.974C88.5555 151.766 87.5693 152.074 84.537 151.927C82.6086 151.839 82.432 151.81 82.432 151.546C82.432 151.281 82.535 151.266 84.4634 151.369C86.7597 151.487 87.216 151.369 87.7312 150.503C88.2022 149.724 88.0403 148.226 87.4221 147.668C87.113 147.389 87.113 147.404 86.7744 147.786C86.583 148.006 86.3917 148.461 86.3328 148.814C86.2739 149.166 86.2003 149.489 86.1562 149.548C86.1267 149.607 85.376 149.298 84.4928 148.858C83.6096 148.417 82.7264 148.05 82.5203 148.05C82.329 148.05 81.7254 148.256 81.1808 148.505C80.0032 149.063 79.753 149.005 78.9728 147.918C78.6784 147.506 78.3104 147.139 78.1632 147.095C77.7216 146.948 75.9846 147.154 73.0259 147.697C70.9946 148.065 70.2291 148.256 70.023 148.461C69.7434 148.74 69.7581 148.755 70.5971 149.063C71.0682 149.24 72.3046 149.577 73.3498 149.812C75.1898 150.224 77.1034 150.958 77.4419 151.384C77.545 151.487 77.5891 151.604 77.5597 151.634C77.5302 151.663 75.3811 151.942 72.7904 152.236C68.1242 152.765 68.08 152.779 67.8592 152.486C67.6678 152.251 67.5795 151.487 67.447 148.637C67.344 146.669 67.2851 145.054 67.2998 145.039C67.3293 145.01 72.0838 144.863 77.8688 144.686C89.4534 144.334 90.9549 144.246 93.5456 143.717C97.0637 143.012 101.818 141.529 103.408 140.647C104.056 140.28 104.659 140.001 104.733 140.031C104.821 140.045 105.528 141.015 106.323 142.19ZM142.534 148.446C143.476 148.74 144.256 149.019 144.256 149.063C144.256 149.24 142.71 150.077 141.798 150.4C141.047 150.664 140.664 150.723 139.737 150.664C138.648 150.591 138.456 150.532 136.175 149.386C134.85 148.726 133.805 148.153 133.834 148.109C133.878 148.079 135.586 148.256 137.661 148.52C141.636 149.005 142.504 148.99 141.283 148.461C140.885 148.3 140.576 148.109 140.576 148.035C140.576 147.844 140.65 147.859 142.534 148.446ZM119.6 152.192C119.482 152.765 118.643 157.479 118.643 157.611C118.643 157.685 118.54 157.744 118.422 157.744C118.113 157.744 118.128 157.509 118.717 154.556C118.996 153.117 119.232 151.927 119.232 151.898C119.232 151.883 119.335 151.869 119.453 151.869C119.615 151.869 119.659 151.971 119.6 152.192ZM89.3504 153.396C89.3504 153.514 89.159 154.454 88.9088 155.467C88.2022 158.419 88.2906 159.051 89.6448 160.755C90.528 161.871 90.7046 162.502 90.7782 164.867C90.8371 166.586 90.793 167.144 90.5427 168.275C90.1894 169.831 90.1453 170.816 90.425 170.816C90.5133 170.801 90.8518 170.434 91.161 169.993C92.0736 168.686 92.7949 168.407 93.7075 169.009C94.3846 169.435 94.4288 169.92 94.0166 171.888C93.5456 174.091 93.3837 175.163 93.104 178.438C92.9715 179.834 92.7654 181.288 92.633 181.67C92.1472 183.109 91.4112 184.225 91.4112 183.52C91.4112 183.403 91.6173 182.36 91.8675 181.214C92.3238 179.085 92.3238 179.07 92.265 175.001C92.265 174.664 92.4416 173.694 92.6624 172.828C93.0304 171.447 93.0598 171.183 92.8979 170.669C92.8096 170.346 92.6771 170.081 92.6035 170.081C92.5446 170.081 91.6026 171.462 90.5133 173.151C89.424 174.84 88.5261 176.206 88.4966 176.191C88.4819 176.162 88.6291 174.957 88.8499 173.518C89.2621 170.669 89.2621 170.037 88.8205 166.292C88.5114 163.589 88.0403 161.812 87.3043 160.578C86.9658 160.035 86.6272 159.33 86.5389 159.007C86.2003 157.744 86.745 156.231 88.1875 154.366C89.0854 153.205 89.3504 152.985 89.3504 153.396ZM96.9165 155.026C96.6368 155.996 96.3424 157.039 96.2541 157.332C96.0774 157.979 95.945 158.037 95.7094 157.523C95.4445 156.951 95.5034 155.834 95.8125 155.144C96.0627 154.601 97.2698 153.117 97.3875 153.235C97.4022 153.249 97.1962 154.057 96.9165 155.026ZM121.69 155.496C121.572 157.068 121.484 157.597 121.337 157.597C121.101 157.597 121.101 157.597 121.308 155.35C121.469 153.381 121.528 153.073 121.72 153.279C121.793 153.352 121.779 154.321 121.69 155.496ZM80.6656 154.483C80.6656 154.556 81.431 155.864 82.3878 157.391C84.3456 160.578 85.6262 163.031 86.1709 164.72C86.5389 165.881 87.0688 168.583 86.951 168.701C86.9216 168.73 86.3917 168.363 85.7882 167.878C85.1699 167.393 84.5958 166.997 84.5075 166.997C84.3014 166.997 84.2867 166.938 84.6989 171.036C84.9638 173.65 85.0227 174.605 84.8902 174.752C84.7578 174.913 84.6547 174.811 84.375 174.267C84.0806 173.665 83.9923 173.591 83.8157 173.768C83.639 173.959 83.6685 174.311 84.0365 176.323C84.272 177.616 84.4486 178.703 84.4045 178.732C84.375 178.776 84.2867 178.732 84.1984 178.659C83.9482 178.409 80.0474 169.626 80.1504 169.523C80.1946 169.464 80.2829 169.494 80.3418 169.582C80.9158 170.478 82.6528 172.872 82.7411 172.872C82.7853 172.872 82.7411 172.49 82.6381 172.02C82.3437 170.786 82.3584 170.727 82.9472 171.168C83.2858 171.432 83.4624 171.491 83.4624 171.359C83.4624 171.256 83.2416 170.066 82.9619 168.715L82.4762 166.277L83.1091 166.365C83.6538 166.439 83.7862 166.395 84.1101 166.042C84.5811 165.528 84.7578 164.309 84.5075 163.119C84.3014 162.15 83.9629 161.43 81.7549 157.347C80.9158 155.805 80.224 154.498 80.224 154.454C80.224 154.41 80.327 154.366 80.4448 154.366C80.5626 154.366 80.6656 154.424 80.6656 154.483ZM104.512 158.346C104.512 158.449 104.38 159.286 104.218 160.226C103.938 161.9 103.805 163.251 103.467 167.658C103.202 170.962 103.276 194.448 103.555 198.546C103.82 202.379 103.82 202.379 102.392 202.82C101.156 203.201 100.39 203.334 100.376 203.187C100.376 203.113 100.317 198.854 100.243 193.728C100.17 188.602 100.008 182.448 99.8752 180.069C99.7574 177.689 99.6397 174.708 99.625 173.459C99.5955 170.713 99.7574 170.096 101.274 167.217C102.275 165.322 102.878 163.619 103.452 161.122C103.894 159.242 104.218 158.184 104.38 158.184C104.453 158.184 104.512 158.258 104.512 158.346ZM97.5347 161.151C97.8438 161.753 97.7555 163.178 97.3434 164.059L97.0342 164.72L97.0195 162.62C97.0048 160.446 97.0784 160.255 97.5347 161.151ZM113.344 165.234C114.404 165.778 115.655 165.734 116.95 165.087C117.524 164.808 118.054 164.559 118.128 164.529C118.216 164.5 117.848 164.882 117.333 165.366C115.581 167.041 114.257 167.085 112.74 165.543C112.284 165.073 111.828 164.544 111.725 164.353C111.548 164.03 111.592 164.045 112.108 164.456C112.417 164.706 112.976 165.058 113.344 165.234ZM122.765 166.644C122.765 166.747 122.22 167.261 121.543 167.79L120.307 168.759L120.13 169.714C119.909 170.918 119.718 171.33 119.261 171.638C118.893 171.888 117.318 172.167 117.318 171.991C117.318 171.711 117.966 171.124 118.349 171.036C118.79 170.933 119.674 170.066 119.674 169.729C119.674 169.361 120.586 167.834 121.072 167.364C121.572 166.894 121.646 166.732 121.823 165.455L121.926 164.72L122.338 165.601C122.573 166.086 122.765 166.556 122.765 166.644ZM110.812 172.196C111.386 171.961 111.872 171.976 112.534 172.27C112.917 172.446 113.388 172.578 113.565 172.578C114.006 172.578 115.14 172.167 115.272 171.976C115.346 171.844 116.273 172.299 116.715 172.666C116.744 172.681 116.612 172.916 116.435 173.166L116.111 173.606L115.67 173.239C115.125 172.769 114.728 172.769 114.051 173.239C113.403 173.68 113.373 173.68 112.196 173.312C111.681 173.151 111.033 173.019 110.768 173.019C110.488 173.019 110.106 172.945 109.9 172.857C109.517 172.681 109.075 171.8 109.075 171.227C109.075 170.962 109.178 171.021 109.826 171.623C110.356 172.123 110.636 172.284 110.812 172.196ZM83.6538 183.036C84.905 184.974 87.6429 189.586 88.2317 190.746C89.7773 193.816 90.2483 197.385 89.7184 202.026C89.4093 204.729 89.4387 206.594 89.8067 208.504C90.2189 210.604 90.2483 214.011 89.8803 216.112C89.5712 217.845 89.3062 218.579 89.4387 217.375C89.4976 216.802 89.4093 216.009 89.1296 214.658C88.3789 210.971 88.055 210.061 84.8019 202.614C81.5635 195.241 80.8864 193.434 80.1504 190.13C79.591 187.647 79.0022 182.58 79.3261 183.153C79.3997 183.271 80.1946 185.753 81.0925 188.676C83.8598 197.694 85.1258 201.145 87.319 205.654C88.055 207.182 88.688 208.386 88.7174 208.371C88.7469 208.342 88.6291 207.931 88.4525 207.446C87.7312 205.361 87.0099 201.865 86.7744 199.236C86.7155 198.663 86.6419 198.09 86.6125 197.943C86.4358 197.326 86.8333 197.796 87.4662 198.986C87.849 199.691 88.2611 200.396 88.3789 200.558C88.585 200.837 88.6144 200.793 88.6438 199.897C88.7322 197.532 88.4819 195.667 87.8048 193.655C87.6576 193.243 86.9363 191.628 86.1856 190.056C84.6694 186.854 82.5939 181.831 82.8 181.831C82.8442 181.831 83.2269 182.375 83.6538 183.036ZM75.6019 185.151C75.3958 186.193 74.8365 188.999 74.336 191.378C73.7914 194.036 73.4086 196.284 73.3498 197.18C73.232 199.045 73.0701 198.56 72.9376 195.887C72.7757 192.92 73.1878 189.66 74.0416 187.119C74.4096 185.988 75.7786 183.08 75.8816 183.182C75.9258 183.226 75.7933 184.108 75.6019 185.151ZM75.5283 203.73C74.8806 206.741 73.4675 214.056 73.5117 214.1C73.5411 214.129 73.8355 213.718 74.1888 213.189C74.5274 212.66 74.8659 212.234 74.9395 212.234C74.9984 212.234 74.8365 212.763 74.5568 213.409C74.2771 214.056 73.8061 215.128 73.5117 215.789C72.7462 217.595 72.6726 217.566 72.761 215.612C72.9229 212.572 74.2477 205.801 75.1014 203.642C75.2634 203.246 75.4547 202.746 75.5283 202.555C75.808 201.836 75.808 202.394 75.5283 203.73ZM73.0995 234.001C73.0554 234.192 72.9376 234.691 72.8493 235.103C72.7462 235.529 72.6138 235.881 72.5549 235.881C72.4224 235.881 71.9808 235.103 71.9808 234.868C71.9808 234.662 72.864 233.678 73.0406 233.678C73.129 233.678 73.1584 233.825 73.0995 234.001ZM82.8 238.686C85.8912 239.142 86.7597 239.377 85.5085 239.436C83.4182 239.509 81.0042 239.201 79.5469 238.657C78.5606 238.29 78.3251 237.996 79.1347 238.128C79.4438 238.187 81.1072 238.437 82.8 238.686Z" fill="#0F64CD"/>
</g>
<defs>
<clipPath id="clip0_30_132">
<rect width="184" height="282" fill="white"/>
</clipPath>
</defs>
</svg>
