<svg width="310" height="169" viewBox="0 0 310 169" fill="none" xmlns="http://www.w3.org/2000/svg">
<path d="M160.57 0.0968018C159.456 0.371124 154.548 1.88802 153.531 2.2753C151.948 2.88852 151.19 3.43718 150.221 4.71201C149.801 5.27679 148.961 6.2773 148.364 6.93892C146.33 9.23038 145.878 10.7634 145.878 15.4109C145.878 17.0891 145.926 19.2192 145.958 20.1229C146.039 21.6398 146.007 21.8011 145.668 22.2207C144.618 23.5278 144.441 23.9151 144.376 24.9317C144.279 26.3357 144.57 28.3044 145.183 30.4668C145.668 32.2096 145.684 32.3064 145.426 32.8389C145.07 33.5812 144.021 34.3235 140.146 36.5504C133.445 40.4072 130.959 42.0532 126.939 45.2806C124.081 47.5559 122.951 48.7985 121.949 50.7672C121.497 51.6386 120.9 53.0102 120.626 53.7848L120.125 55.221V59.4489V63.6768L120.916 66.0167C121.449 67.6143 121.853 69.228 122.208 71.1806C122.482 72.7459 122.983 74.9244 123.338 76.0217C123.952 77.9743 124.355 80.2173 124.565 82.8638C124.63 83.5738 124.84 84.9294 125.066 85.8814C125.308 86.9949 125.453 88.1084 125.453 89.012V90.416L120.577 90.303C114.894 90.1739 107.499 89.7866 106.514 89.5768C106.143 89.4961 103.075 89.3993 99.7005 89.3832C94.6307 89.3509 93.2906 89.3832 91.9505 89.6091C91.0625 89.7543 88.8828 90.0287 87.1068 90.2062C85.3307 90.3837 83.2318 90.658 82.4245 90.8032C81.6333 90.9323 79.8088 91.1098 78.388 91.1744C76.9672 91.2389 73.9156 91.5455 71.6068 91.8683C65.5198 92.6913 64.2927 92.8204 61.5963 92.8204C58.4156 92.8204 55.2187 92.2556 53.5557 91.3842C52.151 90.6741 50.8109 88.5763 49.8099 85.5426C49.3578 84.1709 48.9703 83.6223 48.0984 83.1866C47.7271 82.9768 47.4849 83.0575 45.063 84.0902C40.7359 85.9298 40.1062 86.4947 38.4594 89.8834C37.4906 91.9006 37.313 92.1588 36.0536 93.3852C35.2302 94.192 34.3422 94.8859 33.7932 95.1441C32.7276 95.6766 32.5823 95.6444 29.3047 94.3695C26.4469 93.2561 25.5427 92.772 23.6536 91.4326C22.7656 90.7871 21.1026 89.6898 19.9562 88.9959C15.5 86.2526 14.1599 84.0741 13.4172 78.41C12.9489 74.9082 12.7875 74.763 10.301 75.7151C8.83175 76.2637 5.69946 78.3132 5.19894 79.0393C5.03748 79.2814 4.79529 79.7332 4.68227 80.0398C4.5531 80.3464 4.18175 81.0565 3.82654 81.6213C3.08383 82.7993 2.66404 83.8482 2.51873 84.9132C2.38956 85.7685 2.27654 85.8814 1.34008 86.1558C0.452063 86.3978 0.161438 86.8335 0.161438 87.8824C0.161438 89.012 0.629667 90.4482 1.63071 92.3847C2.80935 94.6761 3.24529 95.2248 6.78123 98.8395C10.2041 102.325 10.9953 103.422 12.8844 107.263C14.5797 110.684 15.9682 112.395 18.5838 114.267C21.2963 116.203 21.8614 116.332 23.7989 115.348C26.6083 113.928 29.4984 113.185 34.2291 112.621C36.4088 112.379 37.6198 112.314 38.6693 112.395C42.3828 112.669 51.5536 113.96 56.4781 114.912C59.7719 115.541 61.9838 115.816 65.4713 116.025C67.0698 116.106 69.6208 116.268 71.1224 116.364C76.2083 116.671 78.2104 117.091 82.3922 118.785C85.137 119.882 86.8807 120.35 90.4167 120.947C95.2604 121.754 98.0213 122.464 102.187 123.917C104.851 124.852 104.867 124.852 108.145 125.062C109.598 125.143 111.632 125.369 112.666 125.562C114.829 125.966 116.67 126.014 121.336 125.805C123.112 125.724 125.792 125.724 127.294 125.788C129.796 125.901 130.055 125.934 130.378 126.256C131.233 127.112 133.413 135.164 134.091 139.989C134.398 142.184 134.705 143.62 135.157 145.04C135.932 147.509 135.964 148.687 135.383 153.367C134.915 157.078 134.882 158.837 135.237 160.402C135.56 161.855 135.996 162.484 137.078 163.049C137.562 163.291 138.58 163.888 139.339 164.356C140.097 164.824 141.228 165.373 141.841 165.566C142.471 165.776 143.407 166.179 143.956 166.486C144.877 166.986 145.038 167.019 146.459 167.019C148.929 167.019 149.623 166.647 149.995 165.179C150.092 164.824 150.366 163.823 150.624 162.984C150.883 162.145 151.141 160.854 151.19 160.128C151.254 159.402 151.448 158.305 151.642 157.708C151.868 156.997 151.997 156.174 151.997 155.4C152.013 153.625 151.512 152.689 149.704 151.107C148.09 149.704 147.573 149.01 147.105 147.622C146.685 146.395 146.669 145.54 147.056 145.185C147.492 144.782 150.544 143.346 151.787 142.958C152.675 142.684 153.03 142.458 153.563 141.877C154.209 141.183 154.225 141.135 154.144 140.328C154.096 139.876 153.611 137.956 153.079 136.068C151.787 131.598 151.561 130.436 151.642 128.984C151.739 127.628 152.029 127.079 152.869 126.724C153.385 126.498 153.741 126.498 155.484 126.66C158.746 126.95 161.975 126.853 163.444 126.418C163.686 126.337 163.719 126.45 163.719 127.354C163.719 127.918 163.541 129.242 163.315 130.307C163.089 131.372 162.734 133.728 162.508 135.551C161.975 139.892 161.814 140.909 161.442 142.168C160.893 143.959 161.345 146.105 162.411 146.734C162.669 146.88 163.832 147.364 164.978 147.799C168.611 149.171 168.627 149.187 168.11 151.592C167.771 153.173 167.529 153.754 166.528 155.561C165.995 156.513 165.963 156.691 166.028 157.578C166.06 158.111 166.189 159.079 166.318 159.709C166.512 160.79 166.496 160.999 166.173 162.29C165.882 163.517 165.85 163.872 165.995 164.84C166.237 166.599 166.56 167.406 167.303 168.068C167.884 168.616 167.997 168.648 168.546 168.535C169.37 168.342 170.435 168.374 171.469 168.632C172.357 168.842 172.373 168.842 173.648 168.277C174.359 167.955 175.247 167.648 175.618 167.583C176.119 167.503 176.539 167.277 177.152 166.728C177.604 166.309 178.573 165.566 179.283 165.082C180.817 164.033 181.172 163.501 181.544 161.645C181.689 160.919 182.044 159.434 182.319 158.337L182.819 156.352L182.593 154.464C182.48 153.431 182.367 151.963 182.367 151.22V149.881L183.045 149.284C183.643 148.784 183.788 148.509 184.208 147.17C184.466 146.315 184.837 144.653 185.015 143.458C185.209 142.264 185.467 140.796 185.596 140.183C185.742 139.586 185.919 137.923 186 136.471C186.081 135.035 186.274 133.163 186.404 132.324C186.549 131.485 186.71 129.5 186.759 127.935L186.856 125.062L187.437 124.965C189.73 124.578 192.184 123.965 194.816 123.142C201.209 121.141 208.992 119.011 211.672 118.543C212.431 118.414 214.142 118.252 215.466 118.204C216.806 118.139 218.728 117.978 219.745 117.849C220.891 117.704 224.007 117.558 227.818 117.478C231.241 117.397 234.551 117.252 235.164 117.155C235.794 117.058 238.409 116.913 240.977 116.848C245.078 116.719 245.788 116.671 246.708 116.364C247.693 116.042 257.897 113.605 259.69 113.266C260.142 113.185 262.434 112.863 264.792 112.556C269.377 111.959 270.217 111.814 272.865 111.088C274.302 110.684 274.834 110.62 276.417 110.636C279.501 110.668 281.18 111.217 283.456 112.927C284.183 113.476 284.958 113.992 285.2 114.089C285.442 114.17 286.476 114.25 287.477 114.25C289.979 114.25 290.803 113.944 292.256 112.475C293.208 111.507 293.467 111.088 294.936 108.102C297.584 102.729 300.619 98.5652 303.865 95.8864C306.787 93.482 307.966 91.8522 308.611 89.3993C308.837 88.5602 309.193 87.4629 309.419 86.9788C309.935 85.8814 309.935 85.6071 309.435 84.5259C309.096 83.8159 309.031 83.4286 309.031 82.2022V80.7176L308.095 79.2975C307.384 78.2163 306.916 77.7 306.238 77.232C305.738 76.877 304.688 75.9249 303.929 75.0857C302.072 73.0847 300.942 72.5038 299.78 73.0041C298.908 73.3591 298.553 74.1982 298.359 76.3606C298.149 78.6198 297.907 79.233 296.421 81.4115C294.742 83.8804 293.757 84.8809 291.61 86.301C290.447 87.0594 289.091 88.1406 288.042 89.1573C286.249 90.8839 284.038 92.5622 282.552 93.2884C281.664 93.7402 280.211 94.0791 279.226 94.0791C278.709 94.0791 278.693 94.0629 278.209 92.5783C277.628 90.8355 276.223 88.3988 274.479 86.1074C273.817 85.236 272.848 83.9289 272.332 83.2027C271.089 81.4922 270.265 80.653 269.248 80.0882C268.521 79.6848 268.263 79.6364 267.052 79.6525C265.938 79.6525 265.324 79.7655 263.823 80.2335C262.806 80.5562 260.804 81.0403 259.383 81.3308C253.861 82.4442 250.809 83.5093 243.076 87.011C239.007 88.8668 236.859 89.6252 234.938 89.8996C233.356 90.1255 221.053 89.9964 218.695 89.7382C216.015 89.4316 213.706 89.0604 210.784 88.4795C208.104 87.9308 207.652 87.8986 204.971 87.8824C201.613 87.8824 200.467 88.0438 195.526 89.238C191.78 90.1416 190.198 90.3837 190.198 90.0287C190.198 89.9157 190.602 88.3181 191.086 86.4947C192.087 82.7347 192.281 81.6374 192.862 76.3283C193.088 74.2466 193.459 71.3742 193.669 69.9542C194.493 64.6451 194.59 60.159 193.992 56.4152C193.411 52.865 193.12 52.1066 191.716 50.4122C190.876 49.4117 186.371 45.7647 182.932 43.2957C181.56 42.3114 179.961 41.0849 179.38 40.5524C178.799 40.036 177.895 39.2615 177.362 38.858C175.99 37.8091 175.651 37.4057 174.633 35.5822C173.632 33.791 173.519 33.2262 174.117 32.8228C174.682 32.4678 175.909 30.612 176.409 29.3694C176.942 28.0462 177.297 26.0291 177.168 25.077C177.055 24.1894 176.635 23.8344 175.877 23.9797C175.215 24.1087 175.215 23.9958 175.667 21.9303C175.844 21.1234 176.07 19.4774 176.151 18.2671C176.232 17.0569 176.377 15.4754 176.49 14.7654C176.894 11.9091 176.103 9.18196 174.327 7.29393C173.277 6.19661 168.708 3.13057 166.544 2.09779C164.801 1.25867 162.04 0.193619 161.329 0.080658C161.087 0.0483856 160.748 0.0645294 160.57 0.0968018ZM153.773 7.93941C153.692 8.05237 153.418 8.47194 153.127 8.87537C152.433 9.85973 152.336 10.2632 152.643 10.7311C152.82 11.0055 153.062 11.1346 153.385 11.1346C153.66 11.1346 153.999 11.2798 154.177 11.4734C154.467 11.78 154.612 11.8123 155.468 11.7316C156.243 11.6509 156.711 11.6994 157.858 12.0382C159.698 12.5869 160.457 12.5708 161.878 11.9576C162.847 11.5541 163.105 11.4896 163.493 11.6348C163.88 11.78 164.268 11.7155 165.785 11.2314C166.803 10.9086 167.949 10.6504 168.369 10.6504C170.032 10.6504 171.243 11.7478 172.551 14.3942C173.487 16.2661 173.681 16.9762 173.826 18.9126C173.971 20.7361 173.681 20.8975 173.422 19.1547C173.18 17.5894 172.292 14.7977 171.695 13.7972C171.13 12.8128 170.112 11.8284 169.418 11.6025C168.643 11.3443 167.142 11.5057 165.721 11.9898C164.139 12.5385 163.767 12.7483 161.846 14.2167C160.926 14.9106 160.118 15.4916 160.07 15.4916C160.005 15.4916 160.005 15.1204 160.07 14.6847C160.134 14.2329 160.134 13.8779 160.086 13.8779C159.876 13.8779 159.262 14.2651 158.843 14.6524C158.584 14.8784 158.391 14.9913 158.391 14.8945C158.391 14.7815 158.229 14.6524 158.035 14.5879C157.729 14.4911 157.729 14.4749 157.955 14.3297C158.116 14.249 158.229 14.0715 158.229 13.9263C158.229 13.7165 158.084 13.6842 157.422 13.7488C156.389 13.8456 155.678 14.3942 154.645 15.895L153.87 17.0084V16.3145C153.87 15.4754 154.031 15.1366 154.935 14.1683C155.614 13.4422 155.84 12.9096 155.484 12.9096C155.081 12.9096 154.064 13.4422 153.563 13.9263L153.014 14.4427L153.111 13.7488C153.159 13.3776 153.143 13.071 153.079 13.071C152.853 13.071 151.432 14.0554 150.737 14.7009C150.237 15.1527 149.93 15.6045 149.736 16.1855C149.591 16.6534 149.43 17.0891 149.365 17.186C149.252 17.3957 149.042 16.2661 149.042 15.2656C149.026 14.5072 149.058 14.4588 150.237 13.2485C151.19 12.2641 151.512 11.8123 151.771 11.0539C152.191 9.82745 152.174 9.58539 151.69 9.4563C151.27 9.34334 150.834 9.50471 150.221 9.98882C150.043 10.134 150.269 9.87587 150.721 9.44016C151.173 8.98833 151.932 8.43967 152.417 8.18147C153.353 7.7135 153.983 7.60054 153.773 7.93941ZM146.556 25.9322L147.169 27.1909V29.2403C147.169 30.3861 147.121 31.3059 147.072 31.3059C147.008 31.3059 146.879 31.1929 146.766 31.0638C146.62 30.8863 146.588 30.4345 146.669 29.3856C146.782 27.9655 146.782 27.9332 146.217 26.8036C145.668 25.7225 145.458 24.6897 145.781 24.6897C145.861 24.6897 146.217 25.2545 146.556 25.9322ZM175.344 27.5944C175.344 27.8203 175.198 28.2076 175.021 28.4819C174.698 28.966 174.698 28.966 174.698 28.5626C174.698 28.3367 174.746 27.7719 174.811 27.2878C174.908 26.4809 174.924 26.4486 175.118 26.8036C175.231 27.0134 175.328 27.3684 175.344 27.5944ZM174.117 31.2575C173.568 31.7416 173.083 31.9352 173.083 31.6932C173.083 31.5479 173.729 30.6281 174.197 30.1279L174.617 29.6599L174.666 30.2086C174.714 30.6604 174.633 30.8218 174.117 31.2575ZM147.024 36.6472C147.218 37.9705 147.492 38.8742 148.316 40.9558C148.913 42.4566 149.462 44.1026 149.591 44.8287C149.704 45.5065 150.14 46.975 150.56 48.0884C150.964 49.2019 151.593 51.1868 151.948 52.5261C152.304 53.8494 152.772 55.5922 152.998 56.399C153.208 57.1897 153.563 58.7228 153.773 59.7878C154.354 62.6441 156.211 70.0994 156.695 71.471C157.18 72.9234 157.196 73.2784 156.76 73.6818C156.582 73.8432 156.146 74.5694 155.807 75.2794C155.323 76.2799 154.984 76.7479 154.29 77.3449C153.224 78.2486 153.079 78.7973 153.918 78.6359C154.193 78.5875 154.806 78.3616 155.242 78.1518C156.276 77.6838 156.405 77.6838 157.777 78.2647C159.036 78.8134 159.585 78.8618 160.409 78.5229C161.41 78.1034 161.152 77.8613 159.085 77.2965C158.358 77.1029 157.68 76.8447 157.567 76.7156C157.293 76.3767 157.503 75.8765 158.52 74.5048C159.634 73.0041 161.781 69.0021 162.734 66.6461C163.105 65.7101 163.88 63.9673 164.445 62.7732C165.592 60.3365 166.69 57.2704 167.529 54.1721C168.062 52.1388 169.337 49.1373 170.694 46.6684C171.275 45.5872 171.404 45.1515 172.211 40.9397C172.696 38.4385 173.116 36.3084 173.148 36.2277C173.212 36.0179 173.713 37.1798 173.874 37.9221C174.004 38.5191 173.874 42.1823 173.568 46.2004C173.326 49.4601 172.873 51.1545 171.453 54.0592C170.823 55.3501 169.628 58.2064 168.805 60.4333C167.965 62.6441 166.996 65.1937 166.641 66.0813C166.302 66.9688 165.592 68.9698 165.091 70.519C164.591 72.0681 163.783 74.1821 163.315 75.1987C162.847 76.2153 162.411 77.2158 162.346 77.4256C162.282 77.6354 162.056 77.8613 161.83 77.9581C161.491 78.0872 161.458 78.1518 161.62 78.3454C161.733 78.4745 161.991 78.5875 162.185 78.5875C162.782 78.5875 163.073 78.765 163.073 79.1039C163.073 79.5557 162.427 82.7993 162.233 83.2995C162.12 83.6223 161.927 83.7675 161.555 83.832C160.635 83.9934 155 84.3968 153.724 84.3968C152.578 84.3968 152.417 84.3646 152.045 83.9773C151.496 83.4286 151.383 82.7831 151.496 80.8628C151.609 78.8457 151.803 78.3293 152.594 77.9259C152.998 77.7322 153.224 77.5063 153.224 77.2965C153.224 77.1351 152.723 75.8119 152.126 74.3596C150.657 70.874 150.721 71.0515 150.076 68.6632C149.753 67.5013 149.074 65.1776 148.542 63.4993C146.475 56.8831 146.023 54.9144 145.377 50.0087C145.022 47.2816 144.941 45.8938 144.877 41.8757C144.844 39.213 144.877 36.7441 144.941 36.3891C145.07 35.8404 145.199 35.679 145.878 35.3079C146.314 35.0658 146.701 34.9044 146.733 34.9206C146.749 34.9529 146.895 35.7274 147.024 36.6472ZM150.511 37.0991C152.223 39.4067 154.451 40.9881 157.26 41.8757C158.019 42.1016 159.036 42.5373 159.521 42.8278C161.894 44.2639 162.621 44.038 164.881 41.1495C165.462 40.3911 166.69 39.1324 167.61 38.3416C168.53 37.5509 169.467 36.7441 169.677 36.5666L170.064 36.2277L169.773 36.7925C169.208 37.9059 166.399 41.8273 165.769 42.3598C165.43 42.6502 164.623 43.1666 163.993 43.5055C163.347 43.8282 162.556 44.2801 162.233 44.4899C161.894 44.6835 161.426 44.861 161.184 44.861C160.506 44.861 154.064 40.9397 152.045 39.2937C151.545 38.8903 150.754 38.0028 150.269 37.325C149.187 35.7758 149.139 35.6629 149.317 35.6629C149.397 35.6629 149.93 36.3084 150.511 37.0991ZM123.661 54.0269C123.693 54.6885 124.484 56.8186 125.389 58.6259C125.873 59.6103 126.228 60.4333 126.18 60.4817C126.051 60.6269 125.13 59.6748 124.71 58.9487C123.871 57.5448 123.564 58.2064 124.097 60.2558C124.355 61.2401 124.339 61.9502 124.016 63.4348C123.79 64.4837 124.065 65.6456 125.437 69.341C126.067 71.0515 126.583 72.5361 126.583 72.649C126.583 72.8911 125.841 71.9067 125.421 71.0999C125.243 70.761 124.92 69.6314 124.71 68.5986C124.484 67.5659 124.097 66.2588 123.839 65.694C123.516 65.0323 123.354 64.4191 123.354 63.9189C123.354 63.5155 123.241 62.7893 123.128 62.3213C122.611 60.3849 122.676 56.4152 123.306 53.4943C123.386 53.0586 123.419 53.0425 123.532 53.333C123.596 53.5105 123.661 53.8171 123.661 54.0269ZM133.865 53.7041C134.947 54.398 136.513 55.9149 137.627 57.3672C138.935 59.0616 139.048 59.2391 139.904 61.1756C140.501 62.515 140.63 62.9829 140.63 63.7575C140.63 65.3067 140.356 66.2588 139.645 67.0656C139.306 67.469 139.016 67.937 139.016 68.0984C139.016 68.2598 139.193 68.9698 139.403 69.6637C139.629 70.3576 139.92 71.4388 140.049 72.0843C140.178 72.7136 140.646 74.1498 141.098 75.2633C141.551 76.3928 142.245 78.41 142.632 79.7655C143.02 81.1049 143.601 83.1059 143.924 84.187C144.295 85.4941 144.521 86.656 144.586 87.6565C144.634 88.4795 144.78 89.8512 144.909 90.6903C145.038 91.5294 145.167 93.2238 145.216 94.4664C145.329 96.9192 146.976 107.295 147.573 109.248C147.751 109.829 147.977 111.055 148.057 111.991C148.283 114.315 148.477 115.283 149.204 117.768C150.189 121.157 150.544 123.481 150.172 124.078C149.995 124.368 149.833 123.852 149.187 120.738C148.913 119.463 148.445 117.575 148.154 116.542C146.604 111.233 145.264 103.858 144.973 99.017C144.877 97.4678 144.634 95.3055 144.408 94.0791C143.73 90.4644 143.553 89.2864 143.294 86.2203C143.052 83.4447 143.004 83.2027 142.471 82.1054C142.164 81.4599 141.76 80.411 141.583 79.7978C141.405 79.1684 141.115 78.297 140.953 77.8452C140.792 77.3933 140.566 76.5542 140.469 75.9894C140.372 75.4246 140.146 74.5209 139.984 73.9884C139.807 73.4559 139.532 72.3586 139.355 71.5679C139.161 70.648 138.741 69.4862 138.224 68.3889C137.659 67.227 137.288 66.1619 137.062 65.0808C136.868 64.2094 136.594 63.0636 136.432 62.5311L136.142 61.5629L136.578 62.0793C136.82 62.3697 137.175 63.1282 137.385 63.7737C137.869 65.3228 138.354 66.1619 138.725 66.1619C138.903 66.1619 139.226 65.9683 139.452 65.7424C139.839 65.3551 139.855 65.2583 139.774 64.1771C139.484 60.869 138.16 58.4968 134.624 54.979C133.671 54.0269 132.945 53.2523 133.009 53.2523C133.074 53.2523 133.461 53.4621 133.865 53.7041ZM184.305 56.5927C183.514 57.9482 183.11 58.3677 181.673 59.3521C180.898 59.8846 180.107 60.4978 179.913 60.7076C178.751 61.9502 176.829 68.0984 177.604 68.0984C177.685 68.0984 178.218 67.6788 178.767 67.1624C181.511 64.6451 182.399 64.0157 181.285 65.3874C180.979 65.7747 180.543 66.404 180.301 66.8074C180.074 67.2109 179.332 68.0823 178.654 68.7439C177.475 69.8896 176.652 71.0837 176.878 71.2935C176.926 71.3419 177.136 71.2935 177.33 71.1644C178.621 70.3576 180.026 69.8412 180.026 70.1801C180.026 70.2608 179.655 70.5512 179.219 70.8417C176.926 72.3102 175.57 74.8276 175.102 78.4584C174.795 80.9274 174.504 81.9279 173.778 83.2672C173.455 83.8482 173.116 84.5743 172.986 84.8809L172.777 85.4457V84.7034C172.76 83.7998 173.212 81.5406 173.971 78.6359C174.294 77.474 174.649 75.7635 174.779 74.8437C174.908 73.9239 175.118 72.8104 175.247 72.3747C175.376 71.9229 175.715 70.3899 175.99 68.9375C177.087 63.1605 178.266 60.9658 181.56 58.5775C182.27 58.0611 183.239 57.1897 183.723 56.6411C184.192 56.0924 184.611 55.689 184.66 55.7374C184.708 55.7858 184.547 56.1731 184.305 56.5927ZM192.248 58.9325C192.216 61.5145 192.232 61.579 192.668 62.5795C193.427 64.2578 193.427 64.4191 192.378 66.759C191.877 67.8886 191.183 69.1796 190.828 69.6314C189.439 71.4226 189.358 71.4226 190.262 69.7121C191.393 67.5659 192.006 65.936 191.942 65.2905L191.877 64.7903L191.586 65.4358C191.312 66.049 190.682 66.6945 190.133 66.9043C189.714 67.0656 189.843 66.7267 190.602 65.6456C192.071 63.5962 192.103 63.4671 191.974 59.5457C191.926 57.8998 192.055 56.3183 192.232 56.3183C192.265 56.3183 192.281 57.4963 192.248 58.9325ZM302.008 75.1987C302.169 75.3762 302.411 75.9571 302.557 76.5058L302.831 77.4902L303.687 77.5386C304.656 77.6031 305.059 77.8936 305.334 78.6682C305.495 79.0716 305.673 79.233 306.157 79.3782C306.496 79.4912 306.771 79.588 306.771 79.6203C306.771 80.0721 307.481 82.7186 307.675 83.0252C307.917 83.3963 307.933 83.5577 307.772 84.2516C307.659 84.7034 307.578 85.5587 307.578 86.1719C307.578 88.7216 305.851 91.594 304.607 91.126C303.994 90.8839 304.478 89.5768 305.641 88.3504C306.173 87.7856 306.367 87.3499 306.513 86.3171C306.658 85.3005 306.432 84.4291 305.721 83.3156C305.398 82.7993 304.898 81.9763 304.607 81.5083C304.333 81.008 303.671 80.2496 303.09 79.7655C302.169 78.9909 302.024 78.9102 301.281 78.9102C300.619 78.9102 300.458 78.8457 300.296 78.5391C299.99 78.0066 299.828 76.9738 299.941 76.296C300.119 75.118 301.346 74.4725 302.008 75.1987ZM11.4958 79.1523L11.9318 80.5885L11.4312 81.008C11.0276 81.3469 10.9307 81.5406 10.963 81.9924C11.0276 82.8799 11.0276 82.9929 10.8984 83.7836C10.7208 84.8648 10.8823 85.2844 11.851 86.3171C13.1104 87.6404 13.175 87.8018 12.5937 88.415C12.3193 88.6893 12.1094 88.9798 12.1094 89.0766C12.1094 89.1573 12.287 89.7059 12.513 90.303C13.0297 91.6746 13.0297 91.8199 12.4646 91.8199C11.8187 91.8199 10.5916 90.9808 10.0588 90.19C9.67133 89.593 9.60675 89.3186 9.52602 87.8018C9.413 85.7362 9.04165 84.8325 8.13748 84.4614C7.21717 84.0741 6.82967 84.3807 5.97394 86.1074C4.9729 88.1406 2.85779 90.5451 2.45415 90.1255C2.40571 90.0771 2.35727 89.7705 2.35727 89.4477C2.35727 88.9475 2.48644 88.7538 3.35831 87.9631C4.1979 87.2208 4.39165 86.9465 4.47238 86.414C4.5854 85.6555 4.90831 84.9455 5.3604 84.4452C5.55415 84.2516 5.78019 83.6707 5.87706 83.1543C6.03852 82.3636 6.15154 82.1699 6.61977 81.8472C7.23331 81.4437 7.33019 81.2824 7.58852 80.2496C7.74998 79.5718 7.76613 79.5718 8.58956 79.5234L9.42915 79.475L9.63904 78.765C9.89738 77.8613 10.1396 77.587 10.6401 77.6515C10.9953 77.7 11.0922 77.8613 11.4958 79.1523ZM268.925 87.8179C269.199 89.367 270.136 91.8037 271.089 93.4336C271.46 94.0629 272.316 95.2894 273.026 96.1608C275.529 99.3075 276.32 100.76 276.804 103.148C277.305 105.569 277.111 106.505 276.029 106.908C275.335 107.166 272.025 107.812 271.912 107.715C271.88 107.666 272.622 107.279 273.559 106.811C274.851 106.182 275.303 105.875 275.432 105.553C276.061 103.89 275.496 102.099 273.51 99.5657C273.058 98.9847 272.413 98.1133 272.073 97.6131C271.202 96.2898 269.022 91.3842 268.747 90.0932C268.521 89.0282 268.408 86.188 268.602 86.3817C268.651 86.4301 268.812 87.0756 268.925 87.8179ZM41.0911 90.2062C39.6541 92.3847 39.4604 93.595 40.4291 94.305C40.7844 94.5793 41.1557 94.66 42.4958 94.6923C43.3838 94.7245 44.6917 94.6761 45.4021 94.5632C46.5807 94.4018 46.7099 94.4018 47.2104 94.7084C48.7604 95.6766 51.3437 99.4043 52.151 101.873C52.3448 102.47 52.7646 103.309 53.1036 103.745C53.9916 104.939 57.5114 108.764 58.9969 110.168C60.5146 111.604 60.0625 111.394 57.4307 109.442C53.5073 106.553 51.6989 104.31 49.8099 100.066C48.938 98.0649 48.3245 97.1612 47.9854 97.371C47.8885 97.4194 47.5979 97.8713 47.3234 98.3554C47.0489 98.8395 46.3708 99.727 45.8057 100.324C45.2568 100.937 44.5948 101.696 44.3526 102.019C44.1104 102.357 43.4161 102.906 42.8187 103.261C41.5916 103.987 39.5411 105.924 38.3463 107.473C37.6198 108.409 36.1182 109.587 35.9245 109.377C35.7307 109.183 37.539 107.037 40.0416 104.487C43.4323 101.05 46.1125 97.8874 46.5807 96.774C46.7745 96.306 46.7745 96.1769 46.5969 95.9348C46.387 95.6605 46.2901 95.6444 44.95 95.8541C44.1588 95.9832 42.7864 96.0478 41.8984 96.0155C39.2667 95.9348 38.2495 95.951 37.1838 96.0801C36.6187 96.1608 36.1666 96.1608 36.1666 96.0801C36.1666 95.9994 36.5541 95.5475 37.0385 95.0473C37.6359 94.4502 38.2172 93.5788 38.8469 92.3847C39.9286 90.3191 40.6229 89.3832 41.3656 89.0282C41.6562 88.8829 41.9146 88.7861 41.9307 88.8184C41.963 88.8345 41.5755 89.4639 41.0911 90.2062ZM172.696 93.3529C172.599 95.4507 172.324 97.6131 171.566 102.325C171.34 103.697 171.081 105.859 170.984 107.15C170.597 112.12 170.016 114.541 168.692 116.687C168.062 117.72 167.416 119.35 166.803 121.431C165.963 124.32 165.705 124.82 165.995 122.948C166.205 121.593 166.964 119.156 167.917 116.752C169.305 113.266 169.66 111.604 170.258 105.617C170.484 103.39 170.807 100.598 170.984 99.4043C171.146 98.2102 171.372 96.4674 171.469 95.5314C171.582 94.5955 171.824 92.9818 172.05 91.9167C172.26 90.8678 172.438 89.948 172.454 89.8996C172.47 89.8512 172.551 90.1255 172.631 90.5289C172.712 90.9323 172.744 92.191 172.696 93.3529ZM298.149 90.3998C298.246 90.5128 297.6 90.9485 296.228 91.7231C294.678 92.5945 294.5 93.4497 294.984 97.2097C295.549 101.438 295.436 102.051 293.628 104.455C293.144 105.101 292.433 106.263 292.03 107.069C290.447 110.265 288.671 111.83 286.685 111.83C285.927 111.83 285.781 111.685 285.781 110.878C285.781 109.797 286.895 108.748 289.931 107.005C292.304 105.633 293.693 103.584 294.048 100.953C294.226 99.5011 294.064 96.4351 293.677 94.3211C293.354 92.5783 293.79 91.4649 295.065 90.8517C296.002 90.3998 297.874 90.1255 298.149 90.3998ZM187.873 91.9651C187.824 92.7236 187.582 94.1436 187.356 95.128C187.13 96.0962 186.84 97.3388 186.71 97.8713C186.307 99.6302 185.839 104.423 185.677 108.441C185.516 112.588 185.08 117.768 184.547 121.996C184.305 123.9 184.224 125.498 184.224 128.693C184.224 133.889 184.03 136.842 183.497 140.07C182.803 144.298 182.238 146.073 181.415 146.605C181.205 146.75 180.591 146.928 180.042 147.025C179.493 147.105 178.686 147.315 178.234 147.493C177.039 147.961 176.345 147.912 174.746 147.186C173.681 146.718 172.954 146.508 171.872 146.379C171.065 146.282 169.822 146.057 169.128 145.895C168.417 145.718 167.255 145.443 166.544 145.282C165.317 145.008 165.285 144.992 165.931 144.943C166.302 144.911 167.126 145.04 167.755 145.234C168.789 145.54 169.128 145.556 171.453 145.459L173.987 145.347L175.328 145.944L176.652 146.557L178.363 146.266C179.703 146.024 180.107 145.895 180.284 145.637C180.397 145.459 181.237 143.168 182.125 140.554C183.74 135.858 183.772 135.777 183.643 134.744C183.578 134.164 183.514 132.017 183.514 129.984C183.497 127.935 183.433 125.256 183.352 124.013C183.239 122.141 183.271 121.544 183.481 120.544C184.466 116.09 184.579 115.315 184.708 111.588C184.789 109.538 184.918 107.554 185.015 107.15C185.096 106.747 185.241 105.149 185.354 103.6C185.564 100.227 185.693 99.3882 186.355 97.3388C186.759 96.0639 186.872 95.37 186.953 93.595C187.033 92.0135 187.146 91.2712 187.356 90.8839C187.808 90.0125 187.986 90.3998 187.873 91.9651ZM127.52 93.7886C127.697 94.8859 128.069 96.5803 128.343 97.5647C128.941 99.7593 129.328 102.357 129.328 103.939L129.312 105.133L128.941 103.681C128.731 102.874 128.214 101.115 127.81 99.7432C127.019 97.1128 126.583 94.9989 126.583 93.7886C126.583 93.0302 126.874 91.8199 127.068 91.8199C127.132 91.8199 127.326 92.7074 127.52 93.7886ZM167.981 93.2399C167.642 94.0791 167.739 94.3211 168.643 94.7568C169.354 95.1118 169.37 95.128 169.37 95.9026C169.37 96.8385 169.047 98.9525 168.885 99.13C168.821 99.2107 168.546 98.9525 168.272 98.5652C167.658 97.6938 166.98 97.0483 166.464 96.8546C166.108 96.7255 165.963 96.7901 165.253 97.4517C164.801 97.8551 163.977 98.549 163.428 99.0009C162.879 99.4366 161.991 100.324 161.458 100.97C160.942 101.599 159.876 102.68 159.085 103.358C157.729 104.552 157.632 104.6 157.002 104.52C156.647 104.487 155.387 104.036 154.209 103.535C151.787 102.486 150.431 102.131 150.124 102.438C149.753 102.809 149.962 104.859 150.641 107.634C151.157 109.651 151.367 110.942 151.529 112.959C151.658 114.428 151.835 116.058 151.932 116.59C152.191 118.139 152.126 118.285 151.626 117.316C150.528 115.202 150.156 113.734 149.914 110.603C149.672 107.554 149.559 106.843 148.994 104.988C148.655 103.842 148.655 103.519 148.961 99.727C149.074 98.3715 149.026 98.2908 148.057 97.9681C146.992 97.6292 146.604 97.1612 146.491 96.1446C146.378 94.9827 146.685 94.4018 147.411 94.4018C147.67 94.4018 149.979 94.66 152.53 94.9827C157.599 95.6121 160.086 95.6605 161.975 95.1441C163.041 94.8536 166.447 93.4497 167.448 92.8688C167.836 92.659 168.175 92.4976 168.191 92.5299C168.223 92.5461 168.127 92.8688 167.981 93.2399ZM19.488 103.148C20.3276 104.003 20.8281 105.101 21.4416 107.344C21.7484 108.489 22.1521 109.506 22.6364 110.329C23.5406 111.911 23.6375 112.153 23.3146 112.153C22.6364 112.153 22.4104 111.846 22.0229 110.41C21.7807 109.49 21.1026 108.36 20.6989 108.199C20.263 108.038 20.1661 108.473 20.263 110.055C20.3437 111.313 20.4568 111.749 20.8443 112.508C21.1026 113.024 21.2802 113.444 21.2318 113.444C20.6505 113.444 18.5515 111.41 18.164 110.474C17.6797 109.345 17.938 108.828 19.3104 108.151C20.7474 107.424 20.6505 105.682 19.0521 103.519C18.6161 102.922 18.2448 102.357 18.2448 102.277C18.2448 102.035 18.7614 102.406 19.488 103.148ZM166.334 106.731C166.157 107.118 165.366 108.118 164.558 108.974C163.105 110.49 162.831 110.975 162.96 111.911C162.976 112.136 162.879 112.249 162.637 112.282C162.007 112.379 162.266 112.83 163.283 113.444C164.106 113.928 163.945 114.008 162.928 113.605C162.476 113.427 161.781 113.282 161.41 113.282C160.829 113.282 160.619 113.379 160.134 113.879C159.472 114.557 159.198 115.154 159.198 115.913C159.198 117.042 158.213 118.591 156.146 120.738C155.048 121.899 154.58 122.077 153.934 121.609C153.563 121.335 153.547 121.351 154.839 120.673C156.243 119.947 156.841 119.108 158.1 116.122C159.117 113.686 159.117 113.686 160.522 112.314C161.587 111.265 161.959 110.781 162.12 110.232C162.249 109.78 162.524 109.377 162.895 109.07C163.218 108.828 163.88 108.296 164.348 107.925C165.043 107.376 165.317 107.021 165.576 106.343C165.769 105.843 166.06 105.23 166.237 104.972L166.544 104.504L166.593 105.262C166.625 105.746 166.528 106.263 166.334 106.731ZM130.539 110.781C132.444 121.448 133.316 124.53 135.044 126.966C136.158 128.516 136.319 129.048 136.997 133.211C137.127 134.002 137.304 136.003 137.401 137.649C137.627 141.554 137.756 142.248 138.515 142.991C138.935 143.41 139.322 143.62 139.952 143.765C141.647 144.12 142.6 143.926 145.199 142.668C146.992 141.796 148.219 141.312 148.332 141.425C148.364 141.457 148.203 141.716 147.96 142.006C147.67 142.345 146.814 142.878 145.587 143.475C143.989 144.265 143.504 144.427 142.826 144.427C142.18 144.427 141.696 144.572 140.549 145.153C139.758 145.556 138.757 145.927 138.354 145.976C137.466 146.105 137.579 146.363 137.078 142.861C136.917 141.587 136.545 139.666 136.271 138.585C136.012 137.504 135.673 135.745 135.544 134.664C135.415 133.599 135.221 132.163 135.141 131.469C134.963 129.984 134.559 129.113 133.219 127.273C131.976 125.579 131.669 124.804 131.282 122.593C131.104 121.593 130.652 119.334 130.281 117.558C129.586 114.186 129.586 114.234 129.441 107.586L129.393 105.294L129.667 106.424C129.829 107.037 130.216 109.006 130.539 110.781ZM208.604 105.536C208.475 105.617 207.668 105.988 206.828 106.359C202.323 108.328 201.08 109.167 196.721 113.185C194.719 115.025 194.089 115.703 194.38 115.703C194.477 115.703 196.204 114.847 198.239 113.782C203.47 111.055 207.587 109.022 207.312 109.296C207.183 109.425 205.827 110.474 204.309 111.62C201.726 113.54 197.948 115.783 194.654 117.349C194.202 117.542 193.815 117.817 193.782 117.914C193.702 118.188 194.299 118.172 194.864 117.897C195.381 117.623 199.223 116.784 204.164 115.864C206.118 115.493 208.62 114.993 209.734 114.735C212.269 114.137 215.854 113.524 218.356 113.266C220.633 113.04 226.155 113.169 227.979 113.492C229.981 113.847 228.851 114.024 223.055 114.25C214.998 114.573 209.864 115.202 205.214 116.445C200.806 117.623 193.12 120.27 190.085 121.657C189.084 122.109 188.18 122.48 188.067 122.48C187.631 122.48 188.858 121.512 190.117 120.85C191.296 120.237 191.49 120.076 191.49 119.721C191.49 119.059 191.974 117.801 192.313 117.623C192.474 117.542 192.62 117.365 192.62 117.252C192.62 117.074 192.458 117.074 191.699 117.252C191.199 117.365 190.763 117.446 190.747 117.429C190.65 117.333 195.671 112.233 196.624 111.459C199.272 109.329 203.664 106.892 206.747 105.859C208.217 105.375 209.089 105.214 208.604 105.536ZM271.089 107.925C271.089 108.151 270.217 108.877 269.555 109.2C269.07 109.442 268.78 109.49 268.424 109.393C268.166 109.312 267.068 109.135 266.019 109.006C264.388 108.78 263.5 108.57 263.5 108.393C263.5 108.36 264.711 108.344 266.212 108.344C268.247 108.344 269.086 108.28 269.635 108.086C270.443 107.796 271.089 107.731 271.089 107.925ZM94.6146 110.894C100.023 111.814 110.906 114.735 113.78 116.025C116.331 117.187 122.644 120.625 124.969 122.125L125.372 122.4L124.646 122.529C123.08 122.851 119.56 122.835 116.444 122.496C114.781 122.303 112.585 122.093 111.568 121.996C109.065 121.77 105.432 121.173 105.432 120.98C105.432 120.77 108.839 120.931 111.245 121.254C113.424 121.56 117.784 121.77 118.397 121.609C119.479 121.351 118.349 120.85 115.604 120.399C113.715 120.076 111.487 119.592 108.177 118.769C104.98 117.978 100.104 117.187 92.1766 116.187C87.9625 115.654 83.7323 115.09 82.7474 114.944C80.164 114.525 81.5042 114.492 84.475 114.896C85.8312 115.073 88.9474 115.364 91.3854 115.541C96.9557 115.945 100.088 116.251 103.576 116.752C107.677 117.333 112.536 117.962 112.989 117.962C113.376 117.962 113.376 117.946 113.118 117.655C112.972 117.494 112.536 117.236 112.165 117.107C111.794 116.978 110.211 116.38 108.661 115.816C103.495 113.912 98.2474 112.298 93.1937 111.088C91.8859 110.765 90.788 110.474 90.7396 110.426C90.6265 110.297 92.4833 110.523 94.6146 110.894ZM176.619 155.319C177.071 155.803 177.443 156.271 177.443 156.368C177.443 156.626 176.506 155.949 175.699 155.093C175.118 154.48 174.972 154.399 174.843 154.593C174.601 154.932 174.811 154.044 175.134 153.318L175.392 152.737L175.586 153.593C175.747 154.254 175.99 154.641 176.619 155.319ZM141.437 154.593C141.906 154.948 142.358 155.239 142.422 155.239C142.503 155.239 143.036 155.69 143.617 156.239C144.57 157.127 145.635 158.692 145.426 158.902C145.377 158.934 145.054 158.547 144.699 158.03C144.118 157.175 142.019 155.19 141.454 154.964C141.115 154.819 140.953 155.239 140.953 156.368C140.953 156.949 140.889 157.53 140.808 157.643C140.533 158.063 140.42 157.094 140.63 156.223C140.776 155.577 140.776 155.335 140.566 154.835C140.097 153.738 140.227 153.689 141.437 154.593ZM138.224 160.967C138.999 161.532 139.742 161.855 140.291 161.855C140.549 161.855 141.276 162.065 141.89 162.339C142.519 162.597 143.31 162.823 143.649 162.823C143.989 162.823 144.78 163.017 145.393 163.226C146.782 163.727 146.943 163.727 147.524 163.259C147.767 163.049 148.219 162.758 148.493 162.613C149.026 162.371 149.026 162.371 148.848 162.71C148.735 162.904 148.574 163.178 148.461 163.307C148.348 163.436 148.17 163.823 148.057 164.162C147.799 164.969 147.315 165.163 146.394 164.824C146.023 164.679 145.248 164.469 144.667 164.34C144.085 164.211 143.052 163.807 142.342 163.452C141.647 163.097 140.372 162.613 139.516 162.403C137.885 161.984 137.514 161.742 137.336 160.999C137.207 160.435 137.482 160.419 138.224 160.967ZM179.057 162.355C179.057 162.71 177.879 163.92 177.265 164.211C177.055 164.324 176.474 164.582 175.99 164.824C175.505 165.05 174.779 165.518 174.375 165.889C173.729 166.47 173.568 166.534 172.825 166.534C172.373 166.534 171.776 166.615 171.501 166.712C171.065 166.857 170.92 166.825 170.403 166.47C169.87 166.115 169.757 166.083 169.547 166.276C169.047 166.712 168.595 166.744 168.353 166.341C168.03 165.841 167.868 164.743 167.997 163.953C168.094 163.388 168.143 163.323 168.401 163.468C168.562 163.549 168.74 163.84 168.805 164.114C169.031 165.114 170.226 165.55 171.033 164.921C171.549 164.501 171.566 164.501 171.695 165.082C171.856 165.937 172.534 165.663 173.132 164.517L173.39 164.033L173.293 164.711C173.245 165.098 173.261 165.405 173.309 165.405C173.616 165.405 174.197 164.969 174.779 164.324C175.328 163.711 175.57 163.581 176.49 163.372C177.346 163.178 177.669 163.017 178.169 162.5C178.815 161.839 179.057 161.806 179.057 162.355Z" fill="#0F64CD"/>
<path d="M162.831 95.7896C162.217 95.9187 160.78 96.0639 159.65 96.1123C158.504 96.1769 157.583 96.2899 157.583 96.3705C157.583 96.4512 157.777 96.8385 158.003 97.2258C158.342 97.8067 158.423 98.194 158.471 99.2752C158.536 101.115 158.73 102.793 158.891 102.793C158.956 102.793 159.634 102.196 160.393 101.454C161.394 100.502 161.814 99.9852 161.878 99.598C162.007 98.9363 161.83 98.9363 160.683 99.5818C160.199 99.8561 159.779 100.034 159.747 100.001C159.65 99.9046 160.909 99.1138 162.411 98.3393C163.929 97.5485 165.01 96.5642 165.01 95.9671C165.01 95.5798 164.946 95.5314 164.494 95.5475C164.203 95.5637 163.46 95.6766 162.831 95.7896Z" fill="#0F64CD"/>
<path d="M155.097 97.3065C154.79 97.5808 154.306 98.2101 154.015 98.7265C153.741 99.2268 153.288 99.8884 153.046 100.179C152.449 100.857 152.336 101.357 152.643 101.938C152.998 102.632 154.209 103.116 155.872 103.229C158.116 103.39 158.326 103.229 157.809 101.809C157.68 101.421 157.486 100.485 157.406 99.727C157.325 98.9686 157.18 98.0165 157.083 97.5808C156.905 96.8385 156.889 96.8224 156.275 96.8224C155.823 96.8224 155.517 96.9515 155.097 97.3065Z" fill="#0F64CD"/>
</svg>
