<svg width="1440" height="1870" viewBox="0 0 1440 1870" fill="none" xmlns="http://www.w3.org/2000/svg">
<path d="M-229.014 92.3763C-234.259 102.613 -241.004 105.609 -261.487 105.858C-298.456 106.857 -340.171 126.581 -354.409 149.8C-369.397 174.267 -382.636 222.453 -382.636 252.912C-382.636 266.643 -381.387 272.386 -375.392 284.12C-371.395 291.86 -365.15 301.097 -361.653 304.343C-354.659 310.834 -352.91 322.319 -358.156 326.314C-359.904 327.812 -366.899 329.559 -373.393 330.308C-387.382 331.806 -389.879 334.303 -397.623 356.024C-403.118 372.003 -408.864 379.493 -415.608 379.493C-417.606 379.493 -423.851 382.988 -429.097 387.232C-434.592 391.477 -446.083 398.467 -455.075 402.462C-475.558 411.699 -483.052 418.69 -495.292 440.911C-502.536 454.143 -505.033 461.633 -505.033 469.872C-505.033 489.096 -489.796 525.797 -475.058 542.774C-470.812 547.518 -457.823 568.49 -446.083 589.712C-420.104 636.149 -413.11 644.888 -392.627 656.372L-376.89 665.36L-365.15 692.075C-352.91 719.538 -352.161 720.287 -298.706 781.455C-289.713 791.692 -279.222 805.174 -275.725 811.166L-269.48 822.151L-276.724 827.394C-288.464 835.882 -294.709 843.622 -302.702 859.601C-313.193 880.573 -313.193 903.542 -302.952 925.013C-299.205 933.252 -293.71 941.741 -291.212 944.238C-284.218 950.23 -268.731 953.725 -249.497 953.725C-240.004 953.725 -230.263 954.973 -227.515 956.471C-221.27 959.717 -211.029 981.188 -208.781 995.17C-207.781 1002.91 -208.781 1008.65 -212.777 1017.64C-217.523 1028.13 -218.273 1033.87 -218.023 1058.58C-217.523 1086.8 -222.769 1122 -231.512 1151.21C-235.009 1163.44 -238.006 1192.16 -243.252 1260.81C-246.999 1313.24 -246.999 1314.99 -242.003 1341.96C-237.756 1365.92 -232.761 1452.31 -232.761 1507.48C-232.761 1536.2 -233.76 1544.19 -240.254 1569.15C-249.247 1603.61 -249.497 1610.6 -242.003 1618.59C-237.007 1624.08 -233.26 1625.08 -201.537 1627.82C-182.303 1629.32 -164.567 1631.82 -161.82 1633.32C-157.823 1635.56 -157.573 1637.56 -158.822 1648.55C-159.821 1655.79 -162.819 1668.77 -165.317 1677.76C-167.815 1686.75 -171.811 1707.47 -174.309 1723.95C-178.056 1751.66 -179.555 1755.9 -192.044 1779.37C-208.281 1810.33 -208.531 1816.07 -193.543 1817.07C-180.804 1818.07 -165.567 1810.83 -159.072 1800.84C-156.574 1797.1 -149.08 1788.11 -142.836 1781.37C-136.341 1774.38 -122.852 1756.4 -112.861 1741.42C-102.119 1725.44 -85.883 1705.72 -74.3926 1694.24C-41.4201 1661.78 -40.6707 1659.53 -54.1595 1631.57C-58.9055 1621.33 -62.1528 1611.6 -61.4034 1608.6C-60.6541 1605.85 -61.903 1596.87 -63.9014 1588.63C-68.8972 1569.9 -68.8972 1539.94 -64.1512 1505.49C-62.1528 1491.01 -59.1553 1454.56 -57.6566 1424.35C-55.908 1387.89 -53.4101 1362.43 -50.1628 1348.7C-47.6649 1337.21 -44.9172 1319.74 -44.1678 1310C-42.4193 1288.28 -34.9255 1243.34 -25.4334 1199.65C-21.6866 1181.67 -16.9405 1158.95 -15.192 1148.96C-11.9447 1129.24 -12.6941 1129.99 9.03778 1127.74C23.5257 1125.99 32.0186 1120.25 32.0186 1111.51C32.0186 1107.77 28.5215 1093.54 24.2751 1079.81C19.7789 1065.33 17.0311 1052.59 18.0303 1048.6C18.5299 1044.85 26.773 1029.12 36.0153 1013.4C45.2576 997.666 64.2418 965.21 77.9803 941.242C119.945 868.589 147.672 836.382 167.905 836.382C171.402 836.382 188.638 829.141 206.123 820.403C242.843 801.928 255.332 797.933 270.32 800.18C278.563 801.429 284.308 800.43 296.298 795.437C309.038 789.944 315.532 788.945 334.766 788.945C347.505 788.945 362.493 790.193 367.988 791.442C375.732 793.19 379.229 792.94 383.725 789.944C386.723 787.947 411.202 775.214 437.93 761.482C489.387 735.017 505.873 730.024 524.108 734.768C528.854 736.016 538.846 736.515 546.09 735.766C553.584 735.017 562.077 735.267 564.824 736.266C567.822 737.264 584.308 736.765 601.544 734.768C633.517 731.023 645.007 731.522 702.959 739.511C725.191 742.507 730.686 741.009 736.431 730.523C739.429 724.781 739.179 723.533 735.682 719.538C733.184 717.041 731.435 712.048 731.435 708.802C731.435 705.307 728.688 698.816 725.191 694.072C721.693 689.328 718.946 684.335 718.946 682.837C718.946 681.089 712.951 674.848 705.957 668.856C693.217 658.37 692.218 657.87 676.481 658.12C667.489 658.12 655.998 659.119 651.002 660.117C642.01 662.115 641.51 661.865 641.51 656.372C641.51 653.127 644.258 644.638 647.255 637.897C656.498 618.173 657.247 612.431 651.502 606.689C648.754 603.943 643.758 601.696 640.511 601.696C632.268 601.696 603.792 612.182 579.812 623.916C568.821 629.408 555.082 635.151 548.838 636.649C533.85 640.893 482.893 640.144 456.664 635.401C427.938 630.407 399.962 630.657 368.988 636.399C326.773 644.388 292.052 651.379 268.072 656.622C255.832 659.368 239.346 661.366 231.852 661.116L218.113 660.367L217.864 650.131C217.864 644.638 216.365 637.897 215.116 635.401C212.868 631.905 213.617 629.159 217.364 623.916C224.358 614.678 222.11 607.188 207.872 593.457C199.879 585.467 190.387 579.725 176.648 574.232C152.918 564.495 147.173 560.501 96.4649 517.808C51.7522 480.108 -5.69989 436.167 -28.6807 422.186C-37.1736 417.192 -56.6574 406.457 -71.8947 398.467C-90.6291 388.73 -100.871 381.989 -103.618 376.996C-109.613 367.009 -143.335 346.537 -156.324 345.288C-166.316 344.04 -178.306 347.785 -188.298 355.025C-196.541 361.017 -195.791 354.526 -187.049 341.543C-178.306 328.561 -169.563 304.593 -167.065 286.617C-166.066 280.625 -167.315 274.633 -170.313 268.89C-173.81 262.649 -175.308 253.161 -176.058 234.187C-176.807 216.96 -178.556 205.475 -181.303 200.232C-183.552 195.988 -185.3 190.495 -185.3 188.248C-185.3 184.254 -184.801 184.254 -180.304 188.498C-177.557 190.995 -175.308 191.993 -175.308 190.745C-175.308 189.497 -173.81 191.244 -172.061 194.49C-168.564 201.481 -164.068 201.481 -164.318 194.74C-164.567 188.498 -162.319 188.498 -156.574 194.74C-149.08 202.979 -147.332 200.732 -149.08 186.501C-151.079 172.27 -154.076 165.029 -159.821 160.785C-166.066 156.291 -165.567 149.051 -158.572 141.81C-150.579 133.571 -151.828 131.324 -162.069 135.319C-171.062 138.814 -178.306 136.567 -177.307 130.575C-177.057 128.079 -177.557 124.833 -178.556 123.335C-179.555 121.587 -178.556 119.091 -176.557 117.343C-172.061 113.598 -171.562 104.86 -175.558 104.86C-177.307 104.86 -182.053 107.107 -186.299 109.853C-197.29 116.594 -208.781 113.598 -209.78 103.861C-210.279 99.3671 -211.778 97.3698 -214.026 98.1187C-216.024 99.1174 -217.773 96.8704 -218.772 92.1267C-220.521 82.889 -224.018 82.889 -229.014 92.3763ZM-198.789 118.342C-188.298 118.591 -186.299 119.34 -187.298 122.586C-187.798 124.833 -187.049 127.579 -185.55 128.328C-184.051 129.327 -182.802 132.323 -182.802 135.319C-182.802 138.065 -180.804 140.812 -177.806 141.561C-174.059 142.559 -173.31 144.307 -174.309 148.801C-175.558 153.295 -174.059 156.541 -168.564 161.534C-160.321 169.274 -155.325 177.513 -155.325 183.505C-155.325 187 -155.825 187 -161.32 183.505C-164.567 181.258 -170.313 179.76 -174.309 180.009C-178.306 180.259 -183.302 179.76 -185.55 178.761C-188.048 177.513 -190.296 178.262 -191.045 180.758C-192.794 185.003 -188.547 201.481 -185.3 203.478C-183.801 204.477 -182.802 211.967 -182.552 220.455C-182.552 241.427 -179.055 266.643 -175.308 276.131C-170.313 287.615 -177.806 317.326 -190.546 337.049C-202.036 355.025 -203.285 364.513 -194.293 364.513C-190.796 364.513 -184.801 361.517 -180.554 358.021C-176.308 354.526 -169.064 351.031 -164.068 350.282C-151.328 348.284 -126.349 361.267 -108.364 379.243C-98.6224 389.23 -84.1345 399.466 -61.6532 411.949C-6.69907 443.157 24.7747 464.878 68.2384 501.829C126.19 551.263 148.172 567.491 173.401 579.725C190.636 587.714 201.627 594.955 207.872 601.696C212.868 607.188 216.864 612.681 216.864 613.929C216.864 614.928 214.367 618.922 211.619 622.667C207.123 628.41 206.623 630.407 209.121 635.65C210.62 639.146 211.869 645.387 211.869 649.881C211.869 654.375 213.367 660.367 215.366 663.113C218.863 667.857 219.862 668.107 243.592 665.111C257.081 663.613 282.06 659.368 299.296 655.873C316.531 652.378 335.516 648.882 341.76 647.884C348.005 647.135 363.492 644.139 375.982 641.392C404.208 635.65 418.696 635.401 447.922 640.893C461.411 643.39 484.891 644.888 506.623 645.137C548.588 645.387 551.585 644.638 600.295 621.918C633.767 606.19 643.509 603.943 649.004 610.434C651.502 613.68 650.753 617.674 644.258 633.153C639.762 643.639 636.515 655.124 637.014 658.869C637.763 666.109 639.262 666.109 671.735 662.614C681.977 661.615 687.972 662.115 692.967 664.861C702.21 669.854 716.448 683.087 716.448 686.582C716.448 688.33 718.696 692.324 721.444 695.82C724.191 699.315 726.439 704.558 726.439 707.554C726.439 710.3 728.188 716.043 730.186 720.037C733.933 727.028 733.683 727.777 729.187 732.271C724.691 736.765 723.192 737.015 702.459 734.019C681.977 731.023 628.771 729.525 580.311 730.773C536.348 731.772 530.353 731.772 523.858 728.776C514.616 725.031 491.885 729.025 472.901 737.514C465.407 741.009 458.413 744.005 457.664 744.005C456.914 744.005 450.17 748 442.426 752.993C434.433 757.987 423.942 763.479 418.696 765.477C413.451 767.224 402.46 772.717 394.466 777.461L379.479 786.199L347.505 784.701C316.531 783.203 314.533 783.453 298.297 789.944C285.307 795.187 279.063 796.435 271.569 795.187C256.332 792.69 230.853 801.429 188.138 824.398C182.643 827.394 172.651 830.639 165.907 831.638C143.176 835.383 113.95 866.591 82.7263 920.519C71.9853 938.745 55.9987 965.959 47.2559 980.689C23.5257 1020.64 11.0361 1046.1 11.0361 1054.59C11.0361 1058.83 14.0336 1069.82 17.7805 1078.81C21.2776 1087.8 25.0245 1099.78 26.0236 1105.52C27.5224 1115.26 27.2726 1116.01 20.5282 1118.5C16.5316 1120.25 7.03949 1121.75 -0.454285 1122.5C-8.69742 1123 -15.192 1125 -16.9405 1127.24C-18.4393 1129.24 -20.4376 1137.98 -21.187 1146.47C-21.9364 1155.21 -25.4334 1172.93 -28.9305 1185.91C-37.4235 1219.12 -45.6666 1267.06 -48.1645 1300.01C-49.1637 1315.49 -52.9105 1341.96 -56.4076 1358.93C-60.9039 1380.9 -62.9022 1397.88 -62.9022 1416.36C-62.9022 1431.09 -65.1503 1460.05 -67.6482 1481.02C-76.391 1549.93 -74.3926 1597.86 -61.4034 1632.07C-58.1562 1640.56 -55.4084 1652.04 -55.4084 1657.53C-55.4084 1667.02 -56.9072 1669.02 -76.6407 1688.24C-89.8797 1700.98 -105.617 1719.7 -118.606 1738.68C-129.846 1755.15 -143.085 1772.63 -148.081 1777.62C-153.077 1782.37 -160.071 1790.36 -163.818 1795.6C-170.812 1805.09 -183.552 1812.58 -192.544 1812.58C-200.537 1812.58 -199.039 1804.09 -188.298 1786.61C-176.058 1767.39 -174.059 1761.15 -169.064 1722.7C-166.566 1705.47 -162.569 1685.75 -159.821 1679.01C-154.326 1664.77 -150.829 1631.82 -154.576 1629.57C-158.572 1627.07 -207.781 1620.33 -222.02 1620.33C-233.26 1620.33 -235.758 1619.34 -239.255 1614.09C-243.751 1607.1 -243.002 1601.86 -233.26 1570.4C-226.766 1549.68 -226.516 1547.68 -226.766 1489.26C-227.015 1427.84 -230.013 1379.66 -236.757 1327.97C-239.755 1304.76 -240.004 1293.77 -237.756 1270.55C-236.258 1255.07 -234.009 1228.11 -232.761 1211.13C-231.262 1193.9 -227.265 1167.44 -223.768 1152.46C-220.271 1137.23 -215.775 1117.76 -213.776 1109.27C-211.778 1100.53 -210.279 1080.81 -210.279 1064.33C-210.279 1040.36 -209.28 1032.87 -205.283 1023.88C-202.536 1017.89 -200.288 1008.15 -200.288 1002.16C-200.288 988.429 -208.781 965.459 -217.773 955.473C-224.517 947.983 -225.766 947.483 -249.746 945.985C-263.485 944.987 -276.974 942.989 -279.721 941.491C-282.719 939.993 -288.964 930.506 -294.209 920.27C-302.702 903.043 -303.202 900.796 -301.453 886.565C-299.455 869.088 -288.464 848.865 -274.226 836.382C-269.23 831.888 -265.233 826.645 -265.233 824.647C-265.233 821.901 -263.984 821.402 -260.737 822.9C-258.489 823.898 -251.994 825.147 -246.499 825.896C-231.262 827.643 -230.263 829.141 -230.263 854.857C-230.263 891.558 -226.016 920.769 -218.273 935.499C-188.298 993.422 -168.314 1027.38 -156.824 1040.86C-142.836 1056.84 -111.861 1060.83 -87.8814 1049.6C-56.1578 1034.87 -54.1595 1021.38 -83.8847 1021.13C-96.1245 1021.13 -121.603 1014.39 -129.597 1009.4C-143.585 1000.16 -152.328 983.935 -166.316 941.741C-173.81 918.772 -181.303 892.806 -182.802 884.068C-184.301 875.33 -187.798 862.097 -190.546 854.857C-198.539 833.386 -196.791 828.642 -178.556 821.651C-169.563 818.156 -162.319 813.662 -161.57 811.166C-160.321 807.92 -157.074 806.422 -148.331 805.922C-136.591 805.174 -136.591 805.174 -129.097 789.694C-124.851 780.956 -120.354 773.965 -118.856 773.965C-116.108 773.965 -104.867 796.685 -100.621 811.415C-99.122 816.159 -95.6249 833.136 -92.8772 848.865C-84.8839 892.557 -74.3926 930.506 -55.4084 981.188C-31.6783 1044.85 -25.6832 1064.33 -22.4359 1086.05C-19.1887 1110.27 -17.1903 1112.26 -1.45346 1108.27C5.29092 1106.77 12.0353 1103.77 13.5341 1101.78C16.7814 1097.78 15.0328 1087.3 6.53989 1061.08C2.793 1049.35 1.54407 1039.36 1.79385 1024.63C2.29343 1002.41 1.29425 998.665 -18.9389 949.98C-37.6732 905.539 -45.9164 873.832 -45.6666 848.865C-45.167 816.159 -50.6624 792.69 -64.1512 769.222C-70.6458 758.236 -79.3885 746.252 -83.6349 743.007C-104.617 726.529 -104.617 725.78 -87.6316 697.567C-78.3893 682.088 -72.6441 675.347 -65.8997 671.852C-52.4109 664.861 -48.6641 659.368 -46.6657 644.139C-44.9172 630.657 -45.167 629.908 -55.4084 617.175C-61.4034 609.685 -67.898 604.192 -70.6458 604.192C-75.3918 604.192 -75.8914 605.69 -78.8889 623.666C-79.888 629.408 -86.6324 639.146 -100.121 654.625C-111.112 667.358 -120.354 680.34 -121.353 684.335C-122.852 692.075 -127.848 695.32 -143.835 697.817C-156.324 699.814 -164.318 708.303 -168.064 722.784C-170.562 732.521 -172.561 735.267 -179.555 738.013C-184.301 740.011 -194.542 747.75 -202.786 755.24C-211.029 762.73 -220.021 769.222 -223.268 769.971C-250.995 775.214 -257.49 777.211 -256.491 779.208C-255.492 780.457 -259.238 781.455 -264.484 781.455C-275.475 781.455 -280.471 784.951 -278.472 791.192C-276.474 796.685 -275.475 797.434 -313.443 754.242C-344.917 718.29 -347.665 714.295 -357.407 690.327C-368.897 662.115 -370.146 660.617 -389.879 650.131C-407.864 640.394 -416.108 629.908 -437.59 589.712C-447.581 570.987 -462.069 547.518 -469.563 538.031C-477.307 528.294 -484.551 519.306 -485.799 517.558C-489.297 512.814 -497.54 479.109 -497.54 468.873C-497.54 460.135 -485.05 434.169 -475.558 423.434C-473.31 420.937 -463.318 415.195 -453.826 410.701C-444.084 406.457 -428.347 397.718 -418.606 391.477C-402.119 380.741 -400.371 378.993 -393.876 363.015C-384.134 339.796 -381.636 337.049 -368.647 337.049C-360.154 337.049 -356.907 335.801 -352.661 330.308C-346.166 321.82 -347.415 312.332 -356.657 301.597C-367.648 288.115 -375.142 270.638 -375.142 257.905C-375.142 238.93 -370.396 215.462 -362.153 190.995C-351.661 160.785 -347.165 152.047 -335.924 142.31C-318.439 126.83 -277.473 112.35 -251.245 112.35C-244.501 112.35 -237.507 111.351 -235.758 110.103C-233.51 108.854 -228.264 109.853 -222.02 113.099C-216.024 116.095 -206.033 118.342 -198.789 118.342ZM-167.815 187.25C-167.815 188.498 -168.314 189.746 -168.814 189.746C-169.563 189.746 -170.812 188.498 -171.562 187.25C-172.311 185.752 -171.811 184.753 -170.562 184.753C-169.064 184.753 -167.815 185.752 -167.815 187.25ZM-174.559 762.98C-173.81 763.979 -174.559 767.724 -176.557 771.718C-181.303 780.706 -181.303 786.449 -176.807 786.449C-174.809 786.449 -172.311 787.697 -171.312 789.195C-170.063 791.192 -171.811 791.692 -176.807 790.693C-182.303 789.694 -185.8 790.943 -192.294 796.685C-198.039 801.678 -203.035 803.925 -209.53 803.925C-218.273 803.925 -218.522 803.925 -217.024 794.937C-215.025 783.453 -210.029 777.96 -198.039 774.465C-192.794 772.717 -186.549 769.222 -184.051 766.475C-179.305 761.232 -177.057 760.483 -174.559 762.98Z" fill="#0F64CD" fill-opacity="0.15"/>
<path d="M-111.612 483.104C-112.361 489.346 -114.859 498.334 -116.857 503.077C-118.855 507.821 -120.354 515.061 -120.354 519.306C-120.354 526.047 -118.855 527.545 -107.115 532.788C-84.8838 542.774 -72.8938 560.501 -72.8938 582.97C-72.8938 591.459 -71.6449 594.954 -67.898 597.201C-58.1561 603.193 -42.1695 630.906 -40.9205 643.889C-39.9213 654.625 -40.6707 656.872 -47.6649 664.611C-51.9113 669.605 -55.4084 675.597 -55.4084 678.093C-55.1586 682.088 -54.659 681.838 -51.9113 676.595C-49.913 673.1 -45.167 668.606 -41.1703 666.359C-36.674 663.862 -33.9263 660.117 -33.4268 655.873C-32.1778 646.136 -29.4301 647.384 -21.4367 660.866C-13.1936 675.097 2.29346 694.571 4.042 693.073C4.54159 692.324 2.79305 688.08 0.295128 683.586C-2.45258 679.092 -6.19946 671.352 -7.948 666.609C-9.69654 661.865 -17.6899 651.629 -25.4334 643.889C-34.6757 635.151 -40.4209 627.161 -41.6699 621.918C-42.669 617.424 -42.9188 613.43 -42.4193 612.93C-41.9197 612.431 -36.9238 613.43 -31.6782 615.427C-26.1828 617.424 -17.1903 618.922 -11.6949 618.922H-1.70321L-8.44758 615.427C-12.1945 613.18 -24.9338 609.185 -36.9238 605.94C-63.9013 599.199 -67.1486 595.454 -69.8963 569.239L-71.6449 550.514L-88.8805 539.029C-98.3726 532.538 -107.115 525.797 -108.364 524.049C-109.613 522.052 -109.863 509.818 -108.864 496.087C-107.365 470.621 -108.614 463.88 -111.612 483.104Z" fill="#0F64CD" fill-opacity="0.15"/>
<path d="M80.2284 567.991C77.9803 570.487 78.2301 571.985 81.7272 575.231C84.2251 577.478 86.9728 579.226 88.2218 579.226C89.2209 579.226 93.967 581.972 98.713 585.717C109.204 593.706 109.204 590.71 98.713 578.976C86.9728 565.993 83.7255 564.246 80.2284 567.991Z" fill="#0F64CD" fill-opacity="0.15"/>
<path d="M78.9795 585.967C80.4783 588.463 86.9729 595.454 93.4675 601.696C104.708 612.431 106.457 611.433 96.2152 599.948C93.4675 596.952 89.9704 591.709 88.4716 588.713C86.9729 585.467 83.4758 582.721 80.9779 582.222C77.4808 581.473 76.9812 582.222 78.9795 585.967Z" fill="#0F64CD" fill-opacity="0.15"/>
<path d="M200.628 611.682C202.127 619.672 201.128 621.419 189.637 632.904C182.643 639.645 176.898 646.386 176.898 647.884C177.148 649.132 180.145 646.885 183.892 642.891C187.639 638.646 193.634 633.403 197.131 631.156C204.875 626.163 207.622 614.429 202.377 607.688C199.379 603.443 199.129 603.943 200.628 611.682Z" fill="#0F64CD" fill-opacity="0.15"/>
<path d="M6.53983 615.927C4.04191 616.426 2.04358 617.924 2.04358 618.673C2.04358 619.672 16.2817 624.166 34.0169 628.909C69.7371 638.646 82.9761 644.389 100.961 658.62C123.942 676.845 126.939 677.594 161.91 676.845C187.639 676.346 184.891 671.602 158.663 671.602C137.431 671.602 126.939 667.358 110.203 651.379C95.2159 637.398 80.728 629.908 62.743 627.411C56.2484 626.662 45.2575 623.167 38.2634 619.921C26.5232 614.678 16.5315 613.18 6.53983 615.927Z" fill="#0F64CD" fill-opacity="0.15"/>
<path d="M605.79 636.399C599.545 640.644 589.554 645.138 583.559 646.636C577.564 648.134 566.573 653.377 558.58 658.12C550.836 662.864 534.849 671.103 522.859 676.596C501.627 686.333 471.902 703.06 444.425 721.036C437.181 725.78 417.697 735.766 401.211 743.506C372.485 756.489 370.487 756.988 355.499 755.74C344.009 754.491 338.763 755.24 334.517 757.987C327.023 763.479 328.022 767.973 335.765 762.98C341.511 758.985 343.009 758.985 353.75 762.481C368.738 767.474 374.983 765.726 406.457 748C419.695 740.51 442.427 728.526 456.914 721.785C471.652 714.794 492.385 703.06 503.126 695.57C514.117 688.33 537.597 674.848 555.582 665.61C581.81 652.378 590.803 649.132 599.795 649.132C619.779 649.132 623.026 658.869 611.036 682.338C604.292 695.82 606.789 696.319 615.033 683.337C626.023 666.859 629.021 629.159 619.529 629.159C618.28 629.159 612.285 632.405 605.79 636.399Z" fill="#0F64CD" fill-opacity="0.15"/>
<path d="M203.626 638.147C202.627 639.146 201.877 641.642 201.877 643.889C201.877 646.635 202.627 646.885 204.625 644.888C206.124 643.39 207.123 640.893 206.373 639.146C205.874 637.648 204.625 637.148 203.626 638.147Z" fill="#0F64CD" fill-opacity="0.15"/>
<path d="M199.629 653.876C197.131 655.374 197.131 656.373 199.379 657.871C202.627 659.868 205.374 658.12 204.125 654.375C203.376 652.877 201.627 652.628 199.629 653.876Z" fill="#0F64CD" fill-opacity="0.15"/>
<path d="M696.714 677.844C701.21 683.336 704.458 692.324 708.954 709.551C712.201 721.785 710.952 726.529 704.957 726.529C702.959 726.529 701.46 727.527 701.46 729.025C701.46 731.772 711.202 732.521 716.947 730.274C722.443 728.027 720.195 707.804 712.951 695.82C709.703 690.077 703.708 682.587 699.962 679.092C695.215 675.097 694.216 674.598 696.714 677.844Z" fill="#0F64CD" fill-opacity="0.15"/>
<path d="M10.2867 755.24C10.2867 761.981 10.7863 764.728 11.2859 760.733C11.7855 756.988 11.7855 751.495 11.2859 748.25C10.7863 745.254 10.2867 748.25 10.2867 755.24Z" fill="#0F64CD" fill-opacity="0.15"/>
<path d="M202.876 749.248C200.378 752.244 193.134 757.487 186.89 760.983C166.407 772.717 161.161 776.961 164.658 779.208C166.906 780.456 165.907 781.954 161.161 784.201C157.414 785.949 154.417 788.945 154.417 790.693C154.417 793.689 158.663 793.938 177.897 792.44C191.636 791.442 201.877 791.691 202.626 793.189C203.376 794.438 193.384 798.682 180.395 802.677C167.406 806.422 156.165 810.666 155.416 811.665C153.667 814.661 155.166 814.411 172.651 809.917C192.885 804.674 204.875 798.432 224.358 782.953C233.351 775.713 245.591 766.725 251.835 762.73C269.571 751.495 259.079 752.494 232.352 764.727C198.38 780.456 163.409 790.443 179.646 779.458C186.89 774.964 209.371 749.248 209.371 746.003C209.371 743.007 208.122 743.506 202.876 749.248Z" fill="#0F64CD" fill-opacity="0.15"/>
<path d="M133.184 772.467C118.696 783.203 88.4717 801.428 58.2469 817.906C44.5083 825.396 20.5283 846.368 25.7739 846.368C27.0229 846.368 30.7698 842.873 34.2669 838.878C38.5133 833.885 46.7564 828.892 58.2469 824.897C67.7389 821.402 80.4783 814.661 86.2235 809.917C92.2185 804.924 99.9621 800.43 103.709 799.93C112.951 798.183 125.441 789.445 140.678 773.965C155.666 758.736 153.168 758.236 133.184 772.467Z" fill="#0F64CD" fill-opacity="0.15"/>
<path d="M1.04456 793.19C-2.9521 805.174 -9.44669 821.652 -13.4434 829.891C-17.44 837.88 -20.1877 844.871 -19.4384 845.62C-18.9388 846.369 -16.4409 843.123 -13.9429 838.379C-11.6948 833.885 -7.19856 827.144 -4.20106 823.399C4.54165 813.163 10.0371 796.435 9.0379 783.203L8.28852 771.219L1.04456 793.19Z" fill="#0F64CD" fill-opacity="0.15"/>
<path d="M1774.32 101.864C1771.07 104.86 1747.09 112.35 1741.34 112.35C1738.6 112.35 1735.1 110.852 1733.1 109.104C1730.1 106.607 1730.1 106.857 1732.85 110.602C1735.85 114.347 1735.6 115.595 1732.1 119.34C1729.85 121.837 1728.1 126.081 1728.1 128.328C1728.1 130.825 1725.86 133.322 1723.11 134.071C1719.36 135.069 1718.61 136.817 1719.61 141.561C1721.11 146.554 1719.61 149.55 1712.12 156.291C1707.12 160.785 1703.13 166.278 1703.13 168.275C1703.13 170.272 1702.38 174.017 1701.38 176.514C1699.63 180.758 1699.88 180.758 1706.62 176.514C1710.37 174.017 1716.36 172.27 1720.11 172.519C1723.86 173.019 1728.35 172.519 1730.1 171.521C1738.85 166.028 1740.59 177.762 1733.1 192.243C1729.1 200.232 1728.1 206.973 1728.1 227.446C1728.1 248.418 1727.11 254.66 1722.86 263.398L1717.61 273.884L1722.86 294.856C1726.11 307.339 1731.35 320.821 1736.35 328.311C1746.34 343.291 1748.34 348.284 1746.59 353.278C1744.34 359.02 1737.85 357.772 1727.11 349.533C1713.87 339.546 1702.13 339.546 1682.14 350.032C1673.9 354.526 1661.41 364.013 1654.42 371.254C1645.67 380.242 1629.94 391.227 1601.96 407.206C1546.01 439.163 1525.02 453.893 1469.57 500.581C1404.12 555.507 1387.89 566.992 1365.41 574.232C1360.16 575.73 1350.42 582.222 1343.43 588.463C1330.19 600.198 1327.69 608.187 1334.93 614.429C1337.43 616.426 1338.43 619.921 1337.43 623.916C1336.68 627.411 1335.43 634.402 1334.68 639.146C1330.94 661.366 1332.68 659.868 1312.7 658.12C1296.71 656.622 1250.5 648.383 1177.31 633.902C1147.59 628.16 1122.36 627.911 1093.63 632.904C1063.66 638.147 1013.95 638.396 994.716 633.154C986.223 630.906 965.49 622.418 948.504 614.179C917.031 598.949 902.293 595.704 896.548 602.445C894.549 604.941 895.798 610.184 901.294 623.167C909.537 642.641 911.036 655.873 904.791 658.37C902.543 659.119 894.549 657.87 887.056 655.624C878.063 652.627 870.07 651.879 864.574 652.877C855.082 654.625 831.352 670.853 831.352 675.347C831.352 676.845 828.604 681.838 825.107 686.582C821.61 691.326 818.863 698.316 818.863 702.561C818.863 706.555 817.364 711.798 815.366 713.796C812.118 717.291 812.368 718.539 816.115 723.782C820.611 729.774 821.111 729.774 838.346 727.028C848.088 725.28 860.578 724.032 866.323 724.032C872.068 724.032 881.81 722.784 888.055 721.286C896.798 719.039 908.038 719.039 936.015 721.535C955.998 723.283 974.233 724.531 976.231 724.282C984.225 723.033 1023.19 721.036 1037.43 721.036C1054.17 720.786 1077.4 729.275 1106.12 746.252C1115.12 751.495 1125.11 756.738 1128.6 757.737C1132.1 758.736 1142.59 763.979 1151.83 769.471L1169.07 779.458L1189.8 776.462C1213.53 772.967 1231.52 774.714 1247.51 781.955C1255 785.2 1265.24 786.948 1279.23 787.198C1300.71 787.947 1304.46 789.195 1356.66 815.41C1365.91 820.154 1376.9 823.898 1381.14 823.898C1399.88 823.898 1433.35 859.85 1464.57 914.028C1475.32 932.503 1494.05 964.211 1506.04 984.933C1540.01 1043.36 1539.51 1040.61 1525.52 1080.56C1515.78 1108.77 1516.53 1110.02 1542.51 1113.26C1552.25 1114.51 1561.49 1116.26 1562.74 1117.01C1563.99 1117.76 1565.74 1125.74 1566.74 1134.73C1567.74 1143.72 1571.24 1161.7 1574.48 1174.68C1582.73 1205.64 1592.22 1263.56 1594.22 1293.27C1595.22 1306.25 1598.71 1330.47 1601.96 1346.95C1605.46 1364.43 1608.45 1391.39 1609.45 1411.86C1610.2 1431.09 1612.45 1459.05 1614.45 1474.28C1620.69 1524.96 1621.44 1557.17 1617.2 1579.89C1614.95 1591.37 1613.7 1601.86 1614.45 1603.11C1615.2 1604.11 1613.2 1611.6 1609.7 1619.58C1601.46 1639.31 1599.46 1651.04 1603.46 1658.03C1605.21 1661.28 1615.7 1673.01 1626.94 1684C1638.43 1695.48 1655.17 1715.46 1665.41 1730.94C1699.13 1781.12 1728.1 1808.83 1741.34 1803.59C1747.59 1801.34 1746.59 1797.85 1734.35 1777.62C1723.11 1758.4 1720.86 1751.41 1715.36 1711.46C1713.87 1698.98 1709.62 1680.75 1706.37 1670.52C1699.88 1650.04 1697.88 1627.07 1702.38 1622.58C1705.87 1619.09 1744.34 1613.09 1764.82 1612.84C1790.8 1612.84 1793.3 1604.85 1780.56 1562.41C1773.32 1537.69 1773.07 1536.2 1773.07 1482.02C1773.07 1428.34 1777.81 1353.94 1783.31 1320.73C1786.56 1300.51 1786.81 1260.07 1783.31 1242.84C1782.06 1235.6 1780.31 1217.87 1779.31 1203.39C1778.56 1188.91 1776.06 1169.94 1774.07 1160.95C1759.08 1094.29 1755.33 1071.57 1755.83 1049.6C1756.33 1030.87 1755.58 1024.63 1750.59 1012.9C1745.34 1000.16 1745.09 997.666 1747.84 985.682C1752.08 966.458 1761.58 947.234 1769.57 942.24C1774.57 938.745 1781.81 937.497 1798.3 937.247C1825.02 936.997 1830.27 934.001 1840.51 913.778C1854.75 885.816 1848.5 854.108 1824.77 831.638C1819.28 826.645 1814.03 820.154 1812.78 816.908C1810.79 811.415 1810.29 811.415 1805.04 814.911C1802.04 817.158 1795.05 818.905 1790.05 818.905C1782.06 818.905 1780.06 819.904 1778.06 825.396C1776.56 828.892 1776.31 834.385 1777.06 837.38C1778.81 844.371 1773.82 901.295 1770.32 915.027C1768.82 920.519 1764.82 929.507 1761.08 935C1757.58 940.493 1749.34 955.223 1743.09 967.706C1727.85 997.916 1714.12 1019.64 1701.88 1032.62C1684.39 1050.85 1658.41 1053.34 1631.43 1039.61C1615.7 1031.37 1604.96 1019.64 1610.45 1016.39C1612.2 1015.14 1621.69 1013.64 1631.43 1012.9C1663.91 1010.4 1682.64 1000.66 1695.88 979.69C1702.13 969.454 1725.11 900.047 1728.35 881.571C1729.6 873.832 1733.85 858.352 1737.6 846.868C1745.59 821.901 1744.84 819.904 1723.36 811.915C1714.62 808.419 1708.12 804.425 1708.12 802.427C1708.12 800.18 1705.12 798.932 1699.13 798.932C1686.14 798.932 1682.64 795.936 1674.4 779.208C1670.4 770.72 1666.41 763.979 1665.41 763.979C1662.41 763.979 1649.17 793.439 1645.92 807.421C1644.17 813.912 1641.18 829.141 1639.18 841.125C1632.43 880.822 1618.45 928.758 1598.46 981.937C1578.23 1036.11 1570.24 1062.33 1566.99 1085.55C1565.99 1093.29 1563.74 1099.53 1561.74 1100.28C1555.75 1102.53 1535.27 1097.53 1532.27 1093.04C1530.27 1089.79 1531.52 1082.05 1537.51 1060.58C1543.76 1038.61 1545.51 1027.88 1545.26 1012.4C1545.01 997.417 1546.26 989.427 1550 979.94C1553 972.949 1560.49 954.973 1566.74 939.993C1584.22 898.299 1591.47 869.587 1592.22 840.127C1592.97 800.43 1596.46 785.949 1612.2 759.485C1621.94 743.256 1628.94 734.518 1635.68 730.274C1651.67 720.037 1651.17 715.793 1630.44 682.837C1624.19 672.85 1617.45 665.61 1610.95 662.115C1596.96 654.125 1593.22 647.884 1593.22 632.405C1593.22 622.418 1594.47 617.924 1598.96 613.18C1601.96 609.935 1606.46 604.692 1608.95 601.696C1616.2 592.957 1621.69 596.203 1623.94 610.684C1625.69 621.669 1628.44 626.163 1645.67 645.637C1656.41 657.87 1666.16 670.853 1666.91 674.598C1668.9 683.087 1676.9 689.079 1686.39 689.079C1701.38 689.079 1715.61 704.059 1715.61 719.788C1715.61 724.781 1718.11 727.278 1729.1 732.521C1736.6 736.266 1746.34 743.256 1750.59 748C1759.33 758.236 1771.57 763.979 1784.06 763.979C1788.8 763.979 1794.55 765.726 1796.8 767.973C1799.05 770.22 1805.29 772.467 1810.79 772.717C1824.02 773.466 1827.27 776.712 1823.27 785.7C1820.78 791.192 1822.28 790.194 1829.77 781.455C1835.02 775.463 1851.75 755.989 1866.74 738.513C1891.72 709.801 1895.21 704.558 1905.21 680.34C1915.95 654.375 1916.7 653.376 1928.94 646.885C1952.42 634.651 1962.66 622.418 1984.89 581.223C1996.38 560.251 2011.87 535.784 2019.36 526.796C2033.1 510.318 2037.35 500.581 2043.34 471.12C2046.34 456.64 2046.34 456.14 2037.85 439.912C2026.61 418.94 2014.62 406.956 1999.13 401.463C1992.13 398.967 1978.15 391.477 1967.4 384.486C1947.92 371.753 1947.17 371.004 1934.18 340.045C1929.94 330.059 1929.19 329.559 1919.19 329.559C1896.71 329.559 1888.47 311.833 1902.71 294.606C1906.46 289.862 1912.95 279.626 1916.7 272.136L1923.69 258.405L1920.69 233.438C1915.95 195.239 1898.96 148.302 1884.97 135.818C1867.24 119.59 1835.51 107.356 1804.29 104.86C1793.3 103.861 1782.56 102.363 1780.56 101.365C1778.31 100.366 1775.56 100.865 1774.32 101.864ZM1830.77 153.794C1843.51 159.537 1845.51 161.284 1845.51 167.276C1845.51 171.021 1847.75 176.015 1850.5 178.511C1853.25 181.008 1855.5 186.001 1855.5 189.497C1855.5 192.992 1856.5 197.736 1857.75 199.483C1859.24 201.73 1859.24 204.976 1857.75 207.722C1854.25 214.214 1851 213.215 1852.5 205.725C1853.5 200.232 1850 190.745 1838.26 167.276C1837.26 165.279 1832.52 161.035 1828.02 157.789C1821.28 153.295 1816.28 152.296 1799.54 152.047C1785.56 151.797 1781.31 151.298 1785.56 149.8C1798.55 145.555 1815.78 147.053 1830.77 153.794ZM1760.58 159.786C1754.58 164.53 1750.59 166.028 1750.59 163.531C1750.59 162.283 1763.32 155.043 1765.57 155.043C1766.32 155.043 1764.07 157.04 1760.58 159.786ZM1881.23 233.688C1881.98 234.686 1879.98 240.928 1876.48 247.669C1872.98 254.66 1869.74 259.653 1868.99 258.904C1868.49 258.405 1869.24 252.163 1870.74 244.923C1873.23 233.438 1876.98 229.443 1881.23 233.688ZM1823.03 309.336C1818.28 318.324 1795.05 336.55 1785.31 339.047C1773.32 342.043 1772.82 340.794 1783.81 336.051C1788.3 334.303 1799.29 326.314 1807.79 318.574C1816.53 310.834 1824.02 304.593 1824.77 304.593C1825.27 304.593 1824.52 306.84 1823.03 309.336ZM1927.69 355.275C1930.69 361.267 1932.93 370.255 1932.93 375.248C1932.93 383.238 1931.18 385.485 1914.7 398.967C1904.71 407.206 1884.72 426.18 1870.24 441.16L1844.01 468.624L1837.26 456.39C1830.77 444.905 1830.52 443.407 1834.02 438.164C1836.01 434.919 1842.51 428.427 1848.5 423.684C1861.49 412.948 1913.2 356.523 1916.45 349.533C1919.69 342.292 1921.94 343.291 1927.69 355.275ZM1725.61 368.258C1733.85 375.748 1740.09 381.989 1739.59 381.989C1736.85 381.989 1709.12 368.258 1707.87 366.26C1705.87 363.264 1689.64 368.507 1685.64 373.251C1683.89 375.248 1683.14 378.744 1684.14 380.741C1685.14 383.737 1684.14 384.236 1679.39 382.988C1674.15 381.74 1673.15 382.239 1673.15 387.482C1673.15 394.722 1684.14 405.957 1693.88 408.204C1701.63 410.202 1705.37 414.446 1699.38 414.446C1692.63 414.446 1682.39 407.955 1670.9 396.22C1656.16 380.991 1657.66 375.498 1678.9 363.514C1701.13 350.781 1707.37 351.53 1725.61 368.258ZM1703.37 398.967C1701.63 399.466 1697.63 397.469 1694.63 394.473L1689.39 388.98L1698.13 393.474C1703.37 395.971 1705.62 398.218 1703.37 398.967ZM1772.82 408.204C1777.06 413.198 1780.56 418.191 1780.56 419.19C1780.56 421.686 1774.32 424.433 1768.82 424.433C1765.82 424.433 1765.57 423.684 1767.82 421.187C1769.82 418.441 1768.82 415.445 1763.08 407.955C1759.08 402.712 1755.58 397.219 1755.58 396.22C1755.58 392.725 1764.82 399.216 1772.82 408.204ZM1967.9 415.694C1967.9 416.194 1962.66 420.188 1956.16 424.682C1940.43 435.168 1925.44 449.399 1925.44 453.893C1925.44 455.891 1926.94 456.889 1928.69 456.14C1930.19 455.391 1935.93 453.144 1941.18 450.897C1954.42 445.155 1952.67 447.651 1937.18 456.39C1927.69 461.633 1919.69 469.372 1909.7 482.854C1901.96 493.091 1895.46 503.077 1895.46 505.075C1895.46 506.822 1892.72 510.817 1889.22 513.813C1881.73 520.304 1881.73 521.053 1886.97 534.286C1889.22 540.028 1890.47 545.021 1889.72 545.77C1888.97 546.769 1886.47 543.024 1884.22 538.031C1879.23 525.797 1876.98 528.294 1877.23 546.27C1877.48 557.505 1877.23 559.003 1875.48 553.011C1874.48 548.766 1873.48 542.275 1873.23 538.53C1872.73 525.547 1865.74 515.061 1854.25 509.569C1848.25 506.822 1840.76 500.581 1837.51 496.087C1834.27 491.593 1824.02 480.857 1814.28 472.618C1804.79 464.379 1794.55 455.141 1792.05 452.146C1784.56 443.906 1783.06 444.406 1745.84 462.631C1735.35 467.875 1733.6 473.367 1739.59 483.853C1743.84 491.094 1744.84 495.837 1743.59 506.323L1742.34 519.805L1756.08 533.786C1763.57 541.776 1771.32 551.762 1773.07 556.256C1774.82 560.75 1783.56 570.987 1792.3 579.226C1801.29 587.215 1811.78 599.199 1815.78 605.441C1819.78 611.682 1824.02 616.676 1825.27 616.676C1826.52 616.676 1830.27 620.92 1833.27 625.913C1836.51 631.156 1840.01 636.899 1841.26 638.396C1847.01 647.385 1839.26 639.146 1822.78 619.172C1811.28 605.191 1796.3 590.71 1783.56 580.973C1763.08 565.744 1739.1 538.031 1728.1 517.059C1725.61 512.065 1720.11 504.825 1715.86 501.08C1701.63 487.848 1706.62 476.862 1737.35 452.645C1752.08 441.16 1775.07 431.923 1789.8 431.923C1796.05 431.923 1798.05 433.421 1801.79 441.909C1804.29 447.402 1808.79 453.394 1812.03 455.641C1815.28 457.638 1820.53 464.13 1823.52 470.121C1826.77 475.864 1836.26 487.349 1844.76 495.338C1857 506.822 1861.99 509.818 1868.74 510.068C1884.47 510.567 1896.21 498.084 1914.2 462.382C1922.94 444.656 1932.93 433.92 1952.67 421.437C1963.16 414.945 1967.9 412.948 1967.9 415.694ZM1757.08 425.681C1751.58 429.925 1743.09 430.674 1743.09 427.179C1743.09 425.681 1746.84 424.183 1751.33 423.684C1755.58 423.184 1759.83 422.685 1760.58 422.435C1761.33 422.186 1759.58 423.684 1757.08 425.681ZM1621.94 454.143C1620.94 464.629 1619.44 481.606 1618.45 491.842L1616.7 510.567L1614.7 488.846C1612.2 461.882 1615.95 430.175 1621.19 433.421C1622.94 434.669 1623.19 441.66 1621.94 454.143ZM1658.16 473.617C1658.16 477.611 1660.66 487.598 1663.66 496.336C1670.15 514.812 1668.9 518.557 1654.42 523.55C1642.43 527.545 1628.94 540.028 1624.19 551.013C1622.19 555.507 1620.69 564.246 1620.69 570.487C1620.69 580.224 1619.44 583.22 1610.95 592.208C1587.97 616.426 1580.98 642.391 1593.47 655.873C1600.46 663.363 1604.46 671.602 1600.96 671.602C1599.71 671.602 1598.21 669.355 1597.46 666.359C1596.71 663.613 1592.72 660.117 1588.47 658.37C1583.23 656.622 1580.48 653.376 1579.48 648.633C1578.48 644.888 1576.98 641.642 1576.23 641.642C1575.23 641.642 1570.74 647.634 1566.49 654.625C1562.24 661.865 1554.5 672.351 1549.5 677.844L1540.26 687.83L1546.51 676.595C1549.75 670.354 1554 661.116 1555.5 656.123C1557.25 650.88 1562.24 643.889 1566.49 640.394C1581.73 628.16 1584.47 624.915 1587.72 615.677C1591.97 604.442 1590.72 602.694 1581.48 606.19C1572.23 609.685 1550.5 611.682 1552.25 608.936C1553.25 606.939 1566.74 602.694 1597.71 594.206C1610.7 590.71 1614.7 583.72 1617.2 558.254L1618.95 541.526L1635.93 530.541C1645.17 524.549 1654.17 517.059 1655.66 514.063C1658.66 508.82 1658.16 497.585 1654.17 474.865C1653.17 469.872 1653.67 466.876 1655.41 466.876C1656.91 466.876 1658.16 469.872 1658.16 473.617ZM1609.95 540.028C1606.46 544.522 1600.71 551.263 1596.96 555.507C1590.97 562.248 1590.72 562.498 1593.47 556.756C1598.21 546.519 1614.2 526.296 1615.2 529.292C1615.7 530.79 1613.2 535.534 1609.95 540.028ZM1581.98 544.272C1582.98 545.77 1584.47 546.27 1585.72 545.521C1588.22 544.023 1590.22 565.993 1587.72 570.487C1584.72 575.73 1575.73 571.985 1575.73 565.494C1575.73 562.248 1577.23 559.252 1578.98 558.503C1580.98 557.754 1580.23 555.258 1576.23 549.515C1570.74 542.025 1570.74 541.776 1575.48 541.776C1578.23 541.776 1581.23 543.024 1581.98 544.272ZM1739.34 556.007C1742.34 568.74 1756.33 586.216 1768.82 592.957C1777.31 597.701 1780.56 600.947 1780.56 604.941C1780.31 617.425 1777.56 617.674 1755.33 608.437C1743.84 603.443 1731.35 598.7 1727.35 597.701C1723.61 596.952 1720.11 595.454 1719.36 594.455C1718.86 593.457 1719.61 585.218 1721.11 576.23C1723.36 563.746 1725.11 559.252 1728.6 558.503C1731.1 557.754 1733.1 555.008 1733.1 551.762C1733.1 544.772 1737.1 547.518 1739.34 556.007ZM1465.32 561.499C1467.82 562.997 1464.57 566.243 1453.58 573.733C1439.84 582.971 1438.6 583.22 1443.09 577.228C1449.59 567.991 1458.08 559.252 1460.33 559.252C1461.33 559.252 1463.57 560.251 1465.32 561.499ZM1880.48 585.218C1881.98 591.709 1881.73 593.956 1879.98 592.208C1878.48 590.71 1876.98 584.219 1876.48 577.478C1875.73 565.494 1876.73 567.242 1880.48 585.218ZM1468.32 574.482C1468.32 575.98 1462.58 582.971 1455.58 589.961C1444.84 600.697 1444.09 601.196 1450.59 592.957C1454.83 587.465 1458.33 581.972 1458.33 580.474C1458.33 577.228 1463.33 571.736 1466.32 571.736C1467.32 571.736 1468.32 572.984 1468.32 574.482ZM1650.42 621.17C1651.92 624.166 1656.41 627.411 1660.16 628.16C1669.15 630.407 1677.15 637.897 1685.14 652.128C1688.89 658.869 1692.63 664.112 1693.38 664.112C1694.38 664.112 1692.38 655.624 1689.14 645.387C1682.89 625.913 1681.64 617.425 1685.64 624.415C1690.14 632.155 1703.62 671.602 1702.63 674.348C1701.63 677.594 1691.63 667.857 1675.65 648.134C1668.9 639.895 1662.41 634.152 1659.41 634.152C1651.42 633.902 1648.42 630.906 1643.42 617.674C1639.43 607.188 1639.18 603.693 1641.68 593.207L1644.42 580.973L1645.92 598.45C1646.92 608.187 1648.92 618.423 1650.42 621.17ZM1345.42 603.194C1343.67 606.939 1341.93 608.437 1341.43 606.939C1340.93 605.191 1341.93 602.445 1343.43 600.447C1347.92 594.955 1348.67 595.953 1345.42 603.194ZM1542.01 608.936C1546.26 610.684 1545.26 611.433 1535.76 613.929C1529.52 615.677 1517.28 619.172 1508.54 621.919C1499.79 624.415 1490.55 626.662 1487.8 626.662C1481.81 626.662 1456.08 641.392 1442.09 652.877C1424.86 666.859 1419.36 668.356 1391.63 668.606C1377.4 668.606 1365.91 667.607 1365.91 666.359C1365.91 665.111 1374.4 664.112 1384.64 664.112C1407.87 664.112 1417.36 660.367 1434.85 644.389C1450.84 629.908 1465.32 622.418 1482.06 619.921C1489.05 619.172 1500.29 615.677 1507.04 612.431C1519.53 606.689 1532.77 605.441 1542.01 608.936ZM1349.67 618.174C1353.67 624.415 1353.67 624.415 1348.67 621.669C1345.67 620.171 1343.43 617.425 1343.43 615.427C1343.43 610.184 1344.67 610.684 1349.67 618.174ZM941.011 628.909C947.505 632.904 958.996 637.897 966.739 640.144C974.233 642.141 983.475 646.386 986.972 649.132C990.469 652.128 1006.21 660.367 1021.69 667.607C1037.18 675.097 1062.91 689.079 1078.65 698.816C1094.38 708.802 1121.36 723.782 1138.6 732.271C1169.07 747.251 1170.32 747.501 1190.3 747.75C1203.04 747.75 1212.03 748.999 1213.78 750.746C1218.28 755.24 1214.53 757.987 1209.79 753.992C1206.54 751.246 1203.29 751.246 1192.55 753.992C1175.32 757.987 1170.07 756.738 1139.84 739.262C1126.11 731.522 1102.88 719.288 1088.39 712.298C1073.65 705.307 1052.42 693.073 1040.93 685.334C1019.94 671.103 966.24 643.64 952.751 640.644C949.004 639.645 942.01 640.144 937.264 641.642C930.02 644.139 928.771 645.637 928.771 652.378C928.771 656.872 931.519 666.359 935.016 673.35C938.263 680.59 940.761 686.582 940.261 686.582C939.762 686.582 936.015 681.339 931.768 674.598C926.023 665.61 923.775 658.62 922.526 644.888C920.028 618.923 922.027 617.175 941.011 628.909ZM1342.68 634.651C1341.93 636.649 1341.18 635.9 1341.18 633.154C1340.93 630.407 1341.68 628.909 1342.43 629.908C1343.18 630.657 1343.43 632.904 1342.68 634.651ZM1366.16 635.9C1369.4 639.895 1369.15 640.144 1365.41 636.899C1362.91 635.151 1360.91 633.154 1360.91 632.654C1360.91 630.657 1362.91 631.905 1366.16 635.9ZM1347.17 646.635C1347.92 647.884 1346.92 649.132 1344.67 649.132C1342.43 649.132 1341.43 647.884 1342.18 646.635C1342.93 645.137 1344.17 644.139 1344.67 644.139C1345.17 644.139 1346.42 645.137 1347.17 646.635ZM1796.8 651.629C1790.8 670.354 1798.05 706.056 1808.79 711.798C1813.53 714.545 1813.78 714.045 1812.53 701.812C1811.53 691.076 1811.78 689.079 1814.78 690.077C1816.78 691.076 1819.53 691.575 1821.03 691.575C1822.53 691.575 1822.03 693.573 1819.78 695.82C1817.78 698.316 1815.53 703.559 1815.03 707.804C1814.28 714.295 1813.28 715.294 1807.54 714.545C1801.54 714.045 1800.79 714.794 1800.04 722.035L1799.29 730.274L1793.8 722.534C1790.8 718.539 1787.55 711.798 1786.81 707.554C1785.06 700.314 1785.06 700.314 1790.8 709.052C1797.8 720.037 1799.54 715.793 1794.55 698.816C1788.55 679.342 1789.55 646.635 1796.05 646.635C1797.3 646.635 1797.55 648.882 1796.8 651.629ZM1859.24 654.125C1866.24 659.618 1871.48 661.615 1878.98 661.615C1888.47 661.865 1888.97 662.115 1884.47 665.36C1876.48 671.352 1868.74 669.854 1858 660.117C1852.5 655.124 1848 650.131 1848 648.882C1848 645.637 1849 645.886 1859.24 654.125ZM1778.31 680.84C1783.31 692.075 1784.81 698.067 1783.06 699.065C1781.06 700.314 1780.81 706.555 1782.06 718.789C1783.56 735.017 1783.31 736.515 1779.06 736.515C1775.56 736.515 1777.56 739.761 1786.81 749.498L1799.29 762.231L1783.56 751.495C1774.82 745.503 1764.82 737.264 1761.58 733.27C1755.08 725.53 1742.09 701.812 1743.59 700.314C1744.09 699.814 1750.59 706.555 1758.08 715.543C1765.57 724.282 1773.07 731.522 1774.82 731.522C1779.56 731.522 1778.81 717.79 1773.07 693.573C1764.82 659.369 1766.57 654.875 1778.31 680.84ZM844.341 678.343C840.095 686.832 837.847 695.071 835.848 710.051C835.349 713.296 837.347 716.292 841.344 718.29C847.339 721.286 847.339 721.535 837.097 721.535H826.606L827.605 709.302C828.604 696.069 831.102 690.077 840.844 677.095C848.838 666.609 850.087 666.859 844.341 678.343ZM1609.95 708.303C1609.2 710.8 1608.7 708.802 1608.7 704.059C1608.7 699.315 1609.2 697.318 1609.95 699.565C1610.45 702.061 1610.45 706.056 1609.95 708.303ZM1537.01 744.005C1536.01 748.25 1534.77 751.246 1534.02 750.497C1533.27 749.997 1533.52 745.753 1534.52 741.509C1535.51 737.264 1536.76 734.268 1537.51 735.017C1538.26 735.517 1538.01 739.761 1537.01 744.005ZM1349.42 746.252C1350.17 747.251 1358.16 752.494 1367.16 757.737C1376.65 763.479 1383.14 768.722 1382.39 770.47C1381.64 772.218 1384.14 775.713 1387.89 778.21L1394.63 782.704L1365.91 783.952C1338.68 785.2 1336.68 784.951 1329.69 779.458C1325.69 776.462 1313.95 767.973 1303.96 760.733C1293.97 753.742 1286.97 747.501 1288.47 747.001C1289.72 746.502 1301.96 751.246 1315.45 757.238C1336.93 767.224 1362.66 776.462 1369.15 776.462C1370.4 776.462 1366.16 771.469 1359.91 765.227C1353.67 758.985 1346.17 750.247 1343.18 746.003C1337.68 738.513 1337.68 738.513 1342.93 741.259C1345.67 742.757 1348.67 745.004 1349.42 746.252ZM1423.36 771.718C1445.59 786.199 1492.55 813.912 1495.05 813.912C1498.55 813.912 1515.53 828.892 1518.53 834.634C1520.03 838.129 1518.78 837.131 1515.03 832.387C1511.53 828.143 1503.79 822.9 1497.8 820.403C1473.32 810.167 1466.07 806.422 1457.58 799.182C1452.83 794.937 1446.84 791.442 1444.09 791.442C1437.1 791.442 1418.86 778.709 1405.87 765.227C1393.63 752.244 1393.38 751.995 1423.36 771.718ZM1560.24 823.15C1568.74 839.378 1566.74 838.379 1554 819.654C1542.01 802.178 1535.76 784.451 1536.01 768.972C1536.01 761.981 1537.76 764.977 1545.51 786.449C1550.75 800.929 1557.25 817.407 1560.24 823.15ZM1368.9 795.437C1380.39 799.182 1388.14 802.677 1386.39 803.176C1382.89 804.425 1351.92 795.437 1345.92 791.442C1339.43 787.198 1347.17 788.696 1368.9 795.437ZM1714.12 865.343C1717.61 876.079 1717.61 878.326 1713.62 893.555L1709.37 910.033L1708.12 900.296C1707.12 891.558 1706.62 890.809 1703.37 894.804C1701.38 897.051 1698.38 905.29 1696.88 913.279L1693.63 927.51L1693.38 913.279C1693.13 895.303 1688.89 875.08 1684.64 871.585C1682.39 869.587 1677.9 870.336 1668.65 874.331C1656.16 879.574 1650.92 879.574 1654.42 874.081C1655.17 872.583 1659.16 871.335 1663.16 871.335C1667.16 871.335 1670.9 870.336 1671.9 869.088C1672.65 867.84 1676.65 866.092 1680.64 865.093C1686.14 863.845 1688.14 861.848 1688.39 858.103C1688.64 853.109 1688.89 853.109 1690.64 858.852C1691.63 862.347 1692.63 868.589 1692.88 872.833C1693.13 877.077 1694.88 882.071 1696.88 883.818C1703.62 889.311 1706.87 882.82 1706.37 866.092C1705.62 848.865 1708.37 848.615 1714.12 865.343ZM1835.51 885.067C1835.51 890.809 1833.02 895.303 1825.02 902.543C1815.53 911.531 1815.28 911.781 1821.28 904.291C1830.27 893.056 1832.27 884.817 1827.02 879.075C1824.02 875.579 1823.77 874.081 1826.27 871.585C1830.27 867.59 1835.51 874.83 1835.51 885.067ZM1707.37 924.264C1706.62 926.262 1705.87 925.513 1705.87 922.766C1705.62 920.02 1706.37 918.522 1707.12 919.521C1707.87 920.27 1708.12 922.517 1707.37 924.264ZM1767.82 1239.84C1769.82 1251.83 1770.07 1259.82 1768.57 1261.31C1767.07 1262.81 1765.57 1256.57 1764.57 1244.59C1763.57 1234.1 1762.08 1223.86 1761.33 1221.62C1760.33 1219.12 1760.83 1218.12 1762.33 1219.12C1763.82 1220.12 1766.32 1229.36 1767.82 1239.84ZM1768.82 1278.29C1771.32 1288.28 1768.07 1295.02 1726.36 1360.68C1717.61 1374.16 1716.36 1377.41 1710.37 1399.38L1705.62 1416.86L1707.12 1400.63C1710.12 1369.42 1727.11 1328.22 1741.59 1316.99C1749.84 1310.75 1757.83 1297.02 1754.83 1294.27C1754.08 1293.27 1745.09 1296.52 1735.1 1301.51C1725.11 1306.25 1708.12 1314.24 1697.63 1319.24C1687.14 1324.23 1677.65 1329.47 1676.9 1330.72C1676.15 1332.22 1674.4 1333.22 1672.9 1333.22C1671.65 1333.22 1674.9 1328.72 1679.89 1322.98C1689.39 1312.99 1709.37 1300.76 1716.86 1300.76C1722.36 1300.76 1747.84 1287.28 1756.83 1279.79C1766.07 1272.05 1767.07 1272.05 1768.82 1278.29ZM1758.08 1488.01C1758.08 1490.76 1757.08 1493 1755.58 1493C1754.33 1493 1753.08 1490.76 1753.08 1488.01C1753.08 1485.26 1754.33 1483.02 1755.58 1483.02C1757.08 1483.02 1758.08 1485.26 1758.08 1488.01ZM1767.07 1573.4C1769.57 1594.12 1767.32 1599.61 1756.08 1602.61C1751.09 1604.11 1739.1 1605.85 1729.35 1606.6C1719.86 1607.6 1703.37 1609.85 1693.13 1612.09C1682.39 1614.09 1670.65 1614.84 1665.66 1613.84L1656.91 1612.09L1664.41 1610.1C1668.65 1608.85 1683.64 1606.85 1698.13 1605.35C1712.62 1603.86 1729.35 1601.11 1735.6 1599.11C1741.84 1597.36 1750.09 1594.87 1754.08 1593.62C1764.07 1590.87 1766.07 1583.88 1760.58 1568.4C1758.08 1561.16 1755.33 1546.18 1754.33 1534.7L1752.83 1514.23L1759.08 1536.7C1762.58 1548.93 1766.07 1565.66 1767.07 1573.4ZM1623.69 1627.57C1621.44 1631.57 1619.2 1634.56 1618.7 1634.32C1617.2 1632.57 1623.19 1620.33 1625.44 1620.33C1626.94 1620.33 1625.94 1623.58 1623.69 1627.57ZM1637.93 1672.01C1642.18 1679.75 1645.67 1687.24 1645.67 1688.49C1645.67 1692.49 1638.43 1685.25 1636.68 1679.5C1635.93 1676.51 1630.69 1670.02 1625.44 1665.02C1620.19 1660.03 1615.7 1654.04 1615.7 1651.54C1615.7 1643.8 1629.69 1656.79 1637.93 1672.01ZM1698.13 1746.91C1698.13 1748.66 1699.88 1750.16 1702.13 1750.16C1705.37 1750.16 1705.87 1748.41 1704.87 1742.67C1702.88 1733.43 1707.37 1730.19 1709.62 1739.42C1714.12 1760.15 1716.36 1765.89 1724.61 1777.62C1729.6 1784.61 1732.85 1791.11 1732.1 1792.1C1728.1 1795.85 1680.64 1737.93 1680.64 1729.19C1680.64 1727.94 1684.64 1730.44 1689.39 1735.18C1694.13 1739.92 1698.13 1745.17 1698.13 1746.91Z" fill="#0F64CD" fill-opacity="0.15"/>
</svg>
