<svg width="167" height="243" viewBox="0 0 167 243" fill="none" xmlns="http://www.w3.org/2000/svg">
<g id="vecteezy_karate-logo-vector-illustration_7933754 1" clip-path="url(#clip0_30_122)">
<g id="Group">
<path id="Vector" d="M73.4158 0.278412C72.6551 0.645447 71.4254 1.80983 70.8549 2.69576C70.5887 3.10075 70.221 3.83482 70.0309 4.34108C69.8534 4.84732 69.2829 6.02435 68.7631 6.96092C67.3686 9.53014 67.115 10.1376 66.5699 12.2386C66.0121 14.3648 65.6951 15.0609 63.7555 18.4275C61.9172 21.6042 61.9172 21.6295 61.2326 27.135C60.9918 29.1473 61.0044 29.7422 61.2833 29.7422C61.3594 29.7422 61.7271 29.1726 62.0947 28.4765C62.7032 27.3122 62.9441 26.9831 63.0709 27.1097C63.0962 27.135 62.868 28.3247 62.5511 29.7422C61.6763 33.7036 61.4735 35.0704 61.5115 36.6525C61.5622 38.4623 61.7397 38.475 62.3736 36.7284C62.6398 36.007 62.8807 35.3869 62.9187 35.3615C63.0075 35.2729 63.0582 35.564 63.5907 38.7661C63.9963 41.2467 64.0978 41.639 64.2626 41.5631C64.8457 41.3226 64.8584 41.3353 65.2768 42.525C65.8219 44.0184 66.0501 44.0311 66.2656 42.6009C66.3544 42.0567 66.4431 41.5884 66.4685 41.5631C66.4938 41.5378 66.646 41.9428 66.7981 42.4617C67.1784 43.778 67.9137 45.3473 68.1039 45.284C68.2053 45.2461 68.3321 44.8158 68.4081 44.2842C68.4842 43.7653 68.5603 43.3223 68.5729 43.2844C68.649 43.1072 68.9533 44.183 68.9533 44.6512C68.9659 45.2587 68.8011 45.4612 67.5461 46.4737C66.8995 47.0053 64.2245 50.1314 63.4258 51.3211C62.7666 52.2956 62.4116 53.0044 62.044 54.0801C61.7017 55.1053 61.6256 55.6115 60.472 65.1164C60.2945 66.4959 60.1043 72.6342 60.0156 79.785C59.9268 85.4297 60.0283 87.3281 60.472 89.2012C60.9157 91.0617 61.9806 94.0739 62.5131 94.9598C63.2484 96.2001 63.2864 96.7823 62.7413 98.5415C62.3609 99.7692 62.3102 100.073 62.3229 101.313C62.3356 103.148 62.4243 103.389 63.971 105.54C64.1358 105.781 64.3893 106.376 64.5415 106.869C64.6809 107.363 64.9472 107.983 65.112 108.236C65.4796 108.806 66.4304 109.375 67.3812 109.603C67.7616 109.692 68.0785 109.844 68.0785 109.932C68.0785 110.021 67.8757 110.565 67.6221 111.147C66.6967 113.286 66.5319 113.818 66.4178 115.147C66.2529 116.994 66.0501 117.323 63.654 119.779C60.3325 123.196 59.9015 123.74 57.5688 127.613C54.4628 132.764 52.9035 135.776 51.4075 139.535C50.9384 140.712 49.7214 143.598 48.7072 145.927C45.7787 152.698 45.7407 152.824 46.0703 153.647C46.1844 153.925 46.2731 154.457 46.2731 154.811C46.2731 155.406 46.1463 155.672 44.7898 158.064C41.481 163.924 40.8091 164.924 39.6174 165.822C39.2371 166.113 38.6159 166.417 38.0961 166.569C35.4338 167.366 34.7112 167.822 33.9125 169.201C33.1772 170.48 32.3531 171.239 31.022 171.872C30.0332 172.34 29.8937 172.467 28.6133 173.935C26.0904 176.846 25.2664 178.01 21.2856 184.275C20.4236 185.629 19.0037 187.768 18.1036 189.021C15.7075 192.413 14.8708 193.97 14.389 195.982C14.0975 197.172 10.4463 206.322 9.93922 207.132C9.7237 207.487 9.15321 208.107 8.68414 208.524C6.95999 210.043 5.8824 211.65 5.21049 213.751C4.69071 215.346 4.37377 215.84 2.99191 217.207C1.49596 218.687 0.988859 219.662 0.633887 221.712C0.557822 222.142 0.380336 222.851 0.25356 223.269C-0.0507011 224.218 -0.0633787 224.788 0.20285 225.307C0.431046 225.737 2.99191 228.357 3.62579 228.787C4.1836 229.192 5.17245 229.546 7.0107 230.04C8.39256 230.407 8.70949 230.445 9.16589 230.344C9.93922 230.167 11.0295 230.192 11.7141 230.394C12.0564 230.496 12.7029 230.837 13.172 231.154C14.7694 232.217 15.6695 232.217 16.8231 231.179C17.3936 230.66 17.4317 230.597 17.419 229.989C17.419 229.319 17.3049 229.116 15.0483 225.61C14.5158 224.788 14.0087 223.876 13.9326 223.585C13.7552 222.952 13.8566 221.155 14.1862 218.877C14.4524 217.105 14.782 215.992 15.2384 215.333C15.4666 215.017 19.8531 209.537 20.2841 209.056C20.3221 208.993 20.8926 209.625 21.5519 210.435C24.3029 213.84 26.4074 215.675 29.9698 217.776C31.2629 218.535 31.6939 218.599 32.6574 218.194C34.521 217.396 35.8521 216.105 39.123 211.942C42.4572 207.689 43.9531 206.018 50.9004 198.83C53.5881 196.045 54.0698 195.476 60.4086 187.376C68.0024 177.694 69.3589 176.023 73.6059 171.112C75.254 169.201 76.4711 168.037 76.6232 168.214C76.6485 168.24 76.7373 168.809 76.8134 169.467C77.0923 171.682 77.5106 172.644 78.4361 173.264C78.8544 173.555 79.0192 173.58 80.1095 173.568C83.5958 173.517 90.5051 172.391 95.2592 171.1C100.216 169.733 106.745 168.202 107.569 168.202C108.342 168.202 108.735 168.379 109.471 169.075C109.813 169.404 111.841 170.973 113.971 172.568C119.144 176.441 119.955 177.238 121.197 179.706C122.11 181.529 123.048 182.288 124.747 182.566C125.685 182.718 126.256 183.085 126.522 183.68C126.649 183.971 127.105 185.465 127.536 186.996C128.538 190.603 128.766 191.299 129.628 193.552C130.465 195.767 130.655 196.539 131.34 200.412C132.417 206.499 132.759 207.727 134.002 210.22C135.105 212.422 135.346 213.283 135.713 216.359C136.208 220.497 136.271 223.18 135.967 226.041C135.865 226.977 135.713 229.179 135.625 230.926L135.472 234.103L135.827 234.824C136.233 235.659 136.892 236.204 137.83 236.482C138.883 236.786 139.821 236.836 140.822 236.621C143.485 236.064 143.928 236.153 147.44 237.9C150.432 239.393 154.121 241.342 154.641 241.722C155.478 242.304 156.314 242.608 157.607 242.797C160.168 243.177 161.918 243 163.655 242.177C165.379 241.355 166.203 240.405 166.203 239.216C166.203 237.988 165.784 237.646 162.019 235.811C157.772 233.748 155.059 231.926 151.142 228.534C148.239 226.015 147.871 224.977 147.985 219.396C148.036 216.523 148.112 215.587 148.568 211.992C148.86 209.727 149.177 207.309 149.291 206.613C149.57 204.69 149.874 204.196 152.143 201.892C154.286 199.716 155.224 199.032 156.948 198.387C158.368 197.868 159.091 197.298 159.572 196.324C159.889 195.678 159.927 195.476 159.915 194.337C159.915 192.843 159.598 191.692 158.533 189.211C157.138 185.946 156.352 183.288 155.68 179.466C154.793 174.403 153.5 170.581 150.926 165.354C148.264 159.975 147.047 158.127 141.228 150.685C137.729 146.205 132.988 140.965 128.855 137.004C125.178 133.485 123.53 131.549 121.793 128.676C120.995 127.372 120.564 126.512 118.206 121.677C117.458 120.146 117.318 119.931 116.393 119.07C115.15 117.906 113.477 116.741 111.93 115.995C111.271 115.678 110.536 115.324 110.295 115.197C109.128 114.628 108.951 113.653 109.166 108.907C109.344 104.806 109.344 104.857 108.342 102.136C106.986 98.4909 106.834 97.5544 107.544 97.0228C107.848 96.795 108.14 96.757 109.699 96.6937C111.005 96.6305 111.651 96.5545 112.032 96.39C112.742 96.0862 113.756 94.9725 114.022 94.2005C114.263 93.5044 114.466 91.6312 114.504 89.7834C114.529 88.3533 114.352 87.847 113.718 87.518C113.173 87.2395 112.97 86.7459 112.995 85.7714C113.033 84.6197 112.792 84.3159 111.55 83.9489C110.32 83.5945 109.027 83.5692 108.279 83.9109C107.62 84.2147 107.341 84.2273 107.125 83.9742C106.961 83.7717 106.732 82.0505 106.428 78.8484C106.175 76.1273 106.187 76.0134 106.53 75.6211C106.808 75.292 106.821 75.2794 109.344 75.1781C111.271 75.1022 112.361 74.9756 113.908 74.6972C117.191 74.077 117.724 74.039 122.909 73.9125C127.891 73.7986 128.639 73.7226 131.656 73.1405C133.19 72.8494 133.85 72.5583 134.179 72.0141C134.534 71.4065 134.775 69.2297 134.839 66.1542C134.889 62.9901 134.953 62.6737 135.663 62.0916C136.411 61.4587 139.91 60.9398 141.355 61.2436C142.407 61.4587 143.586 61.9523 144.714 62.6105C145.538 63.1167 145.817 63.3572 146.261 64.028C147.136 65.3442 147.478 65.5973 148.733 65.8631C149.291 65.9897 149.468 66.2681 149.468 67.0148C149.468 67.7995 149.621 68.2172 150.001 68.4576C150.457 68.7361 153.893 69.8625 154.311 69.8625C155.021 69.8625 155.49 69.4322 156.111 68.2298C156.428 67.6223 156.771 67.0401 156.885 66.9516C156.986 66.863 157.341 66.7364 157.671 66.6858C158 66.6225 158.381 66.4706 158.508 66.344C158.824 66.0276 158.951 64.9645 159.053 61.8891C159.129 59.6869 159.103 59.1426 158.926 58.32C158.457 56.1937 156.809 54.6244 154.73 54.308C154.311 54.2447 153.424 54.1308 152.765 54.0422C152.105 53.9662 150.939 53.7637 150.166 53.5992C141.177 51.6248 141.355 51.6375 137.361 52.1437C136.74 52.2197 135.764 52.245 135.206 52.207C133.064 52.0425 127.435 51.3464 123.606 50.7895C120.082 50.2706 119.359 50.1947 117.458 50.1947C115.455 50.1947 115.138 50.2326 113.135 50.6629C110.016 51.3211 108.659 51.435 105.858 51.3084C104.565 51.2451 102.739 51.2072 101.801 51.2072C100.191 51.1945 100.051 51.2198 99.3287 51.5615C97.9215 52.2197 96.6411 52.1437 95.5001 51.3211C93.89 50.1694 93.2562 49.9542 91.9123 50.144C91.2658 50.2326 91.0376 50.2073 90.5939 50.0175C89.5416 49.5365 88.4387 47.9292 88.0457 46.2965C87.7921 45.2334 87.7921 44.3095 88.0457 44.2209C88.1598 44.1703 88.7683 44.2589 89.4148 44.4108C91.5067 44.8917 92.6223 44.6892 93.3829 43.702C93.8647 43.0692 95.8677 39.5508 96.5523 38.1206C97.3003 36.5512 97.6553 35.4628 98.1243 33.2859C98.3399 32.2734 98.847 30.1978 99.2653 28.6664C100.634 23.6672 100.609 23.0723 98.7582 14.9344C97.6426 9.98576 97.5538 9.87186 91.8489 6.70779C86.068 3.4931 83.9635 2.74638 80.68 2.73373L78.8925 2.72107L78.1445 2.07561C75.8499 0.101227 74.6835 -0.341736 73.4158 0.278412ZM90.6446 9.3656C90.9615 9.51749 91.6461 10.087 92.1659 10.6186C93.814 12.2892 97.0341 16.2253 97.5412 17.2125C97.6046 17.3137 96.4002 16.1367 94.8789 14.5926C90.8474 10.5047 90.0614 9.87186 89.0219 9.87186C88.4894 9.87186 87.4498 10.4667 87.209 10.897C86.9808 11.34 86.8033 11.1754 86.8793 10.5679C86.9427 9.9478 87.1836 9.60608 87.7921 9.21373C88.3246 8.87201 89.8332 8.94795 90.6446 9.3656ZM85.8271 14.4155C85.6369 15.1748 85.1679 15.8836 84.6734 16.1367C83.8621 16.5544 83.9128 16.3012 84.9143 14.7445C85.7003 13.5295 85.9032 13.289 85.9285 13.5295C85.9539 13.694 85.9158 14.0864 85.8271 14.4155ZM82.3915 18.3389C82.2393 18.7059 81.9478 19.1362 81.7449 19.3008C81.39 19.6045 81.3646 19.6045 80.9082 19.4147C80.0842 19.0476 79.8053 19.0476 79.5137 19.4273C79.146 19.8956 79.07 20.4145 79.1967 21.5662C79.2982 22.4142 79.2855 22.5281 79.1207 22.5028C79.0066 22.4775 78.8544 22.3256 78.753 22.1484C78.3727 21.427 78.9052 18.668 79.4883 18.3515C79.6151 18.2883 80.0588 18.263 80.4645 18.3009C81.3646 18.4022 81.8844 18.187 82.3154 17.5289C82.5816 17.1112 82.5943 17.1112 82.6324 17.4023C82.6577 17.5668 82.5436 17.9845 82.3915 18.3389ZM75.3808 22.0472C75.964 22.6167 76.4457 23.1483 76.4457 23.2495C76.4457 23.452 76.5471 23.4773 75.3174 23.047C74.7342 22.8445 74.1891 22.7053 74.1004 22.7306C74.0116 22.7686 73.8722 22.9331 73.7834 23.0976C73.644 23.3634 73.6566 23.5153 73.9102 24.1987C74.468 25.7048 74.8864 26.4009 75.609 27.0211C76.2048 27.5273 76.2936 27.6539 76.1922 27.8564C76.0907 28.0336 75.9766 28.0715 75.647 28.0083C74.6835 27.8311 74.1637 27.1983 73.5806 25.5023C73.289 24.6544 73.2256 24.262 73.2256 23.0976C73.2129 21.9586 73.251 21.6295 73.4411 21.3511C73.8341 20.7562 74.1891 20.8828 75.3808 22.0472ZM75.8499 24.3759C76.3696 25.0214 76.4584 25.4897 76.0654 25.6922C75.8625 25.8061 75.7991 25.7808 75.7231 25.6036C75.6851 25.477 75.5076 25.0467 75.3554 24.6544C75.0005 23.8064 75.0005 23.7937 75.216 23.8064C75.292 23.8064 75.5836 24.0722 75.8499 24.3759ZM74.4173 32.4C74.6455 33.0328 74.8103 33.5644 74.7849 33.577C74.7596 33.5897 74.6201 33.6656 74.4807 33.7415C74.2905 33.8555 74.2271 34.0326 74.2145 34.5009C74.2018 34.8426 74.1891 35.159 74.1764 35.2223C74.1764 35.2729 73.8214 35.1464 73.4031 34.9312C72.9847 34.7287 72.6298 34.5515 72.5917 34.5515C72.503 34.5515 72.7565 35.5134 73.0354 36.2728C73.1876 36.6778 73.7707 37.6776 74.3286 38.5003C74.9244 39.3862 75.292 40.057 75.2287 40.1203C75.0765 40.2722 73.3777 39.2344 72.6171 38.5256C72.2875 38.2219 71.9325 37.9687 71.8311 37.9687C71.717 37.9687 71.5141 38.1333 71.3493 38.3484C71.1972 38.5509 70.9944 38.7281 70.9056 38.7281C70.8169 38.7281 70.5633 38.4497 70.3478 38.0953C69.7393 37.0954 69.2068 37.1208 68.649 38.1965C68.294 38.8926 68.256 38.804 68.5222 37.7789C68.8392 36.5765 68.6617 36.6398 71.0958 36.9056C72.0086 36.9942 72.0086 36.9942 71.6282 35.9564C71.1211 34.6528 71.793 33.3998 72.9847 33.4378C73.5425 33.4505 73.6566 33.3365 73.6566 32.7417C73.6566 32.0329 73.7961 31.2609 73.9102 31.2609C73.9609 31.2609 74.1891 31.7798 74.4173 32.4ZM78.6136 34.8933C80.1222 37.1208 82.3915 39.4115 84.8509 41.1834C85.6369 41.7403 85.8018 41.9048 85.5102 41.8416C85.3073 41.7909 84.7495 41.5251 84.2804 41.2467C80.7941 39.1964 77.5613 35.3869 77.143 32.843C77.0669 32.3493 77.0669 32.3493 77.5233 33.1467C77.7768 33.6023 78.2713 34.3744 78.6136 34.8933ZM75.8118 42.6136C77.1683 42.9933 78.8291 43.6514 80.3124 44.3855C81.6815 45.0689 85.8271 47.4862 85.8271 47.6128C85.8271 47.6634 85.6369 47.6761 85.4214 47.6508C85.1932 47.6128 82.4929 47.4483 79.4249 47.2711C76.357 47.0812 73.682 46.8914 73.4665 46.8281L73.0862 46.7269L73.4918 46.7142C73.7074 46.7015 74.7596 46.537 75.8372 46.3345C78.3727 45.8536 79.3615 45.765 80.4265 45.9422C80.9082 46.0181 81.3139 46.0561 81.3392 46.0308C81.4533 45.9169 79.4503 44.7778 77.5867 43.8919C73.5299 41.9681 73.5299 41.9681 75.8118 42.6136ZM78.398 51.4856L80.6673 52.0931L80.2363 52.3716C79.6531 52.7259 79.5771 52.8778 78.8037 55.0926C78.4234 56.1558 77.7895 57.7884 77.3965 58.725C75.9006 62.2055 75.9006 62.2055 75.8245 65.4328L75.7484 68.2805L75.3808 67.8122C74.5441 66.7111 74.4934 65.8378 75.1019 63.0534C75.3428 61.965 75.5963 60.6361 75.6851 60.1172C75.9132 58.7376 76.4964 56.9911 77.3458 55.1686C77.7642 54.2953 78.0938 53.5233 78.0938 53.4473C78.0938 53.2195 77.0796 52.4222 76.6105 52.2576C75.5583 51.9159 74.5948 52.283 69.9675 54.7509C67.901 55.8647 66.8108 56.2823 66.8108 55.9786C66.8108 55.8267 70.931 52.3462 71.7043 51.84C72.7185 51.1819 73.72 50.8908 74.9878 50.8908C75.964 50.8781 76.4584 50.9667 78.398 51.4856ZM112.006 54.7383C111.943 54.7636 109.509 55.08 106.618 55.447C100.546 56.2064 98.7329 56.295 96.7045 55.89C95.8804 55.7254 95.4621 55.5862 95.4621 55.4723C95.4621 55.3837 95.5635 55.3078 95.6902 55.2951C110.307 54.6876 112.323 54.6244 112.006 54.7383ZM129.527 59.0794C129.577 62.1928 129.996 65.5847 130.63 67.9261C130.731 68.2931 130.782 68.5969 130.756 68.5969C130.617 68.5969 129.679 66.4959 129.336 65.4328C128.817 63.8001 128.627 62.3953 128.715 60.6994C128.766 59.3958 129.222 57.0797 129.425 57.0797C129.463 57.0797 129.514 57.9783 129.527 59.0794ZM113.642 59.5097C112.754 60.75 112.044 61.522 111.575 61.7625C111.005 62.0409 110.016 62.2181 108.368 62.332C107.328 62.3953 107.125 62.3826 107.125 62.2308C107.125 62.1042 107.379 62.003 107.937 61.9017C109.598 61.6106 111.436 60.7879 113.046 59.5983C113.591 59.1933 114.06 58.8642 114.073 58.8515C114.098 58.8515 113.908 59.1553 113.642 59.5097ZM150.622 60.0539C150.787 60.3956 150.863 60.8639 150.863 61.4967C150.863 62.737 151.066 63.3572 151.662 63.9394C152.359 64.6101 152.993 64.7873 153.779 64.5089C154.387 64.2937 154.4 64.2937 154.869 64.6101C155.427 64.9898 155.579 65.0025 155.833 64.6987C156.099 64.4076 156.276 63.8001 156.505 62.5345C156.707 61.3954 156.733 61.3195 156.936 61.4461C157.024 61.4967 157.075 62.1548 157.075 63.218V64.9012L156.441 65.4075C156.048 65.7239 155.617 65.939 155.325 65.9897C153.753 66.2048 153.411 66.2048 152.587 65.9517C151.421 65.5847 151.104 65.4075 150.445 64.6734C150.115 64.319 149.798 64.0533 149.735 64.0912C149.621 64.1672 149.633 63.4837 149.798 60.3956C149.874 59.092 149.874 59.092 150.128 59.3198C150.28 59.4464 150.495 59.7755 150.622 60.0539ZM97.9215 63.18C97.5285 63.8128 96.1847 65.5847 95.6649 66.1669C94.8662 67.0275 93.7379 67.5844 92.1025 67.9008C90.5939 68.1919 88.426 68.1159 87.1582 67.7109C86.0553 67.3566 86.1314 67.3186 88.6162 66.9516C91.8489 66.4706 93.2181 65.939 96.2734 64.0406C97.1862 63.4837 97.9342 63.0281 97.9595 63.0281C97.9976 63.0281 97.9722 63.104 97.9215 63.18ZM95.7156 72.0014C95.7156 72.2039 94.1436 73.267 93.5604 73.4695C93.2308 73.5834 92.5589 73.6594 91.7982 73.6594C90.9742 73.6594 90.0868 73.7606 89.0599 73.9884C88.2232 74.1656 86.6385 74.4694 85.5482 74.6592C83.9128 74.9376 83.4944 75.0515 83.2409 75.292L82.9239 75.5958L83.1648 75.9501C83.5198 76.4311 84.4072 76.7475 85.1172 76.6589C85.4214 76.6083 86.1187 76.4058 86.6511 76.1906C87.9189 75.6844 88.5021 75.6211 89.8586 75.7856C90.4671 75.8742 91.9123 76.0261 93.0913 76.14C94.6 76.2919 95.2085 76.4058 95.2085 76.5197C95.2085 76.7855 93.9407 76.8614 92.4828 76.6969C90.8221 76.4944 89.3008 76.5829 87.2216 77.0133C84.1283 77.6461 80.2109 78.3422 79.7292 78.3422C79.4503 78.3422 79.2348 78.2915 79.2348 78.2409C79.2348 77.8612 83.7353 74.1656 84.7368 73.7226C85.2693 73.4822 85.7003 73.4189 87.1582 73.3556C89.1867 73.267 90.4164 73.0898 93.1928 72.4697C94.2704 72.2292 95.2592 72.0014 95.3987 71.9761C95.5381 71.9381 95.6649 71.9128 95.6902 71.9001C95.7029 71.9001 95.7156 71.9381 95.7156 72.0014ZM73.6947 80.3165C73.8088 80.4305 73.1876 81.9872 72.7692 82.6453C72.186 83.5439 71.7804 84.569 71.4254 85.9992C71.2479 86.7206 70.8676 87.9609 70.5633 88.7456L70.0309 90.1758L69.1561 90.644C67.6094 91.4541 66.7093 92.4159 66.2656 93.7195C66.1896 93.9347 66.1008 96.0736 66.0628 98.7187C65.9994 102.667 65.9614 103.338 65.7966 103.338C65.4416 103.338 65.2514 101.668 65.2387 98.5289C65.2387 95.8711 65.2641 95.4787 65.5684 94.0992C66.0374 91.8591 66.3037 91.4034 68.1546 89.6695C69.0293 88.8595 69.8787 87.9356 70.0689 87.6066C70.4746 86.9231 70.5126 86.0878 70.1957 85.4676C69.7012 84.5311 68.4715 83.6578 67.6348 83.6578C66.9882 83.6578 66.2783 84.0881 65.4543 84.974C64.7697 85.6954 64.6556 85.8853 64.6556 86.2903C64.6556 86.5434 64.7443 86.8725 64.8457 86.9991C65.2387 87.518 65.0866 87.9483 63.9203 89.6315C63.2991 90.5175 62.7539 91.2895 62.6906 91.3401C62.6398 91.4034 62.6272 90.239 62.6652 88.7836C62.7539 85.8094 62.868 85.2778 63.578 84.4551C64.1865 83.7464 64.9091 83.4806 67.4446 83.0376C70.6901 82.4808 71.6409 82.1011 72.8326 80.8861C73.4665 80.2406 73.5552 80.1773 73.6947 80.3165ZM110.345 85.5562C110.827 85.7334 111.081 86.227 111.144 87.1762C111.233 88.252 111.347 88.4672 111.816 88.4672C112.07 88.4672 112.26 88.5684 112.399 88.7709C112.577 89.0494 112.577 89.2392 112.45 90.3276C112.272 91.7451 112.146 92.0995 112.019 91.5553C111.829 90.7959 111.436 89.5303 111.322 89.3658C111.22 89.2139 111.157 89.2139 110.865 89.4037C110.65 89.543 110.409 89.5936 110.219 89.5556L109.927 89.4797L109.889 91.4667C109.851 93.4284 109.851 93.4664 109.572 93.5044L109.281 93.5423V90.5301C109.281 87.7964 109.255 87.48 109.04 87.1256C108.799 86.7333 108.799 86.7206 109.065 86.4548C109.306 86.2144 109.319 86.1637 109.154 86.0625C109.052 85.9992 108.824 85.9359 108.647 85.9233C108.469 85.9233 108.216 85.8726 108.076 85.8094C107.873 85.7334 107.861 85.6954 108.013 85.6448C108.621 85.417 109.876 85.3664 110.345 85.5562ZM99.1385 89.3278C99.1385 89.6189 98.4032 92.1881 97.6299 94.6055C97.2876 95.6433 96.7425 97.643 96.4129 99.0351C95.4874 102.971 95.3353 103.477 94.9169 104.123C94.7141 104.452 94.5112 104.667 94.4859 104.591C94.4098 104.376 95.2085 100.87 96.5016 95.7445C97.351 92.3526 97.7567 90.9731 98.0863 90.3023C98.3272 89.8214 98.5934 89.3405 98.6568 89.2519C98.847 89.024 99.1385 89.062 99.1385 89.3278ZM91.7982 90.8465C91.5193 91.7578 90.8221 93.0234 90.315 93.5297L89.998 93.8461L90.3276 93.0867C90.5051 92.6691 90.9615 91.6439 91.3165 90.8086C91.8489 89.5809 91.9884 89.3531 92.0138 89.6442C92.0391 89.8467 91.9377 90.3909 91.7982 90.8465ZM103.652 89.7961C103.702 89.9733 103.702 90.9858 103.677 92.0489C103.626 93.5676 103.55 94.1625 103.322 94.8586C102.98 95.9217 102.447 97.0101 101.775 97.9847C101.027 99.0858 100.812 99.7059 100.343 102.06C99.4808 106.452 98.7455 109.021 98.9357 106.983C99.5062 101.25 99.6583 100.503 100.749 98.6301C101.94 96.5545 102.777 93.96 103.056 91.3781C103.246 89.7328 103.297 89.4797 103.449 89.4797C103.512 89.4797 103.601 89.6189 103.652 89.7961ZM89.0092 95.7698C88.8824 96.0356 88.4007 96.7317 87.9569 97.3266C86.7019 99.0098 86.2328 100.275 85.6877 103.452C85.3961 105.211 85.0791 106.161 84.6227 106.768C84.2678 107.224 84.0015 107.338 84.103 106.971C84.1283 106.857 84.2044 106.502 84.2424 106.186C84.2931 105.87 84.6101 104.705 84.9397 103.591C85.282 102.478 85.7003 101.035 85.8905 100.377C86.2962 98.9212 86.8033 97.8834 87.6273 96.8583C88.1217 96.2381 89.0472 95.3269 89.2247 95.3015C89.2374 95.3015 89.1486 95.5167 89.0092 95.7698ZM76.0527 105.363C76.3189 105.705 76.5218 106.401 76.395 106.528C76.357 106.578 76.0907 106.54 75.7991 106.452C75.4061 106.325 75.2413 106.199 75.1019 105.87C74.823 105.186 74.861 105.047 75.3554 105.047C75.6724 105.047 75.8625 105.135 76.0527 105.363ZM80.9843 106.199C81.4153 106.591 81.7322 106.945 81.6815 106.983C81.5167 107.16 80.8068 107.059 80.4011 106.819C79.9574 106.54 79.6151 105.907 79.6151 105.363C79.6151 105.034 79.6151 105.034 79.9067 105.262C80.0715 105.389 80.5532 105.806 80.9843 106.199ZM83.038 108.793C83.9128 108.894 85.1932 109.097 85.8905 109.236C87.285 109.515 90.5685 110.4 91.2785 110.704C92.356 111.147 94.8535 111.767 96.2607 111.945C98.7836 112.261 102.447 112.324 104.577 112.084C105.579 111.97 106.555 111.881 106.745 111.881H107.087L107.176 113.286C107.354 116.146 108.114 117.096 111.157 118.26C112.944 118.943 114.719 120.399 116.228 122.424C117.813 124.55 118.307 125.512 119.93 129.537C122.453 135.84 124.887 143.775 126.446 150.799C127.587 155.938 127.777 157.785 127.866 164.531C127.904 167.278 127.891 169.594 127.828 169.67C127.764 169.758 126.839 169.885 125.508 169.973C121.983 170.227 121.907 170.151 121.781 166.252C121.629 161.823 121.109 156.596 120.247 150.799C119.587 146.471 119.549 145.901 119.549 140.737C119.549 134.7 119.397 133.27 118.446 130.296C116.976 125.677 114.516 122.74 111.499 121.956C110.333 121.665 108.241 121.563 107.125 121.766C106.606 121.854 105.579 121.93 104.843 121.93C103.601 121.943 103.449 121.968 102.688 122.348C102.232 122.576 101.585 122.955 101.243 123.209C100.165 123.993 99.3414 123.816 97.0975 122.31C95.7536 121.411 95.2085 121.272 95.2085 121.816C95.2085 121.994 96.0579 124.259 97.0975 126.841C101.268 137.257 103.804 145.015 107.239 157.849C107.937 160.481 108.33 162.835 108.14 163.329C108.076 163.493 107.899 163.709 107.734 163.81C107.29 164.088 101.167 166.721 101.104 166.657C101.066 166.632 100.951 165.645 100.85 164.455C100.013 155.634 98.3525 147.306 96.0325 140.295C93.9154 133.928 90.7206 127.297 87.3357 122.221C86.7779 121.411 86.3342 120.703 86.3342 120.677C86.3342 120.538 86.8033 120.627 87.0695 120.817C87.5132 121.12 87.4371 120.703 86.9681 120.323C86.537 119.956 86.6258 119.981 83.5071 119.475C80.1983 118.943 79.4883 118.766 77.9417 118.07C74.3919 116.475 71.9071 116.121 69.3463 116.83C68.8645 116.956 68.4081 117.07 68.3321 117.07C68.1799 117.07 68.1673 116.007 68.3194 114.957C68.4842 113.818 70.3098 109.983 70.8803 109.565C71.3113 109.261 74.3032 108.742 76.5091 108.603C78.4868 108.464 80.8829 108.54 83.038 108.793ZM64.4908 123.626C64.7443 124.044 64.8331 124.411 64.8838 125.12C64.9598 126.259 65.0739 126.335 66.2022 125.854C67.3939 125.347 67.9771 125.158 67.9264 125.284C67.8503 125.512 63.578 128.955 63.4892 128.866C63.223 128.6 62.9821 127.081 63.0455 126.12C63.0962 125.246 63.5399 123.171 63.7301 122.854C63.8189 122.702 64.1231 123.006 64.4908 123.626ZM78.7277 127.195C78.7277 127.676 78.4995 130.423 78.2206 133.296C77.9417 136.169 77.4853 141.763 77.1937 145.737C76.6866 152.824 76.6739 153.027 76.7753 157.001C76.9021 162.734 76.9021 162.797 76.75 162.848C76.5598 162.911 76.2048 160.823 75.9766 158.203C75.7231 155.381 75.6977 148.445 75.9132 145.927C76.1541 143.307 76.5091 140.573 76.9021 138.523C77.5106 135.27 77.5994 134.738 77.7768 133.08C77.8783 132.169 78.0431 130.385 78.1572 129.094C78.2586 127.803 78.3854 126.626 78.4234 126.461C78.5375 125.892 78.7277 126.335 78.7277 127.195ZM85.6623 136.27C85.5735 142.889 85.5102 143.75 85.0031 145.8C83.5071 151.736 83.2282 157.444 84.0522 164.962C84.1917 166.215 84.3058 167.518 84.3058 167.872V168.518L83.9889 168.138C83.5198 167.556 82.8352 166.075 82.607 165.164C82.252 163.671 82.1126 161.722 82.1126 158.52C82.1126 154.153 82.3027 152.394 83.4818 145.673C84.5847 139.396 84.965 136.586 85.1932 132.992C85.3454 130.587 85.4468 129.853 85.6116 129.853C85.7003 129.853 85.713 131.903 85.6623 136.27ZM67.1277 136.434C67.1657 136.498 66.3163 137.586 65.2261 138.864C62.0947 142.509 61.2326 143.724 57.7083 149.496C55.6038 152.938 55.0713 153.697 52.764 156.532C51.154 158.52 50.6595 158.962 50.051 158.962C49.6707 158.962 49.4679 158.722 49.1129 157.849C48.834 157.115 48.9734 156.975 49.7468 157.241C51.547 157.849 51.9273 157.494 55.084 152.318C57.9872 147.547 59.8635 144.547 61.0044 142.864C62.2595 141.003 64.9598 137.865 66.0501 136.979C66.9122 136.282 67.0009 136.232 67.1277 136.434ZM132.95 145.737C133.545 146.85 134.205 148.065 134.395 148.42C134.927 149.394 134.889 149.812 134.167 150.698C132.988 152.153 131.314 154.027 131.2 154.027C130.947 154.027 130.947 153.622 131.213 152.799C131.365 152.331 131.631 151.71 131.783 151.432C132.874 149.508 132.721 147.787 131.01 143.079C130.947 142.902 131.048 142.952 131.39 143.269C131.669 143.522 132.29 144.509 132.95 145.737ZM88.8697 146.623C89.1233 147.433 89.4782 148.065 89.8205 148.281C90.0994 148.458 90.1502 148.458 90.5178 148.255C90.7206 148.129 91.139 147.686 91.4306 147.268L91.9504 146.521L92.2293 146.85C92.9392 147.749 93.2181 149.622 92.8758 151.217C92.6983 152.077 91.9377 153.963 91.8236 153.849C91.7982 153.824 91.925 153.153 92.1025 152.369C92.4828 150.774 92.5716 149.078 92.318 148.61C92.2166 148.432 92.0391 148.331 91.8109 148.331C91.4686 148.331 91.3038 148.445 89.2754 150.179C88.9838 150.432 88.7176 150.622 88.6922 150.597C88.6669 150.571 88.6035 149.496 88.5528 148.205C88.464 145.851 88.5274 145.534 88.8697 146.623ZM70.614 147.142C70.614 148.711 69.9421 152.09 69.2956 153.811C67.7996 157.773 64.9345 160.76 60.3198 163.202C58.7098 164.038 57.5435 164.519 54.3741 165.645C48.1621 167.86 46.3999 168.619 46.6915 168.923C46.869 169.087 48.2381 169.176 48.9354 169.062C50.013 168.885 53.0176 168.936 54.6403 169.151C55.439 169.252 56.7321 169.429 57.4928 169.53C58.2661 169.632 59.0901 169.72 59.3437 169.72C60.0156 169.72 60.9664 170.087 61.1946 170.429C61.4482 170.821 61.296 171.252 60.548 172.29C59.3183 173.998 56.8462 176.314 54.8812 177.618C53.943 178.238 51.3948 179.149 51.3061 178.896C51.2554 178.795 51.8512 178.2 52.8401 177.339C53.7275 176.567 54.7164 175.669 55.0333 175.327C56.1109 174.213 58.0506 171.72 57.9745 171.543C57.8984 171.34 57.5435 171.404 56.6941 171.771C55.8447 172.125 54.4755 172.29 52.8021 172.226C51.1793 172.163 51.1159 172.138 47.8578 170.961C46.3619 170.429 46.3111 170.416 44.8152 170.429C43.3573 170.442 42.7361 170.556 40.6062 171.188C40.4288 171.239 40.3147 171.214 40.3147 171.125C40.3147 170.821 43.9785 168.733 45.2589 168.315C46.2731 167.974 51.8766 165.468 54.4501 164.215C56.5673 163.177 58.0125 162.165 59.6606 160.582C61.0044 159.292 65.3402 154.242 66.367 152.774C67.1911 151.597 69.8534 147.433 70.1703 146.812C70.4619 146.243 70.614 146.357 70.614 147.142ZM115.176 156.95C114.212 157.925 111.968 158.811 111.271 158.482L110.992 158.355L111.309 158.228C111.486 158.152 112.488 157.722 113.528 157.267C114.58 156.811 115.48 156.444 115.556 156.431C115.619 156.431 115.442 156.659 115.176 156.95ZM144.55 165.493C144.55 166.822 144.169 168.682 143.193 172.138C142.369 175.023 141.913 176.15 141.152 177.099C140.48 177.96 138.502 179.339 138.895 178.668C138.946 178.592 139.402 177.858 139.897 177.061C142.217 173.327 143.168 170.948 143.51 167.974C143.802 165.493 143.865 165.088 144.068 164.607C144.372 163.873 144.55 164.177 144.55 165.493ZM138.743 164.607C138.908 164.772 138.946 165.126 138.946 166.594C138.946 168.645 138.807 169.822 138.426 170.948C137.907 172.53 138.046 172.492 140.315 170.366C141.456 169.303 142.42 168.455 142.458 168.493C142.585 168.619 142.141 169.708 141.672 170.416C140.962 171.467 139.935 172.315 138.502 173.011C137.311 173.606 135.815 174.023 134.94 174.023C134.636 174.023 134.699 173.935 135.688 172.897C137.552 170.935 138.173 169.632 138.274 167.442C138.388 165.265 138.021 164.784 136.499 165.037C135.574 165.189 134.293 165.202 134.433 165.063C134.61 164.898 136.981 164.43 137.767 164.417C138.325 164.405 138.604 164.468 138.743 164.607ZM149.861 169.492C150.292 170.505 150.331 171.555 149.938 172.327C149.481 173.239 149.24 174.061 149.025 175.479C148.72 177.428 148.251 178.643 147.199 180.225C146.553 181.187 146.185 182.136 145.995 183.262C145.919 183.756 145.031 193.919 145.031 194.362C145.031 194.527 144.981 194.653 144.93 194.653C144.867 194.653 144.778 193.16 144.74 191.325C144.702 189.502 144.575 186.895 144.448 185.541C144.271 183.541 144.258 182.895 144.385 182.149C144.562 180.934 145.145 179.845 145.919 179.225C147.782 177.732 148.327 176.782 148.112 175.314C147.947 174.112 148.074 173.656 148.898 172.517C149.126 172.214 149.215 171.922 149.215 171.505C149.215 170.492 149.38 168.834 149.468 168.834C149.519 168.834 149.697 169.138 149.861 169.492ZM81.2885 170.024C83.1775 170.657 85.9032 170.758 89.0599 170.302C89.7571 170.201 90.3403 170.138 90.3783 170.163C90.5812 170.366 87.5259 171.302 85.7637 171.581C84.4326 171.783 81.9858 171.745 80.9462 171.492C80.0842 171.29 79.4503 170.315 79.894 169.872C80.1095 169.657 80.2363 169.682 81.2885 170.024ZM123.834 172.998C125.533 173.441 126.915 174.175 126.611 174.479C126.433 174.656 124.671 174.239 123.872 173.846C122.478 173.137 121.705 172.96 120.335 173.049C119.068 173.125 118.992 173.087 119.765 172.808C120.437 172.555 122.478 172.657 123.834 172.998ZM153.069 179.617C153.487 180.706 153.855 182.225 154.032 183.642C154.172 184.794 154.197 185.756 154.096 185.642C153.83 185.389 152.258 179.061 152.258 178.327C152.27 177.985 152.701 178.681 153.069 179.617ZM31.77 179.175C31.7319 179.377 31.4911 180.693 31.2502 182.123C30.9966 183.554 30.7431 184.92 30.6797 185.161C30.6036 185.401 30.5529 185.882 30.5529 186.211C30.5529 186.781 30.5656 186.819 30.8445 186.743C30.9966 186.692 31.415 186.465 31.7573 186.237C32.6447 185.655 33.0377 185.477 33.9886 185.186C34.7746 184.946 37.0312 184.667 36.8917 184.819C36.8537 184.857 36.3085 185.072 35.6873 185.3C33.2406 186.161 30.1219 187.971 27.3328 190.147C26.6482 190.679 26.0651 191.109 26.0397 191.084C26.0144 191.059 26.1665 190.78 26.382 190.477C27.4469 188.895 28.1188 187.199 28.664 184.68C29.0697 182.794 29.4753 181.832 30.667 179.997C31.4404 178.82 31.9221 178.466 31.77 179.175ZM55.7813 187.642C56.0602 187.831 56.2884 188.021 56.2884 188.072C56.2884 188.16 51.7118 192.337 51.3568 192.565C50.761 192.957 47.338 194.476 46.197 194.856C45.1194 195.223 44.5363 195.324 42.8248 195.476C41.6838 195.577 40.4288 195.691 40.0104 195.742C39.4145 195.817 39.2751 195.792 39.3258 195.666C39.3892 195.45 40.1879 195.172 43.015 194.4C46.7675 193.35 48.8974 192.451 51.2934 190.869C52.6753 189.958 54.3107 188.565 54.8305 187.857C55.0333 187.566 55.2235 187.325 55.2488 187.325C55.2615 187.312 55.5024 187.464 55.7813 187.642ZM15.9103 200.855C16.316 201.817 17.1908 203.209 17.9007 204.019C18.4459 204.639 19.7643 205.791 19.9291 205.791C19.9798 205.791 20.0306 205.613 20.0306 205.411C20.0306 205.196 20.0559 205.031 20.0813 205.031C20.17 205.031 22.1731 207.12 22.1224 207.17C22.097 207.195 21.6406 207.018 21.1335 206.765C19.9418 206.208 19.5361 206.12 18.9276 206.284C18.5219 206.398 18.3952 206.385 18.1543 206.196C17.6725 205.841 16.4048 203.728 15.9991 202.576C15.6568 201.665 15.3018 199.792 15.5047 199.969C15.5427 200.007 15.7202 200.399 15.9103 200.855ZM28.0047 202.222C28.9302 202.677 28.9682 202.867 28.1315 202.854C27.5991 202.842 27.4343 202.892 27.2441 203.107L27.0286 203.386L26.0904 203.057C25.5833 202.88 25.1269 202.69 25.0635 202.639C24.9241 202.5 25.4946 202.032 25.989 201.892C26.5849 201.715 27.1807 201.817 28.0047 202.222ZM146.679 205.145C146.679 205.272 143.523 208.157 142.179 209.258C140.772 210.41 139.618 210.853 137.64 211.043C136.588 211.144 136.335 210.992 137.146 210.752C138.629 210.296 142.039 208.309 144.778 206.284C146.451 205.057 146.679 204.917 146.679 205.145ZM8.95037 211.929C9.02643 212.41 9.00108 212.498 8.70949 212.688C8.51933 212.802 8.27846 212.865 8.12633 212.815C7.88545 212.739 7.88545 212.739 8.12633 211.828C8.50665 210.473 8.50665 210.486 8.69682 210.954C8.79824 211.182 8.91234 211.625 8.95037 211.929ZM5.33726 227.205C5.67956 227.192 6.17398 227.18 6.44021 227.18C6.69376 227.18 7.22622 227.167 7.60655 227.167C10.1421 227.104 10.4717 227.129 11.3845 227.407C12.5508 227.775 15.0356 229.407 14.8074 229.673C14.5792 229.951 14.1989 229.863 13.1974 229.281C11.6 228.344 11.4986 228.319 9.48283 228.331C7.36567 228.357 5.6542 228.091 4.88087 227.623C4.04415 227.129 3.62579 226.737 3.73989 226.56C3.80328 226.446 3.95541 226.509 4.27235 226.825C4.65267 227.192 4.76677 227.243 5.33726 227.205ZM138.756 233.887C139.593 234.735 139.719 234.9 139.479 234.9C139.048 234.9 138.49 234.571 138.147 234.115C137.818 233.672 137.501 232.875 137.653 232.875C137.704 232.875 138.198 233.331 138.756 233.887ZM164.504 238.861C164.529 238.887 164.479 239.165 164.39 239.494C164.263 239.988 164.136 240.152 163.617 240.494C162.285 241.393 162.324 241.367 161.969 241.228C161.791 241.165 161.639 241.064 161.652 241.013C161.652 240.95 161.943 240.772 162.311 240.595C163.046 240.228 163.541 239.545 163.541 238.849V238.444L164.01 238.634C164.263 238.747 164.491 238.849 164.504 238.861Z" fill="#0F64CD"/>
</g>
</g>
<defs>
<clipPath id="clip0_30_122">
<rect width="166.203" height="243" fill="white"/>
</clipPath>
</defs>
</svg>
