<svg width="246" height="243" viewBox="0 0 246 243" fill="none" xmlns="http://www.w3.org/2000/svg">
<g id="1618916 1" clip-path="url(#clip0_30_107)">
<g id="Group">
<path id="Vector" d="M113.871 0.288391C109.105 0.692108 106.568 1.03815 106.606 1.26884C106.626 1.40343 105.53 1.6149 103.762 1.82637C102.167 1.99939 100.11 2.30698 99.2072 2.49924C94.5178 3.51814 90.4819 4.51782 87.6375 5.40216C85.8886 5.94044 83.6015 6.63254 82.5637 6.95935C73.627 9.61237 62.6147 14.9376 53.8701 20.7819C49.373 23.8002 42.6272 29.0293 39.014 32.3167C34.882 36.0847 28.6744 42.2751 26.3489 44.9858C20.8908 51.3299 16.1245 58.1547 13.0495 64.1143C11.5697 66.9596 7.9181 74.9378 6.82263 77.6677C4.76623 82.8776 2.36388 91.4711 1.26841 97.4692C0.307476 102.794 0.0960693 104.986 0.0960693 109.965C0.0960693 114.694 0.230601 116.194 0.614976 116.079C0.980132 115.944 1.32607 114.694 2.11404 110.734C2.51763 108.677 2.94044 106.543 3.03654 106.024C3.19029 105.274 3.20951 105.544 3.11341 107.274C3.03654 108.485 2.97888 111.484 2.97888 113.945C2.97888 118.847 3.09419 119.366 3.84373 118.097C4.17044 117.578 4.40107 116.579 4.72779 114.483L5.16982 111.599L5.05451 115.271C4.99685 117.751 5.03529 119.52 5.18904 120.712C5.43888 122.461 5.43888 122.48 5.68873 121.885C5.88091 121.442 6.34216 117.521 6.34216 116.386C6.34216 116.348 6.4767 116.309 6.63045 116.309C7.11091 116.309 7.86045 113.387 9.05201 106.87C9.66701 103.429 10.4358 99.4878 10.7625 98.1228C11.4351 95.316 12.2808 92.3939 12.3961 92.5092C12.4537 92.5477 12.3576 93.259 12.2039 94.0856C11.8579 95.8543 11.8772 95.739 12.1078 95.739C12.2231 95.739 12.3 95.5852 12.3 95.3929C12.3192 95.1622 12.3961 95.2199 12.6075 95.6044C12.7612 95.8927 12.9726 96.085 13.0879 96.0273C13.184 95.9504 13.5684 95.316 13.9336 94.6239C14.3179 93.8549 14.587 93.4897 14.6062 93.7204C14.6062 93.951 14.6831 94.201 14.7792 94.2971C14.8753 94.4124 14.8753 95.4314 14.7792 96.6041C14.5678 99.5454 14.8561 101.891 15.4134 101.891C15.6633 101.891 16.2206 100.526 17.489 96.7386C18.7767 92.9898 18.8536 92.8168 19.0265 93.3359C19.1226 93.605 19.3148 93.3551 19.7953 92.2593C21.2367 89.0872 25.2726 81.2435 26.8101 78.6674C28.7512 75.38 29.789 73.8805 35.0165 66.8827C40.6284 59.3851 43.0692 56.4245 47.9315 51.3299C50.3339 48.8115 50.7375 48.5423 49.2 50.4648C46.4517 53.9445 45.0872 56.5206 46.0097 56.5206C46.3556 56.5206 48.3928 54.9442 52.1789 51.7336C63.5756 42.0444 71.3015 36.7768 81.1415 32.0284C91.8848 26.8185 102.82 23.8002 115.697 22.4545C118.926 22.1276 130.937 22.1276 134.147 22.4545C140.393 23.1081 146.87 24.3192 151.943 25.7611C185.019 35.1427 210.83 59.8849 221.477 92.4131C223.764 99.4301 225.244 106.755 226.051 115.06C226.358 118.347 226.358 128.171 226.051 131.593C224.84 144.781 221.342 157.104 215.346 169.273C207.409 185.422 195.32 199.225 180.176 209.453C163.206 220.892 144.217 226.736 122.039 227.351C104.415 227.851 87.7336 224.006 70.725 215.509C68.0151 214.163 68.6878 214.778 71.6859 216.393C84.1973 223.141 97.6505 227.14 112.814 228.62C116.273 228.947 128.554 228.947 132.033 228.62C158.113 226.082 180.291 215.797 198.799 197.63C200.778 195.669 203.296 193.074 204.353 191.862C206.986 188.863 207.159 188.71 205.717 190.709C205.372 191.19 205.102 191.728 205.122 191.901C205.179 192.343 200.798 197.245 197.434 200.533C189.958 207.8 181.944 213.74 173.161 218.45C168.395 221.007 159.612 224.294 152.77 226.063C144.467 228.216 138.183 229.081 127.42 229.543C124.73 229.658 121.808 229.831 120.944 229.946C117.042 230.408 105.934 229.158 98.5922 227.409C81.5836 223.352 65.7473 215.355 51.9867 203.859C49.6997 201.936 44.2415 196.649 40.7245 192.92C37.8994 189.94 34.709 185.941 32.0953 182.096C31.4226 181.116 30.8461 180.366 30.7884 180.424C30.5001 180.712 35.497 187.498 38.6489 191.113C39.5329 192.132 40.9359 193.746 41.7623 194.708C43.8764 197.149 50.0264 203.128 52.7555 205.435C63.8255 214.663 76.0294 221.411 89.5594 225.775C93.5184 227.063 99.5147 228.562 103.301 229.254C104.781 229.504 106.433 229.812 106.952 229.908C107.529 230.004 107.702 230.081 107.394 230.1C106.376 230.139 99.9759 228.947 96.1322 227.986C88.733 226.159 81.353 223.487 74.6648 220.2C58.3097 212.164 45.0295 201.186 34.44 186.902C33.3253 185.403 32.3836 184.211 32.3259 184.269C32.2106 184.365 33.6328 186.383 35.7276 189.075C45.2601 201.321 57.0989 211.375 70.4367 218.527C87.3876 227.601 106.76 232.1 126.652 231.581C129.246 231.523 132.09 231.427 132.994 231.369L134.627 231.292L132.936 231.561C129.823 232.042 125.056 232.292 119.733 232.292C107.817 232.273 98.842 230.869 88.5984 227.428C79.2197 224.275 68.5533 218.892 60.539 213.279C41.0704 199.648 26.3489 180.577 18.8536 159.315C17.6044 155.739 17.2392 155.912 18.4308 159.507C24.4078 177.655 36.2081 195.131 51.3525 208.299C52.1789 209.011 52.8515 209.645 52.8515 209.684C52.8515 209.741 52.3519 209.376 51.7561 208.857C44.9719 203.166 39.0333 196.899 33.7289 189.844C29.3854 184.076 26.3681 179.078 22.1592 170.715C20.5256 167.485 19.065 164.717 18.9112 164.563C18.6806 164.333 18.6422 164.333 18.6422 164.659C18.6422 165.121 19.0073 166.332 19.68 168.101C19.949 168.812 20.1412 169.485 20.0836 169.581C19.7569 170.1 25.8492 181 29.6161 186.614C36.4003 196.726 45.6061 206.396 55.6383 213.971C58.4442 216.066 63.6909 219.546 66.7851 221.353C69.937 223.179 70.3214 223.468 68.1305 222.314C62.903 219.604 55.7536 214.721 50.257 210.126C41.6278 202.936 34.3823 194.9 28.29 185.749C26.0606 182.442 23.7736 178.597 23.9081 178.463C24.0619 178.309 22.8703 176.04 22.3898 175.618C22.1784 175.406 21.6979 174.541 21.352 173.695C21.0061 172.849 20.2565 171.292 19.6992 170.235C17.6428 166.39 14.6254 158.008 12.9726 151.606C10.8586 143.378 9.80154 136.418 9.41716 127.94C9.1481 122.327 9.09045 121.904 9.07123 125.345C8.97513 133.688 10.6087 144.647 13.357 154.201C16.5281 165.179 21.4289 175.887 27.5981 185.268C28.5975 186.787 29.3662 188.133 29.3086 188.229C29.0779 188.575 31.807 192.305 36.5156 198.091C36.8423 198.495 36.5925 198.36 35.7469 197.649C34.3247 196.476 34.0748 196.611 34.9589 198.072L35.5547 199.072L34.6706 198.11C33.21 196.553 29.4431 191.785 27.4444 188.979C21.2367 180.251 15.8747 170.042 12.3576 160.238C11.8195 158.757 11.2814 157.277 11.1661 156.97L10.9547 156.393L11.0315 157.066C11.07 157.431 11.6465 159.257 12.3 161.103C18.2001 177.617 27.6173 192.554 39.975 204.954C43.8956 208.876 45.9904 210.76 50.3531 214.259C55.0809 218.046 57.3872 219.738 61.3078 222.333C77.8936 233.349 96.4781 239.655 116.504 241.078C120.655 241.366 129.112 241.308 133.397 240.962C147.831 239.809 162.091 235.925 175.064 229.62C186.153 224.237 197.415 216.585 205.583 208.895C206.678 207.877 207.601 207.05 207.639 207.05C207.966 207.05 206.928 208.396 205.679 209.568C198.011 216.893 186.729 224.64 176.563 229.543C160.342 237.386 143.564 241.289 125.114 241.558C106.376 241.808 88.5984 237.886 71.609 229.735C54.2929 221.43 39.3023 209.126 27.6173 193.593C14.6639 176.386 6.82263 157.123 4.2281 136.111C3.67076 131.535 3.24794 128.805 3.07498 128.709C2.49841 128.363 2.76748 134.727 3.55544 140.013C6.53435 160.295 14.6254 179.443 26.9831 195.515C39.2062 211.414 55.5614 224.237 73.9922 232.388C95.2866 241.808 117.811 244.826 141.45 241.443C155.307 239.463 170.297 234.368 182.655 227.428C198.049 218.815 210.484 207.838 221.362 193.304C229.645 182.25 236.371 168.408 240.33 154.278C243.309 143.628 244.616 134.035 244.924 120.539C244.943 119.116 244.962 121.019 244.924 124.768C244.905 129.324 244.77 132.593 244.578 134.573C242.502 154.624 236.602 171.946 226.185 188.575C225.032 190.421 224.11 191.958 224.167 191.997C224.302 192.151 225.57 190.44 227.127 188.017C236.564 173.234 242.579 156.431 244.924 138.418C245.846 131.305 246.173 120.539 245.635 114.099C244.482 99.9299 241.464 87.3954 236.391 75.6492C235.853 74.3803 235.141 72.5732 234.815 71.6312C231.855 62.8263 224.494 50.5609 216.403 40.9486C213.578 37.6035 207.582 31.5862 204.391 28.9524C198.876 24.3769 192.245 19.7245 188.344 17.7059C180.349 13.5919 177.139 12.0923 172.008 10.093C170.586 9.53546 168.03 8.51656 166.338 7.84369C157.132 4.09488 146.735 1.65335 134.916 0.461411C130.495 0.0192413 118.311 -0.0768738 113.871 0.288391ZM79.4695 9.93918C66.3047 15.1683 53.4089 22.9158 43.2422 31.7015C40.5131 34.0662 35.5354 38.9108 32.864 41.8137C31.1151 43.7169 31.1536 43.5632 33.037 41.237C38.0531 35.0466 47.797 26.8377 57.1758 20.9165C63.6717 16.8024 72.5508 12.2461 77.932 10.266C79.6617 9.63159 80.9301 9.36244 79.4695 9.93918ZM63.8255 21.0318C63.6909 21.1856 62.8069 21.7816 61.8267 22.3583C54.3506 26.8185 45.337 34.0277 39.6867 40.0258C37.6303 42.2174 31.7686 47.8695 32.5565 46.9082C32.8448 46.543 34.2478 44.9858 35.6508 43.4478C43.1653 35.2581 51.8714 28.1065 61.5769 22.1661C62.8453 21.3971 63.9215 20.7627 63.96 20.7627C64.0176 20.7627 63.9408 20.878 63.8255 21.0318ZM22.1015 60.4617C22.1015 60.5001 21.7556 61.1153 21.3328 61.8074C20.3526 63.403 18.6998 66.6904 17.3161 69.8049C16.7203 71.1313 16.0476 72.4002 15.8362 72.6309C15.0867 73.4383 10.8201 83.2621 9.60935 86.9917C9.20576 88.2798 8.8406 88.9719 8.8406 88.4912C8.8406 87.7607 11.5312 80.3784 13.1648 76.5912C15.1059 72.0926 18.2386 66.1906 21.2559 61.2691C21.7364 60.5001 22.1015 60.1348 22.1015 60.4617ZM13.7222 78.7635C12.1462 82.5316 9.53248 90.3945 8.59076 94.201C7.87966 97.0847 7.01482 101.814 6.36138 106.274C6.14998 107.677 5.90013 108.946 5.80404 109.062C5.70794 109.196 5.57341 109.465 5.51576 109.677C5.28513 110.465 5.61185 107.831 6.26529 103.602C6.97638 98.8918 7.87966 94.97 9.39795 89.9523C10.8201 85.1846 14.1834 76.322 14.3564 76.8411C14.3948 76.9564 14.1065 77.8215 13.7222 78.7635ZM3.40169 104.813C3.34404 104.967 3.28638 104.909 3.28638 104.698C3.26716 104.486 3.32482 104.371 3.38248 104.448C3.44013 104.505 3.45935 104.678 3.40169 104.813ZM5.86169 111.676C5.78482 112.157 5.66951 112.445 5.63107 112.311C5.57341 112.176 5.59263 111.561 5.68873 110.965C5.78482 110.273 5.86169 110.042 5.91935 110.33C5.95779 110.58 5.93857 111.196 5.86169 111.676ZM47.7778 208.415C59.2322 218.469 72.5892 226.102 87.0609 230.888C93.8644 233.138 101.61 234.849 109.605 235.887C112.295 236.233 113.391 236.444 115.601 237.021C116.696 237.31 114.006 237.137 110.008 236.656C84.1205 233.522 60.3084 221.911 42.5695 203.762L40.2633 201.398L42.877 203.897C44.2992 205.281 46.5094 207.3 47.7778 208.415ZM108.836 230.254C108.701 230.293 108.432 230.293 108.259 230.254C108.067 230.196 108.182 230.158 108.49 230.158C108.817 230.158 108.951 230.196 108.836 230.254Z" fill="#CD2E3A"/>
<path id="Vector_2" d="M220.804 196.611C212.579 207.069 203.104 215.816 192.091 223.102C176.755 233.272 159.573 239.789 141.834 242.212C137.991 242.75 137.452 242.846 137.76 242.942C138.144 243.096 144.121 242.25 147.888 241.539C166.127 238.021 183.193 230.446 198.241 219.142C204.949 214.125 211.252 208.261 216.749 201.975C219.209 199.149 222.053 195.534 221.919 195.4C221.88 195.342 221.362 195.9 220.804 196.611Z" fill="#CD2E3A"/>
</g>
</g>
<defs>
<clipPath id="clip0_30_107">
<rect width="246" height="243" fill="white"/>
</clipPath>
</defs>
</svg>
