<svg width="175" height="243" viewBox="0 0 175 243" fill="none" xmlns="http://www.w3.org/2000/svg">
<g id="vecteezy_vector-karate-taekwondo-kick_8630728 1" clip-path="url(#clip0_30_111)">
<g id="Group">
<path id="Vector" d="M39.2723 0.215149C38.8547 1.44279 38.3484 2.11359 37.4752 2.63249C36.893 2.97421 36.8677 2.97421 34.5516 2.97421C32.3241 2.98686 32.1595 2.99953 31.2609 3.32858C30.742 3.51843 29.8308 3.79686 29.2486 3.93608C27.7172 4.29045 26.4642 4.83467 24.7683 5.84718C22.6547 7.11281 21.6675 8.18858 20.5411 10.4414C18.6427 14.2383 17.1872 20.7689 17.3644 24.6544L17.4277 26.0086L18.3389 27.8817C19.1109 29.4891 19.3641 29.8814 20.1234 30.6914C21.098 31.7292 21.2625 32.033 21.2625 32.843C21.2625 33.9314 20.4272 34.4756 18.8072 34.4503C16.9214 34.4123 16.5544 34.7414 15.5672 37.3106C14.2256 40.8291 14.0738 41.0442 12.7322 41.3733C11.8589 41.5884 11.4413 41.8289 10.5806 42.6009C9.78328 43.335 8.60625 43.9805 6.65719 44.7905C4.23984 45.803 3.42984 46.613 1.60734 49.8783C0.265781 52.2703 0.0126563 52.9284 0 53.8144C0 55.0673 1.29094 59.0541 2.44266 61.3195C3.10078 62.6231 3.49313 63.1926 4.78406 64.6861C5.69531 65.7366 6.72047 67.4831 10.087 73.7227C11.302 75.9628 11.8589 76.7981 12.8967 77.8866C13.8206 78.8484 14.58 79.3927 16.2633 80.3166C17.8327 81.1772 18.4781 81.8353 18.9211 83.025C19.6425 84.9487 21.0347 88.0495 21.4777 88.7203C22.2623 89.91 25.2998 93.5044 27.1477 95.4281C30.2231 98.6175 33.0328 102.389 33.0328 103.313C33.0328 103.427 32.5013 103.908 31.8431 104.401C30.5902 105.325 30.1219 105.895 28.8689 107.983C27.8438 109.692 27.7298 110.059 27.5147 111.982C27.2236 114.59 27.4894 116.007 28.7044 118.235C29.4511 119.627 30.1725 120.614 30.6788 120.968C31.5773 121.576 33.9314 121.943 36.2602 121.816C38.2092 121.715 38.7788 121.829 39.5002 122.475C40.1203 123.031 40.5633 123.981 41.272 126.183C42.0441 128.613 42.0314 129.106 41.1708 130.929C40.2975 132.764 40.1709 133.384 40.3608 135.131C40.6519 137.953 40.4873 140.889 39.8672 143.712C39.6773 144.61 39.4242 145.901 39.3103 146.559C39.1964 147.217 38.88 148.546 38.6016 149.508C37.7789 152.381 37.4245 155.039 37.2094 160.228C37.0069 164.987 36.855 167.189 36.6525 168.695C36.3867 170.606 36.3994 172.479 36.6905 174.061C37.1714 176.58 37.4625 178.795 37.5891 180.681C37.6523 181.731 37.7663 183.123 37.8422 183.781C37.9181 184.44 38.0194 186.857 38.0827 189.16C38.1459 191.476 38.2345 193.425 38.2852 193.501C38.4117 193.729 38.3738 202.892 38.2345 204.221C38.1586 204.867 37.9434 205.829 37.7156 206.474C37.5005 207.094 37.2094 208.145 37.0702 208.815C36.9436 209.486 36.6778 210.625 36.5006 211.347C35.9438 213.562 36.2095 214.789 37.4498 215.625C37.9181 215.941 38.1333 215.979 41.1328 216.169C44.7398 216.397 48.1697 216.84 48.5494 217.118C49.0809 217.498 48.7266 220.409 47.8406 223.003C47.4863 224.028 47.2711 225.015 47.0813 226.357C46.9294 227.395 46.7016 228.736 46.575 229.331C46.4484 229.926 46.3092 231.027 46.2586 231.799C46.208 232.559 46.1194 233.432 46.0561 233.723C45.9928 234.027 45.1955 235.609 44.2969 237.254C43.3856 238.887 42.525 240.583 42.3858 241.013C42.158 241.709 42.1453 241.861 42.2972 242.291C42.4997 242.911 42.9047 243.051 44.3728 242.975C45.2208 242.924 45.5625 242.848 46.3345 242.468C47.4989 241.924 48.0558 241.443 48.967 240.216C49.3467 239.697 50.1947 238.71 50.8402 238.039C52.207 236.596 53.1309 235.381 54.4852 233.229C56.1938 230.521 59.1173 226.699 60.0159 225.977C60.4463 225.623 61.4334 224.712 62.2055 223.952C64.3823 221.775 64.9013 220.624 64.3697 219.105C64.1545 218.498 62.9395 215.966 62.4459 215.131L62.1042 214.536L62.3194 213.865C62.5598 213.081 62.5345 212.865 61.8258 210.157L61.3575 208.385L61.4334 205.601C61.522 202.082 62.0409 196.817 62.5852 194.02C62.6991 193.388 62.8383 191.021 62.9648 186.996C63.0661 183.655 63.218 180.516 63.2939 180.035C63.3572 179.542 63.6736 178.099 63.9773 176.808C64.6481 174.011 64.7367 173.391 64.9898 169.784C65.1417 167.619 65.2556 166.67 65.5467 165.48C65.7492 164.645 66.1289 162.709 66.382 161.19C66.6352 159.659 67.0781 157.494 67.3439 156.381C67.6224 155.254 67.9894 153.52 68.1666 152.508C68.3438 151.495 68.5969 150.23 68.7361 149.698C68.8627 149.167 69.0145 148.293 69.0652 147.762C69.1158 147.066 69.1917 146.775 69.3436 146.699C69.4575 146.635 70.2042 146.559 71.0016 146.521C72.3178 146.458 72.5709 146.395 73.6594 145.952C75.2161 145.306 75.368 145.117 75.3553 143.737C75.3553 142.902 75.2541 142.345 74.8111 140.864C74.5073 139.852 74.077 138.573 73.8492 138.016C73.2924 136.662 73.2291 136.308 73.4063 135.46C73.6847 134.08 75.6338 130.41 78.1397 126.575C78.7345 125.677 79.3547 124.651 79.5319 124.322C79.8989 123.576 81.8986 120.057 83.8223 116.754C86.8978 111.464 90.7074 106.831 92.8336 105.806C93.112 105.667 93.7955 105.503 94.3523 105.427C95.7319 105.237 96.3773 105.009 97.5544 104.3C98.1113 103.958 98.8959 103.566 99.3009 103.414C100.187 103.072 101.351 102.503 102.136 102.009C102.87 101.541 105.098 100.655 106.173 100.415C106.831 100.25 107.388 100.238 108.806 100.301C110.818 100.402 111.337 100.301 113.008 99.5287C114.362 98.8833 115.172 98.7061 117.02 98.6302C118.792 98.5542 120.943 98.7188 122.513 99.0605C123.791 99.3389 123.981 99.3262 124.829 98.8327C125.221 98.5922 126.221 98.01 127.043 97.5291C127.853 97.0481 128.841 96.5545 129.22 96.428C130.334 96.0736 130.98 95.7445 133.308 94.3903C134.498 93.6816 136.004 92.8969 136.637 92.6311C137.27 92.378 138.092 92.0109 138.472 91.8211C138.953 91.568 139.687 91.3781 140.927 91.1756C143.092 90.8086 143.648 90.7959 144.598 91.125C145.433 91.4161 146.458 91.4414 148.065 91.2516C148.964 91.1376 149.217 91.1503 149.761 91.3275C150.293 91.5047 150.673 91.53 152.04 91.4541C152.938 91.4034 154.368 91.2769 155.216 91.1756C156.052 91.0617 158.064 90.9478 159.659 90.9098C162.025 90.8592 162.759 90.8845 163.582 91.0491C164.139 91.1503 165.189 91.3022 165.923 91.3781C166.658 91.4414 167.999 91.6059 168.898 91.7578C170.72 92.0362 172.581 92.0869 173.062 91.8717C173.429 91.6945 174.403 90.2517 174.403 89.872C174.403 89.7328 174.226 89.4164 174.023 89.1759C173.707 88.8216 173.606 88.5431 173.467 87.6698C173.264 86.4548 173.226 86.3536 172.365 85.1892C172.024 84.7209 171.745 84.1894 171.745 84.0248C171.745 83.5819 171.505 83.2908 170.454 82.4555C169.948 82.0505 169.303 81.4683 169.024 81.1772C168.455 80.5823 168.037 80.4305 166.468 80.2153C165.202 80.0381 163.987 80.19 162.797 80.6836C161.43 81.2278 160.861 81.0886 160.861 80.1647C160.861 79.5066 161.089 78.8105 161.987 76.7855C162.785 75.0136 162.924 74.115 162.532 73.4189C161.937 72.3431 160.57 72.2039 158.393 72.9886C156.431 73.71 153.698 74.8997 151.609 75.9375C149.761 76.8741 147.711 77.5448 145.914 77.8359C144.737 78.0131 140.396 78.0258 138.687 77.8359C137.966 77.76 136.27 77.5069 134.916 77.2664C131.587 76.6716 130.157 76.5323 128.651 76.6336C126.752 76.7475 123.462 77.1905 122.386 77.4562C121.867 77.5828 119.475 78.0384 117.07 78.4688C114.666 78.8864 111.856 79.4686 110.805 79.7344C107.641 80.557 102.06 81.3544 101.718 81.0126C101.63 80.9241 101.541 80.2659 101.503 79.4433C101.44 78.3548 101.364 77.9119 101.161 77.5195C100.68 76.583 100.68 76.4817 101.187 75.9122C101.44 75.6337 101.744 75.2034 101.845 74.9503C102.225 74.0391 101.693 72.8367 100.301 71.5205C98.8074 70.103 97.8708 69.5208 95.7952 68.7108C93.0361 67.6223 91.492 66.7744 90.2517 65.6353C89.6063 65.0405 80.3419 57.3201 78.8991 56.1684C76.2666 54.0928 68.9766 48.6506 68.0147 48.0558C65.0405 46.2459 63.4838 45.3727 60.4463 43.7906L57.1556 42.082L56.5228 41.1455C55.8394 40.1456 55.5103 39.8672 53.1056 38.3358C50.6123 36.7411 49.6252 36.3741 48.157 36.488C46.8914 36.6019 46.2206 36.8423 45.1195 37.5764C43.297 38.7914 43.2084 38.2472 44.8031 35.8805C46.2839 33.7036 46.7775 32.4253 47.3344 29.2739L47.7141 27.1476L47.1192 26.0086L46.537 24.8695L46.4231 22.9711C46.3725 21.9206 46.2839 20.7689 46.2206 20.4019C46.1573 20.0348 46.1573 19.402 46.208 19.0097C46.3345 18.1111 46.1194 17.2631 45.4233 16.0101C45.1575 15.5039 44.8917 14.8331 44.8538 14.5041C44.7652 13.8965 44.7652 13.8965 45.0563 14.0484C45.2208 14.137 45.4739 14.3522 45.6258 14.5294C45.7777 14.6939 46.0941 14.9091 46.3219 14.985C46.6763 15.0989 46.7902 15.2381 46.9547 15.6684C47.1572 16.2506 47.4736 16.5291 47.8027 16.4025C47.9672 16.3392 47.9925 16.1747 47.9166 15.4406C47.8533 14.7572 47.8786 14.5547 48.0052 14.5547C48.195 14.5547 48.9544 15.3267 49.2708 15.8456C49.5492 16.2886 50.0555 16.3266 50.1694 15.9089C50.2453 15.6178 49.9542 13.3397 49.7138 12.4664C49.4986 11.6437 49.2834 11.3147 48.5747 10.8084C48.2077 10.5553 47.8533 10.2895 47.8027 10.2389C47.7394 10.1883 47.79 9.99843 47.9166 9.80858C48.1444 9.45421 48.1444 9.45421 47.8659 9.26436C47.7141 9.16312 47.5875 9.03654 47.5875 8.98593C47.5875 8.92264 47.9925 8.58093 48.4734 8.22655C49.3214 7.59373 49.6125 7.27733 49.6125 6.97359C49.6125 6.75842 49.0177 6.80905 48.4988 7.07483C47.7773 7.42921 47.3597 7.49249 46.6256 7.34061C45.9548 7.2014 45.9422 7.18874 45.9422 6.75842C45.9422 6.51796 46.0055 6.2142 46.0941 6.08765C46.2839 5.78389 46.1447 5.44217 45.8156 5.44217C45.6764 5.44217 45.5625 5.40421 45.5625 5.36624C45.5625 5.32826 45.8156 5.01186 46.132 4.65749C46.942 3.74623 47.0813 2.78436 46.3852 2.78436C45.9802 2.78436 45.7017 2.93623 44.8158 3.59436C44.1956 4.06264 44.0564 4.11327 43.4236 4.11327C42.9173 4.11327 42.4997 4.01202 41.9934 3.77155C41.3227 3.4678 41.272 3.40453 41.3733 3.13873C41.6264 2.45531 41.6391 2.1642 41.4366 1.97437C41.1708 1.70859 41.0948 1.72124 40.6392 2.10092L40.2469 2.42999V1.46811C40.2469 0.670776 40.1963 0.455612 39.9938 0.253113C39.6773 -0.0632935 39.3736 -0.075943 39.2723 0.215149ZM37.0195 10.1883C39.7153 10.6312 41.9302 11.5551 42.6136 12.517C42.9047 12.9347 42.6263 12.8334 41.5631 12.0994C39.6267 10.7958 39.1331 10.6439 36.3867 10.5553C33.4252 10.4414 31.7925 10.8591 30.6408 12.0108C30.0206 12.6309 29.7169 13.2131 29.4384 14.3015C29.3245 14.7572 29.0714 15.3394 28.8816 15.6051C27.9323 16.9214 27.8438 17.2505 28.1095 18.4781C28.1855 18.8325 28.2108 19.1615 28.1602 19.2122C28.0083 19.3767 27.2236 18.3769 27.135 17.9086C27.0717 17.5415 27.1097 17.3897 27.3122 17.1745C27.5147 16.9594 27.578 16.6809 27.6159 15.8962L27.6666 14.8964L28.4006 14.2509L29.1347 13.5928L29.0841 12.7195L29.0461 11.8462L29.4891 11.6184C30.6661 11.0489 32.7417 10.125 32.9695 10.087C33.577 9.9478 35.9691 10.0111 37.0195 10.1883ZM25.0594 22.0472C25.3505 22.5155 25.6289 23.7305 25.7681 24.9961L25.8567 25.882L25.5909 25.6416C25.4517 25.515 25.2366 25.1606 25.1353 24.8442C25.0341 24.5405 24.7177 23.933 24.4266 23.5153C23.8823 22.6926 23.8064 22.3636 24.1228 21.9206C24.4013 21.5283 24.7683 21.5662 25.0594 22.0472ZM36.0323 35.4248C36.5639 35.7792 37.5005 36.2728 38.1333 36.5386C38.7534 36.8044 39.1711 37.0322 39.0572 37.0575C38.6775 37.1334 37.0195 36.817 36.5006 36.5639C35.7539 36.2095 32.9316 33.8175 32.3873 33.0834C31.8811 32.4126 31.5141 31.7419 31.5141 31.5014C31.5141 31.4255 32.3114 32.1342 33.2859 33.0708C34.2605 34.02 35.5008 35.0831 36.0323 35.4248ZM19.0856 38.2598C19.7058 39.3609 21.4017 41.3733 22.7686 42.6389C23.4647 43.2717 24.338 44.2462 24.7177 44.7778C25.3631 45.7017 26.4136 46.7395 29.1094 49.1062C30.4003 50.2453 30.8306 50.7009 31.0205 51.1692C31.1597 51.4856 31.1217 51.6248 30.6914 52.4348C29.932 53.9156 29.2359 55.0547 29.1094 55.0547C29.0461 55.0547 28.7677 54.7509 28.4892 54.3839C27.0211 52.4095 21.4523 46.9041 18.8958 44.8791C17.0986 43.4615 16.8202 43.1958 16.7063 42.7655C16.4911 41.9934 16.8202 40.3734 17.4023 39.2217C17.7061 38.6395 18.4781 37.5891 18.6047 37.5891C18.6553 37.5891 18.8831 37.8928 19.0856 38.2598ZM50.4605 39.2344C51.0933 39.4622 52.8272 40.4114 54.0802 41.2341C54.9661 41.8289 55.2952 42.7401 54.8269 43.4236C54.4219 44.0311 52.5867 45.9548 51.9539 46.4358C51.0933 47.1066 48.9797 47.8533 48.9797 47.4862C48.9797 47.1698 49.448 46.8028 50.182 46.5876C51.2958 46.2333 51.6122 46.0561 52.283 45.3473C53.1942 44.4108 53.5359 43.4615 53.1309 43.0565C52.7133 42.6389 52.0425 42.9426 50.7136 44.145C49.7517 45.0183 48.8911 45.6384 48.7772 45.5245C48.7266 45.4866 48.7266 45.3094 48.7645 45.1575C48.8278 44.9423 49.0936 44.7272 49.7517 44.4234C51.5742 43.5375 52.3083 42.12 51.2831 41.4112C50.8908 41.1455 49.1569 40.5 48.8152 40.5C48.6886 40.5 48.3848 40.6898 48.1444 40.9303C47.8533 41.2087 47.5369 41.3859 47.1952 41.4366C46.9167 41.4872 45.9548 41.8922 45.0563 42.3351C43.3856 43.1705 42.9933 43.1705 44.2589 42.3351C44.6386 42.082 45.5498 41.31 46.2713 40.6139C46.9927 39.9178 47.7647 39.2723 47.9925 39.1711C48.5873 38.918 49.6252 38.9433 50.4605 39.2344ZM41.7656 44.6512C41.7656 44.8537 40.5886 46.6509 40.1077 47.1698C39.5381 47.79 39.5255 47.8786 39.8672 48.2203C40.1709 48.524 40.3861 48.5747 41.8922 48.638C42.5503 48.6759 43.1958 48.7392 43.3223 48.7898C43.6261 48.9164 43.5502 49.2075 43.1325 49.5239L42.7781 49.7897L41.7783 49.2581C40.8923 48.7772 40.6898 48.7265 39.9178 48.7265C39.4369 48.7265 38.8294 48.6633 38.5636 48.5873C38.1459 48.4734 38.0953 48.4228 38.1713 48.1823C38.5003 47.1192 39.5888 45.8283 40.8164 45.0436C41.5884 44.5373 41.7656 44.4741 41.7656 44.6512ZM12.8208 47.7141C14.4155 48.524 16.0608 49.7264 17.3391 51.0047C18.7313 52.3969 19.402 53.4853 19.1489 53.9156C18.997 54.1308 19.0223 54.1687 19.3134 54.2447C19.5666 54.308 19.7691 54.5991 20.2753 55.6116C21.6042 58.2694 22.9838 60.0159 24.2114 60.6108C24.7303 60.8639 24.9708 60.9019 25.7302 60.8512C26.9452 60.7753 27.4894 60.4716 28.5398 59.2945C29.0208 58.763 29.8561 57.953 30.4003 57.4973C31.1723 56.8519 31.4888 56.4975 31.7925 55.89C32.5898 54.2953 33.0455 53.6625 33.9061 52.979C34.6781 52.3589 34.8047 52.1944 35.197 51.2578C35.4628 50.6123 35.7539 50.1061 35.9564 49.9542C36.4627 49.5872 37.3486 49.6378 38.475 50.0808C38.9939 50.2959 39.652 50.4984 39.9305 50.5491C41.4113 50.8275 42.7781 51.5236 43.9678 52.6373C44.3222 52.979 45.1069 53.5612 45.7017 53.9409C46.6889 54.5737 46.8661 54.7509 47.6255 55.89C48.2077 56.7506 48.4734 57.2569 48.4734 57.5226C48.4734 58.1301 47.6255 59.4464 46.8661 60.0033C46.2206 60.4842 45.5245 61.4587 45.1069 62.4712C44.8411 63.104 44.1197 64.1166 42.1706 66.6098C40.5506 68.6728 40.095 69.1031 38.1586 70.4067C36.4627 71.5458 34.6908 73.1405 33.5138 74.5833C32.9316 75.2794 32.1089 76.2412 31.6786 76.7222C31.2483 77.1905 30.6281 77.9878 30.2991 78.4814C29.97 78.975 29.0461 80.0634 28.2361 80.9114C26.6288 82.582 25.9327 83.025 24.9328 83.025C24.3127 83.025 23.2242 82.582 22.9078 82.2023C22.7306 81.9872 22.7813 81.9745 24.1355 82.0505C25.515 82.1137 25.553 82.1137 26.0972 81.772C26.4009 81.5695 26.7806 81.2531 26.9578 81.0633C27.135 80.8734 27.6033 80.557 28.0083 80.3672C28.9195 79.9242 29.198 79.6837 29.4384 79.1142C29.5397 78.8737 29.8055 78.4434 30.0333 78.165C30.2611 77.8739 30.6788 77.2791 30.9445 76.8361C31.223 76.3678 31.6027 75.9248 31.8558 75.7856C32.3114 75.5072 33.1847 74.3681 33.7036 73.343C33.9441 72.8747 34.6275 72.1533 36.2602 70.6219C37.5005 69.4702 38.6269 68.3311 38.7914 68.0906C38.9433 67.8501 39.2091 67.2806 39.3736 66.825C39.6394 66.0783 39.8166 65.8505 41.4239 64.2431C42.3858 63.2812 43.2591 62.3067 43.3603 62.0662C43.5881 61.5347 43.5881 60.8892 43.3477 59.9273C43.0439 58.649 43.0819 58.3453 43.74 57.4594C44.6892 56.1684 44.7272 55.8014 44.0438 55.0041C43.4995 54.3966 42.5883 53.8397 41.5378 53.4853C41.0442 53.3081 40.3734 52.9917 40.057 52.7766C39.1964 52.1817 38.475 51.8906 37.8548 51.8906C37.3359 51.8906 37.2473 51.9412 36.5892 52.6373C35.3489 53.9409 32.7417 56.333 31.9064 56.9278C31.2609 57.3834 30.9319 57.7631 30.2991 58.7377C29.4258 60.0919 29.2486 60.2437 28.1981 60.6108C26.3123 61.2562 25.5783 62.2434 25.1859 64.6228C25.11 65.0278 25.0088 66.5339 24.9328 67.9641C24.7809 70.9003 24.6544 71.8369 24.262 72.5709C23.857 73.3683 23.857 72.8873 24.2873 70.7864C24.6291 69.0525 24.667 68.7234 24.6544 66.4073C24.6417 64.6481 24.5911 63.8508 24.4772 63.6989C24.262 63.3825 24.0089 63.6356 23.6798 64.5216C23.3634 65.3695 22.5028 67.1414 22.5914 66.7491C22.6294 66.5972 22.7433 66.0276 22.8319 65.4834C22.9331 64.9266 23.1609 64.1925 23.3381 63.8634C23.5786 63.3951 23.6672 63.0534 23.6672 62.5092C23.6672 61.7751 23.6545 61.7625 23.1989 61.522C22.5028 61.1676 22.2497 60.8386 22.1358 60.0919C22.0219 59.3831 22.0219 59.3705 20.7056 57.877C20.2247 57.3328 19.6425 56.5734 19.3894 56.1937C18.5034 54.8016 17.6048 54.0548 15.3141 52.8145C14.2763 52.245 13.9598 52.0172 14.1877 52.0172C14.6306 52.0172 15.8203 52.4348 16.6809 52.9031C17.5416 53.3714 17.8453 53.3967 17.8453 52.9917C17.8453 52.2703 16.7948 51.2325 13.9092 49.1316C11.9475 47.6887 11.4033 47.2078 11.7323 47.2078C11.7956 47.2078 12.2766 47.4356 12.8208 47.7141ZM61.0664 50.7516C61.3702 51.7894 61.4334 52.245 61.4841 54.0422C61.5094 55.1939 61.4714 56.9278 61.3955 57.9023C61.0538 61.9017 61.0538 62.1801 61.4334 62.9269C61.6106 63.2939 62.2181 64.1419 62.775 64.8C63.3319 65.4581 64.028 66.4453 64.3191 66.9895C65.205 68.5969 65.1924 68.5969 65.1038 66.9769C65.0152 65.61 65.0658 65.3695 65.3949 65.6986C65.4834 65.7872 65.6606 65.7492 65.9644 65.5594C66.4453 65.2809 67.7109 65.0658 67.7109 65.2683C67.7109 65.3316 67.4578 65.6353 67.1414 65.9391C66.5972 66.4706 66.0656 67.4958 66.2302 67.673C66.3947 67.8248 67.2806 67.4578 67.9641 66.9516C68.7361 66.382 69.0778 66.2808 68.8247 66.7111C68.7361 66.8503 68.3311 67.1414 67.9388 67.3439C66.8123 67.9134 66.6605 68.2805 67.0022 69.5714C67.192 70.2928 67.0781 70.4827 66.825 69.8625C66.6098 69.3436 66.5086 69.3056 66.0656 69.5587C65.7113 69.7739 65.6859 69.7739 65.4202 69.5334C65.2683 69.4069 64.9898 68.9639 64.7747 68.5589C64.5722 68.1539 64.1925 67.5844 63.9267 67.2933C62.8889 66.1669 61.7498 64.7114 61.5094 64.2305C61.155 63.509 60.75 61.8384 60.75 61.1297C60.75 60.8006 60.8133 60.0792 60.8892 59.5097C61.0031 58.6364 60.9905 58.2188 60.7627 56.6747C60.3577 53.8903 60.2058 52.0551 60.2944 50.9667C60.3577 50.1314 60.5602 49.372 60.6867 49.5112C60.6994 49.5239 60.8766 50.0934 61.0664 50.7516ZM55.9027 55.7381C55.8647 56.3076 55.7128 57.472 55.5609 58.3453C55.118 60.8766 55.3205 61.522 56.8266 62.6484C57.3708 63.0408 58.282 63.6356 58.8642 63.9773C60.8006 65.0784 61.0031 65.3442 61.0031 66.6351C61.0031 67.5717 61.5473 70.9889 61.7625 71.3812C62.1549 72.1153 63.952 72.9253 65.6859 73.1278C66.7997 73.267 68.3691 73.7606 69.7486 74.4187C70.6978 74.8617 71.0395 74.887 72.1153 74.5453C73.6214 74.077 74.9503 74.3048 77.1778 75.4186C78.2789 75.9628 78.8991 76.1273 80.6203 76.3172C81.6834 76.4311 81.9619 76.5197 83.0883 77.0892C84.8475 78.0005 85.2905 78.3169 86.9484 79.9242C88.3786 81.3164 88.4419 81.3544 89.7581 81.8733L91.1124 82.3922L93.4284 82.3669C95.3902 82.3289 95.8205 82.3669 96.2255 82.5441C96.4786 82.658 96.6938 82.8098 96.6938 82.8731C96.6938 83.0883 95.4155 83.1642 94.1372 83.0123C92.9602 82.8731 92.5678 82.8858 90.7327 83.1009C89.3531 83.2528 87.5306 82.4681 85.7461 80.9367C83.8603 79.3294 80.1647 77.2031 79.2408 77.2031C78.7092 77.2031 76.5956 76.6716 75.6844 76.3172C75.3427 76.178 74.0517 75.8236 72.8114 75.5072C71.0648 75.0769 70.1536 74.9123 68.7741 74.8111C67.2047 74.6972 66.9009 74.6339 66.1795 74.2922C65.7366 74.0897 65.2303 73.9125 65.0658 73.9125C64.7747 73.9125 64.7747 73.9378 64.8506 74.5073C64.9645 75.368 65.9264 77.317 66.458 77.76C66.6984 77.9498 67.2553 78.3422 67.6983 78.6333C68.6475 79.2534 69.1664 79.9369 69.7233 81.3417C69.9384 81.8859 70.47 83.025 70.9003 83.873C71.3306 84.7209 71.6597 85.455 71.6217 85.4803C71.4698 85.6448 70.9256 85.05 69.6853 83.4173C68.9639 82.4555 68.1413 81.2151 67.8502 80.6583C67.2806 79.5698 66.7744 78.975 66.5719 79.1775C66.5086 79.2408 66.42 79.6331 66.3694 80.0508C66.3188 80.4684 66.2175 80.8861 66.1416 80.9873C66.0656 81.0759 65.5974 81.3417 65.0911 81.5822C64.2052 81.9872 64.1545 82.0251 63.7622 82.8225C63.5344 83.2781 63.3192 83.6578 63.2686 83.6578C63.0788 83.6578 63.0534 83.0883 63.218 82.7212C63.3066 82.5061 63.7116 81.9619 64.1166 81.5062C64.5089 81.0506 64.9392 80.4558 65.0658 80.1773C65.5214 79.1902 65.3063 77.1398 64.6228 76.0641C64.4709 75.8236 64.2938 75.5325 64.2305 75.4186C63.1167 73.5581 62.3194 72.5709 61.1044 71.5711C60.8133 71.3306 60.788 71.2167 60.712 69.6727C60.5855 67.0655 60.1298 65.9644 58.4845 64.3444C57.6239 63.4837 56.9405 63.0661 55.5609 62.5851C54.4978 62.2055 54.0928 61.8891 53.9789 61.3828C53.8777 60.9272 54.1814 59.6362 54.7256 58.244C54.9661 57.5986 55.2066 56.662 55.2952 56.0292C55.3838 55.4091 55.4977 54.7636 55.5736 54.5737C55.8141 53.9536 55.9913 54.5737 55.9027 55.7381ZM44.9297 66.4959C44.9297 67.3059 45.0942 67.5211 45.7903 67.6476L46.2839 67.7236L46.3598 69.2297C46.4231 70.4953 46.4864 70.8244 46.7522 71.3686C47.3217 72.4697 47.1952 72.6469 45.5625 73.1025C45.1069 73.2164 44.1197 73.5961 43.3477 73.9252C42.5883 74.2542 41.3606 74.7731 40.6266 75.0895C39.0445 75.773 38.5383 75.8995 38.437 75.6464C38.3991 75.5452 38.2978 75.0389 38.2092 74.5073C38.0573 73.6087 38.0573 73.5202 38.2978 73.267C38.4244 73.1151 39.1078 72.7101 39.8039 72.3684C41.2088 71.685 41.2847 71.6217 42.0061 70.6219C43.3603 68.7614 43.6008 68.3564 43.9425 67.3439C44.4867 65.7239 44.9297 65.3442 44.9297 66.4959ZM83.43 67.8881C83.6199 67.9261 83.835 68.078 83.9109 68.2172C83.9869 68.3564 84.4678 68.9766 84.9741 69.5841C86.4802 71.3939 86.5434 71.7989 85.1513 70.5459C84.7083 70.1536 84.0122 69.66 83.5945 69.4575C82.8858 69.1031 81.405 67.7616 81.5569 67.6223C81.5948 67.5844 81.81 67.673 82.0505 67.8248C82.5694 68.1413 82.6959 68.0526 82.4555 67.5717C82.1644 67.0275 82.2277 66.9895 82.6833 67.4198C82.8984 67.635 83.2402 67.8375 83.43 67.8881ZM83.2781 70.5839C83.5313 71.0775 84.1514 71.9761 84.6703 72.5836C85.6828 73.748 85.8853 74.0391 85.7208 74.0391C85.5689 74.0391 82.5314 70.9509 82.1011 70.3561C81.6202 69.7106 81.6581 69.5841 82.3036 69.6347C82.8225 69.6727 82.8352 69.6853 83.2781 70.5839ZM57.4594 71.5964C57.5353 72.2798 57.6872 73.0266 57.7884 73.267C58.0289 73.8492 58.0163 74.2289 57.6998 75.1908C56.9911 77.393 56.333 78.2156 55.3331 78.2156C54.7256 78.2156 53.9156 78.5827 53.9156 78.8611C53.9156 78.9244 53.4727 79.4306 52.9411 79.9622C52.2577 80.6456 51.7641 81.2784 51.3338 82.0505C50.7895 83.0123 50.6377 83.2022 50.1188 83.468C49.7897 83.6325 49.3467 83.9869 49.1442 84.24L48.7645 84.7083L48.8658 83.8983C48.9291 83.43 49.1822 82.5567 49.4986 81.8226C49.7897 81.1266 50.2453 79.9116 50.5238 79.1142C51.0173 77.6841 51.7261 76.1147 51.84 76.2159C51.9666 76.3551 51.473 78.4055 50.8781 80.1141C50.5364 81.1266 50.2453 82.1264 50.2453 82.3289C50.2453 82.6959 50.2453 82.6959 50.4858 82.4555C50.625 82.3162 51.1439 81.4683 51.6502 80.5823C52.1944 79.6205 52.7006 78.8737 52.8905 78.7472C53.0677 78.6459 53.46 78.3042 53.7384 78.0005C54.1434 77.5828 54.3586 77.4562 54.6623 77.4562C56.0672 77.4562 56.9531 76.0767 56.9531 73.8998C56.9531 72.5456 57.105 70.3687 57.2063 70.3687C57.2569 70.3687 57.3708 70.9256 57.4594 71.5964ZM99.4655 73.4822C99.7059 73.8239 99.7439 74.0011 99.668 74.3808C99.63 74.6466 99.5541 75.1908 99.5161 75.5831C99.4655 76.2033 99.4148 76.3172 99.2123 76.3172C98.6934 76.3172 97.972 76.8487 96.9469 77.9625C95.8711 79.1395 95.2636 79.6331 95.542 79.1142C95.618 78.975 96.4786 78.0384 97.4405 77.0386C98.415 76.0387 99.2503 75.0769 99.2883 74.9123C99.3389 74.7098 99.2503 74.2795 99.0478 73.7353C98.8706 73.2544 98.7188 72.8494 98.7188 72.8241C98.7188 72.6722 99.2123 73.1151 99.4655 73.4822ZM62.4966 74.8491C63.1294 75.4819 63.7495 76.1906 63.8634 76.4311C64.0406 76.8108 64.0533 76.9247 63.8761 77.5701C63.7622 77.9625 63.6356 78.532 63.5977 78.8484C63.4078 80.0508 63.1294 80.3419 61.193 81.4809C59.978 82.1897 59.3452 82.8858 57.8517 85.2019C55.9786 88.0875 55.8773 88.328 55.8773 89.4797C55.89 90.8972 56.4722 91.7958 57.8644 92.5425C58.8389 93.0614 59.2059 93.517 60.6994 96.1242C62.5852 99.4148 62.6358 99.5034 62.9016 100.567C63.4458 102.794 63.7622 106.945 63.4331 107.743C63.0914 108.565 63.3319 110.299 64.1166 112.641C64.357 113.375 64.6734 114.425 64.8 114.982C65.2303 116.792 65.8758 118.462 67.9388 123.082C70.2042 128.157 70.4574 129.068 70.3055 131.435C70.103 134.46 70.1156 134.473 71.0395 137.194C72.2672 140.813 72.533 142.168 72.052 142.307C71.4445 142.471 69.1791 142.762 69.1031 142.674C69.0525 142.623 68.9513 142.092 68.8753 141.497C68.5716 139.333 67.2047 134.346 66.2934 132.131C65.4834 130.144 63.8634 125.74 63.1547 123.601C62.8003 122.487 62.332 121.146 62.1295 120.627C61.3955 118.728 59.7628 112.274 58.9275 107.945C57.3075 99.6806 55.7255 95.4281 54.232 95.4281C53.5359 95.4281 53.1942 95.8458 52.207 97.8834C51.7008 98.9339 51.1566 99.9337 51.0047 100.086C50.7389 100.377 50.6756 100.377 49.5492 100.301C48.157 100.2 47.9166 100.288 47.5748 101.048C47.3597 101.554 47.2711 101.617 46.4231 101.921C45.9169 102.098 45.0056 102.389 44.4108 102.566C43.8159 102.743 43.1705 103.009 42.9806 103.161C42.4364 103.591 42.1073 104.376 42.0947 105.237C42.082 106.135 42.2213 106.654 43.1072 109.097C43.5122 110.223 43.9172 111.717 44.1703 112.957C44.512 114.628 44.9297 115.957 46.537 120.538C47.6002 123.588 48.6253 126.36 48.7898 126.689C49.1695 127.436 50.8908 129.613 51.6375 130.283C52.9917 131.511 56.6241 132.498 59.7628 132.511C60.1552 132.511 60.5095 132.562 60.5602 132.625C60.6614 132.802 59.6489 133.46 58.4339 134.03C55.523 135.397 52.1817 135.118 50.22 133.372C49.7138 132.929 46.7395 128.55 45.6384 126.638C45.2714 126.006 44.7272 124.942 44.4361 124.284C43.6008 122.437 42.7655 120.905 41.9808 119.817C41.2467 118.792 40.8797 117.969 40.6392 116.817C40.3608 115.4 39.7406 108.337 39.7406 106.477C39.7406 104.325 39.6394 103.845 39.0952 103.326C38.7281 102.971 38.6648 102.959 37.1714 102.895C35.64 102.819 35.0578 102.667 34.7161 102.237C34.6402 102.149 34.425 101.668 34.2352 101.187C34.0453 100.693 33.6909 99.9211 33.4631 99.4528C33.2227 98.9845 33.0328 98.5163 33.0328 98.4277C33.0328 98.1872 34.0959 97.7316 35.0578 97.567C35.5134 97.4911 36.4753 97.3898 37.2094 97.3266C38.5763 97.2253 39.4116 97.0355 40.7784 96.4912C41.4745 96.2255 41.7656 95.9977 43.0313 94.6814C44.5373 93.112 45.3853 92.4792 46.2586 92.2514C47.5875 91.897 47.8786 91.568 48.0305 90.3023C48.1444 89.2266 48.3216 88.7456 48.8152 88.0622C49.3973 87.2648 50.4352 86.7586 51.8906 86.5687C54.0295 86.2776 54.3206 86.0245 54.9028 83.8477C54.9914 83.5566 55.3331 82.9997 55.7128 82.5567C56.0798 82.1264 57.2316 80.7975 58.2694 79.5825C59.3072 78.3802 60.2564 77.1651 60.3703 76.8867C60.4969 76.6083 60.6361 75.8995 60.6867 75.3047C60.8006 73.7353 60.8513 73.5328 61.1044 73.6214C61.2183 73.6594 61.8511 74.2162 62.4966 74.8491ZM158.19 76.6842C158.52 77.0133 158.633 77.6714 158.532 78.57C158.494 78.9623 158.406 79.9369 158.33 80.7089C158.203 82.2909 158.051 82.6706 157.102 83.9489C156.786 84.3792 156.381 85.012 156.203 85.3664C156.026 85.7081 155.862 85.9233 155.836 85.8347C155.798 85.7587 156.09 85.012 156.469 84.1894C157.305 82.4175 157.57 81.5569 157.57 80.6583C157.57 80.0887 157.52 79.9242 157.241 79.6711C156.773 79.2408 155.836 79.0636 154.444 79.1269C153.368 79.1902 153.153 79.2408 152.407 79.6458C151.508 80.1267 150.255 80.7469 147.445 82.1011C145.471 83.0503 143.648 84.1261 141.687 85.493C140.927 86.0245 140.054 86.6067 139.738 86.7839C139.421 86.9611 138.586 87.442 137.877 87.8597C137.168 88.2647 135.89 88.8975 135.03 89.2772C132.688 90.2897 130.79 91.2642 128.385 92.707C123.854 95.4281 122.652 95.8205 120.855 95.0991C119.488 94.5548 118.184 94.5295 118.02 95.0358C117.982 95.175 117.766 95.3395 117.551 95.4155C117.045 95.5927 117.07 95.5927 117.07 95.2889C117.07 94.8839 117.716 94.3397 118.488 94.0992C119.146 93.8841 119.247 93.8841 120.019 94.0866C121.842 94.5422 123.259 94.3017 125.55 93.15C126.069 92.8842 127.246 92.3526 128.145 91.9476C130.499 90.9098 132.739 89.6822 133.739 88.8848C134.03 88.657 134.625 88.29 135.068 88.0622C135.51 87.847 136.118 87.5053 136.434 87.2901C137.725 86.4169 142.433 83.7844 143.724 83.2275C144.484 82.8984 145.648 82.3922 146.306 82.1011C146.964 81.81 148.103 81.1772 148.85 80.6709C150.255 79.7344 151.217 79.3041 152.938 78.8484C154.128 78.532 154.254 78.4688 156.001 77.3297C156.748 76.8487 157.494 76.4437 157.659 76.4437C157.823 76.4437 158.064 76.5576 158.19 76.6842ZM99.8578 77.798C99.9591 78.203 99.9338 78.3169 99.7059 78.5573C99.4402 78.8358 99.4402 79.0889 99.6806 80.1394C99.7566 80.4558 99.7313 80.4937 99.4402 80.4937C99.0352 80.4937 98.4656 80.2786 98.4656 80.1394C98.4656 80.0761 98.6681 79.9369 98.9086 79.823L99.3516 79.6078V78.7345C99.3516 77.8992 99.5288 77.0892 99.6806 77.2411C99.7186 77.2791 99.8072 77.5322 99.8578 77.798ZM36.5006 80.6709C36.8297 81.6834 36.9942 83.0123 36.9183 84.0628C36.8297 85.1386 36.7284 85.6069 36.1209 87.7458C35.64 89.4164 35.602 89.7328 35.8805 89.7328C36.2602 89.7328 36.5513 89.2392 37.5258 86.9358C38.6142 84.3412 39.7027 82.1391 39.8798 82.1391C40.133 82.1391 39.9052 83.5439 39.1078 86.8851C38.2219 90.5555 38.1713 91.7578 38.918 91.7578C39.4242 91.7578 39.6647 91.5806 40.3481 90.6567C40.7025 90.1758 41.31 89.4797 41.7023 89.1C42.0947 88.7203 42.5883 88.1634 42.7908 87.8597C43.0059 87.5686 43.2211 87.3281 43.2844 87.3281C43.6388 87.3281 41.9681 90.7706 41.0569 91.935C40.5127 92.6184 38.918 93.9094 37.0828 95.1244C35.8425 95.9597 35.8172 95.9723 35.8172 95.8205C35.8172 95.5927 37.0575 94.3397 37.9688 93.6562C38.4497 93.2766 38.8547 92.9095 38.8547 92.8209C38.8547 92.6311 38.5636 92.5172 38.07 92.5172C37.6903 92.5172 37.6903 92.5172 37.7536 91.9097C37.9814 89.8847 38.0953 87.5306 37.9814 87.4167C37.7536 87.1889 37.5005 87.5433 37.3486 88.3153C37.2727 88.7077 37.0448 89.3911 36.8423 89.8087C36.488 90.5681 35.6527 91.6312 35.4248 91.6312C35.3616 91.6312 35.3109 91.2516 35.3109 90.7706C35.3109 90.3023 35.273 89.7961 35.235 89.6316C35.1464 89.3025 34.7414 89.2645 34.3744 89.543C34.2352 89.6442 34.0073 89.7328 33.8681 89.7328C33.3366 89.7328 33.2227 89.5303 33.1467 88.4039C33.0834 87.442 33.0455 87.2901 32.7038 86.9358C32.5013 86.7206 32.1342 86.4422 31.8938 86.3156C31.4128 86.0625 30.6155 85.3031 30.8433 85.3031C30.9192 85.3031 31.0458 85.3917 31.147 85.5056C31.3495 85.7461 32.4506 86.3156 32.7291 86.3156C32.843 86.3156 33.0961 86.2144 33.2986 86.1005C33.4884 85.9866 33.6909 85.9233 33.7416 85.9739C33.7922 86.0245 33.7669 86.4548 33.6783 86.9358C33.3872 88.7456 33.5517 89.5556 34.1592 89.2392C34.7034 88.9355 35.6147 87.3661 36.0197 85.9866C36.2981 85.0247 36.3108 83.1136 36.0197 81.5695C35.9058 80.9367 35.8172 80.2027 35.8172 79.9242V79.418L36.0577 79.7344C36.1969 79.8989 36.3994 80.3292 36.5006 80.6709ZM169.594 83.8603C170.353 84.6956 171.315 86.2903 171.505 87.0117C171.568 87.2901 171.72 87.7964 171.821 88.1381C172.011 88.7203 172.011 88.7583 171.745 89.0367C171.454 89.3531 171.48 89.7075 171.809 89.9859C171.91 90.0745 171.998 90.2264 171.998 90.315C171.998 90.4542 171.695 90.4922 170.543 90.4922C169.746 90.4922 169.088 90.4416 169.088 90.3783C169.088 90.315 169.379 90.1631 169.72 90.0492C170.847 89.6822 170.935 89.3911 170.416 87.9356C170.239 87.4547 170.1 86.8219 170.1 86.5181C170.1 86.1637 169.948 85.6828 169.657 85.088C169.417 84.5944 169.214 84.1261 169.214 84.0502C169.214 83.9742 168.986 83.6578 168.708 83.354C168.429 83.0503 168.202 82.7719 168.202 82.7212C168.202 82.5441 168.936 83.1516 169.594 83.8603ZM48.4734 85.3031C48.3975 85.4423 48.3089 85.5562 48.2709 85.5562C48.2456 85.5562 48.2709 85.4423 48.3469 85.3031C48.4228 85.1639 48.5114 85.05 48.5494 85.05C48.5747 85.05 48.5494 85.1639 48.4734 85.3031ZM62.4586 87.5433C62.408 88.3659 62.3194 89.1127 62.2688 89.2139C62.1169 89.505 61.8511 88.1634 61.9523 87.5559C62.0536 86.9864 62.3827 86.0625 62.4839 86.0625C62.5219 86.0625 62.5092 86.7333 62.4586 87.5433ZM72.3938 92.1881C72.3938 92.2134 72.4823 92.5805 72.5836 92.9855C72.7481 93.6436 72.7481 93.8841 72.5836 95.0484C72.4823 95.7825 72.3938 96.8076 72.3938 97.3392C72.3938 99.9591 71.6597 101.984 69.9891 104.034C69.7359 104.351 69.2803 105.047 68.9766 105.578C68.4703 106.49 67.8375 107.274 67.8375 106.996C67.8375 106.933 68.002 106.566 68.1919 106.186C70.2802 102.111 70.2675 102.161 71.3813 98.7061C72.3684 95.6559 72.4823 94.8712 72.2292 92.9222C72.1659 92.3906 72.1659 92.1375 72.2672 92.1375C72.3305 92.1375 72.3938 92.1628 72.3938 92.1881ZM100.491 92.4539C100.491 92.6691 99.4781 94.0486 98.4909 95.2003C97.3139 96.5672 96.5419 97.2633 95.8458 97.6303C94.9599 98.0859 95.5294 98.2252 96.8709 97.8961C99.0478 97.3392 101.339 96.4786 103.781 95.2889C105.718 94.3523 106.566 94.0106 107.072 93.9473C107.717 93.8714 107.755 93.8841 107.591 94.0739C107.376 94.3523 106.11 95.2509 104.984 95.9344C104.503 96.2381 103.427 97.0355 102.617 97.7189C101.794 98.4023 100.908 99.1111 100.643 99.2883C100.174 99.592 100.136 99.6047 99.7059 99.4148C99.1111 99.1744 97.8328 99.1364 94.8459 99.2756C93.0741 99.3516 92.4033 99.3516 92.34 99.2377C92.2134 99.0478 92.745 98.5542 93.4158 98.2125C94.0233 97.9088 94.4156 97.605 94.4156 97.4278C94.4156 97.3772 94.2131 97.3266 93.96 97.3266C93.5424 97.3266 93.517 97.3012 93.6689 97.1114C93.9094 96.833 95.4028 95.8584 97.0608 94.9219C97.8834 94.4536 98.782 93.8081 99.3642 93.2766C100.225 92.4666 100.491 92.2767 100.491 92.4539ZM91.4794 95.8205C90.3024 97.1241 88.7963 98.453 87.4294 99.3895C86.4042 100.086 85.7967 100.301 84.3159 100.491C84.3033 100.491 83.797 100.946 83.2022 101.503C81.9619 102.667 80.962 103.224 79.2281 103.718C77.4056 104.224 77.0006 104.465 75.735 105.768C75.1022 106.414 74.5453 106.945 74.4947 106.945C74.3302 106.945 74.7984 106.211 75.3806 105.566C76.2286 104.617 77.2917 103.845 78.5067 103.288C79.1016 103.009 80.1647 102.402 80.8861 101.921C81.6075 101.427 83.3667 100.389 84.7969 99.6047C86.3536 98.7441 88.0242 97.7189 88.9734 97.0101C90.6694 95.7572 92.0995 94.7953 92.2894 94.7953C92.3527 94.7953 91.9856 95.2509 91.4794 95.8205ZM99.3516 99.9717C99.3516 100.174 99.0478 100.326 97.567 100.908C95.6686 101.655 92.6438 102.402 92.6438 102.136C92.6438 101.807 96.0103 100.541 98.01 100.111C99.4022 99.8198 99.3516 99.8325 99.3516 99.9717ZM48.6759 109.312C48.638 109.932 48.5494 110.73 48.4988 111.109C48.2836 112.425 48.8025 113.476 49.5872 113.375C50.1441 113.311 50.3592 112.83 50.4984 111.375C50.5617 110.641 50.7263 109.704 50.8655 109.287L51.1059 108.527L51.1186 109.299C51.1313 110.287 51.3338 110.489 52.3969 110.578C53.1183 110.641 53.1942 110.679 53.3081 110.995C53.4473 111.4 53.7005 111.502 54.713 111.502C55.3838 111.502 55.4977 111.54 55.852 111.907L56.257 112.324L55.7634 112.362C55.0927 112.413 54.3333 112.21 53.1816 111.679C51.9919 111.122 51.6628 111.147 51.2958 111.818C50.663 112.982 50.2959 115.982 50.4858 118.425C50.6503 120.576 50.6503 120.563 50.4984 120.412C50.4352 120.348 50.2073 119.361 50.0048 118.209C49.5492 115.754 49.448 115.374 49.1189 114.83C48.8152 114.349 48.4102 114.083 48.2709 114.299C48.0938 114.59 48.2203 116.564 48.5367 118.26C48.7139 119.235 48.8278 120.057 48.7898 120.082C48.6759 120.209 48.4481 119.386 48.157 117.652C47.9798 116.665 47.6761 115.21 47.4609 114.412C46.8788 112.185 46.942 111.641 48.0305 109.249C48.2963 108.679 48.562 108.211 48.638 108.211C48.7139 108.211 48.7266 108.616 48.6759 109.312ZM31.7672 111.527C32.2481 112.185 32.2481 112.312 31.7545 112.514C31.1091 112.78 30.9698 113.109 31.1977 113.856C31.4381 114.653 32.1975 115.855 32.8936 116.475C33.3492 116.893 33.577 117.323 33.3366 117.323C32.9822 117.323 30.6914 114.767 30.4256 114.096C30.2358 113.565 30.2358 113.501 30.5142 112.577C30.7547 111.742 31.147 110.995 31.3369 110.995C31.3622 110.995 31.552 111.236 31.7672 111.527ZM40.5759 162.506C40.462 163.177 40.3734 164.303 40.3734 165C40.3734 165.936 40.3228 166.316 40.1963 166.417C40.057 166.544 39.9811 166.506 39.8166 166.278C39.5508 165.911 39.5634 165.341 39.8672 163.329C40.133 161.443 40.2975 160.671 40.5253 160.152C40.6772 159.798 40.6898 159.81 40.7278 160.532C40.7531 160.937 40.6772 161.823 40.5759 162.506ZM40.4114 167.683C40.462 167.948 40.6772 168.176 41.0948 168.467C41.4239 168.695 41.9808 169.125 42.3098 169.417C42.6389 169.708 43.1831 170.049 43.5122 170.176C43.8413 170.29 44.7398 170.682 45.4992 171.062C46.2966 171.442 47.1572 171.771 47.5242 171.821C47.8913 171.872 48.6506 172.15 49.2961 172.479C50.2959 172.998 50.6503 173.277 52.1944 174.808C53.1563 175.77 53.9283 176.593 53.8903 176.618C53.8017 176.707 52.8019 176.036 52.0172 175.365C51.5109 174.935 51.1059 174.707 50.4352 174.517C49.9542 174.378 49.2581 174.061 48.8911 173.821C48.5367 173.568 47.5748 173.125 46.7648 172.808C45.9548 172.505 45.1195 172.138 44.9297 171.998C44.7272 171.859 44.3222 171.657 44.0184 171.543C43.7147 171.442 43.2464 171.214 42.9806 171.024C42.4238 170.657 41.8036 170.454 41.7023 170.594C41.6011 170.771 42.0188 172.163 42.3352 172.707C42.4997 172.986 42.968 173.454 43.3983 173.745C43.8159 174.036 44.4108 174.58 44.7272 174.935C46.4231 176.871 48.4102 183.035 48.6506 187.123C48.7139 188.16 48.7139 188.224 48.5494 187.882C48.4481 187.667 48.2203 186.743 48.0431 185.819C47.5242 183.187 46.9927 181.908 45.6764 180.098C45.36 179.643 44.6766 178.504 44.183 177.555C43.6767 176.605 43.0059 175.53 42.7022 175.15C42.3858 174.77 41.9681 174.15 41.7783 173.77C41.5884 173.391 41.1328 172.644 40.7658 172.125C39.9558 170.948 39.6773 170.087 39.7786 168.974C39.8545 168.1 40.0697 167.316 40.2469 167.316C40.2975 167.316 40.3734 167.48 40.4114 167.683ZM42.0188 202.373C42.0188 202.551 41.9555 203.588 41.8922 204.69C41.7403 206.917 41.4492 208.271 40.8797 209.36C40.1077 210.828 40.2975 211.84 41.4619 212.612C41.9681 212.941 42.1833 213.005 42.8034 213.005C43.3856 213.005 43.7147 213.093 44.3348 213.397C44.8538 213.663 45.4106 213.84 46.0055 213.903C46.4991 213.954 48.2077 214.144 49.815 214.321C52.4222 214.599 54.7636 214.941 55.3078 215.118C55.6622 215.245 54.637 215.574 53.7258 215.625C53.055 215.675 52.2323 215.574 50.3213 215.232C48.9417 214.979 47.7014 214.802 47.5748 214.84C47.4483 214.89 46.0181 214.739 44.4108 214.511C40.133 213.916 39.9178 213.764 39.9431 211.448C39.9558 209.714 40.4747 206.79 41.0822 204.955C41.3353 204.171 41.5378 203.272 41.5884 202.627C41.6644 201.703 41.7023 201.601 41.8542 201.804C41.9428 201.943 42.0188 202.184 42.0188 202.373ZM60.5348 217.017C60.6488 217.358 60.8766 218.017 61.0538 218.485C61.4588 219.535 61.4714 220.447 61.117 221.219C60.9652 221.573 60.4209 222.218 59.6869 222.927C58.7377 223.851 58.4719 224.205 58.2947 224.712C58.1808 225.053 57.9783 225.522 57.8517 225.737C57.6492 226.066 57.548 226.117 57.2189 226.066C56.6747 225.99 56.7127 225.686 57.3202 224.978C57.5986 224.661 58.0795 223.864 58.3959 223.206C59.0034 221.915 59.4591 221.408 60.4336 220.877L61.0664 220.535V219.776C61.0664 219.143 61.0031 218.94 60.712 218.561C60.5222 218.308 60.2817 217.839 60.1678 217.51C59.9653 216.928 59.9653 216.928 59.3831 216.928C58.9402 216.928 58.6491 217.029 58.2188 217.308C57.4973 217.789 57.2695 217.801 57.5733 217.333C57.6998 217.131 59.535 216.46 60.0159 216.435C60.307 216.422 60.3703 216.498 60.5348 217.017ZM52.207 231.875C52.1058 232.154 51.802 232.71 51.5363 233.103C51.2578 233.495 50.8275 234.179 50.5617 234.622C50.3086 235.052 49.9036 235.571 49.6505 235.761C49.41 235.95 49.0303 236.469 48.7898 236.925C48.2963 237.912 48.0684 238.127 47.3723 238.305C46.942 238.418 46.8155 238.52 46.7016 238.874C46.3852 239.861 45.4739 240.697 44.8538 240.57C44.6766 240.545 44.7778 240.33 45.3727 239.456C46.9547 237.153 47.1192 236.887 47.4103 236.052C47.5748 235.571 47.8406 234.47 47.9925 233.584C48.1444 232.71 48.3089 231.989 48.3469 231.989C48.3975 231.989 48.562 232.128 48.7139 232.293C48.9923 232.584 48.9923 232.597 48.7898 233.369C48.562 234.28 48.6253 234.622 49.0556 234.723C49.4733 234.824 49.6884 234.622 49.853 233.963C49.9669 233.52 50.1947 233.217 51.068 232.381C51.6755 231.825 52.207 231.356 52.2703 231.356C52.3336 231.356 52.3083 231.584 52.207 231.875Z" fill="#0F64CD"/>
<path id="Vector_2" d="M45.7397 93.7575C45.6764 93.8081 45.4866 94.0486 45.3347 94.3144C44.8031 95.175 44.145 95.6433 42.9427 96.0103C41.3733 96.4786 40.6772 96.8836 40.2849 97.5417C39.9052 98.1998 39.6267 99.6806 39.6141 101.085C39.6141 102.06 39.6267 102.136 39.8672 102.136C40.0191 102.136 40.3481 102.022 40.6266 101.883C41.0063 101.693 41.3733 101.63 42.1833 101.63C43.1578 101.63 43.2844 101.604 43.7527 101.263C44.0438 101.06 44.4614 100.655 44.6892 100.364C45.0942 99.8705 45.1449 99.8451 45.6258 99.9084C47.2078 100.136 47.5369 100.136 47.7141 99.9211C48.0178 99.5541 47.9545 98.6681 47.6002 98.2884C47.423 98.1112 47.2458 97.9594 47.1952 97.9594C47.1445 97.9594 46.9547 97.9087 46.7649 97.8328L46.4358 97.7062L46.7269 97.1873C46.8914 96.9089 47.1192 96.4912 47.2331 96.2761C47.4989 95.8078 47.5242 95.1623 47.3217 94.7573C47.1066 94.3523 46.3219 93.6562 46.0814 93.6562C45.9675 93.6562 45.8156 93.7069 45.7397 93.7575Z" fill="#0F64CD"/>
</g>
</g>
<defs>
<clipPath id="clip0_30_111">
<rect width="174.403" height="243" fill="white"/>
</clipPath>
</defs>
</svg>
